<svg xmlns="http://www.w3.org/2000/svg" viewBox="0 0 18 18"><path d="M2.04.692c-.439.058-.837.26-1.173.595a2.065 2.065 0 0 0-.543.917l-.069.241v4.05c0 4.542-.017 4.192.223 4.68.247.502.675.873 1.217 1.056.233.078.265.081 1.056.092l.815.012.01.92c.009.893.011.925.08 1.077.13.289.43.489.736.492a.794.794 0 0 0 .528-.171c.074-.055.634-.6 1.245-1.211l1.11-1.112 3.06-.001c3.437 0 3.284.009 3.751-.221a2.13 2.13 0 0 0 1.056-1.197l.083-.246.008-4.08c.01-4.525.019-4.288-.188-4.72A2.141 2.141 0 0 0 13.695.73c-.17-.05-.497-.053-5.82-.058C4.773.669 2.147.678 2.04.692m11.397.84c.361.083.681.339.848.679l.1.203V10.575l-.096.202c-.124.262-.34.478-.602.602l-.202.096-3.255.015c-2.671.012-3.268.022-3.33.056-.041.022-.618.582-1.283 1.244L4.41 13.994V12.9c0-1.032-.004-1.1-.059-1.191-.125-.205-.111-.202-1.275-.22-.886-.013-1.071-.024-1.179-.066a1.372 1.372 0 0 1-.666-.591c-.156-.305-.151-.175-.151-4.309 0-2.472.011-3.902.03-4.006.064-.339.282-.653.574-.828.328-.197-.065-.185 6.056-.186 3.648-.001 5.61.009 5.697.029m-6.14 1.691c-.486.118-1.004.535-1.217.978a2.645 2.645 0 0 0-.156.433c-.044.191-.044.217.001.336.058.15.16.241.301.267.243.046.433-.09.495-.354.142-.606.629-.952 1.213-.858.341.054.607.261.762.591.066.141.079.211.079.424 0 .423-.151.675-.57.947-.418.273-.681.596-.803.988-.088.284-.096.859-.013.985a.441.441 0 0 0 .582.141c.144-.088.18-.188.195-.545.02-.47.114-.626.54-.901.251-.162.536-.447.662-.661a2.54 2.54 0 0 0 .162-.372c.071-.206.082-.283.081-.582 0-.292-.013-.382-.08-.587a2.123 2.123 0 0 0-.196-.42c-.244-.377-.705-.709-1.118-.807a2.658 2.658 0 0 0-.92-.003m9.025.218a.42.42 0 0 0-.231.311c-.027.171.048.301.272.47.301.227.464.476.524.802.047.253.046 7.752-.001 7.972a1.282 1.282 0 0 1-1.013.983c-.089.017-.574.031-1.08.031-.858 0-.924.004-1.014.059-.188.114-.189.123-.189 1.342v1.104l-1.223-1.219c-.672-.671-1.251-1.235-1.288-1.253-.045-.023-.69-.033-2.16-.033-2.024 0-2.097.002-2.19.059a.411.411 0 0 0-.12.574c.134.199.044.191 2.196.2l1.95.008 1.17 1.167c.778.776 1.213 1.188 1.3 1.231.406.202.907.017 1.12-.413.067-.137.07-.169.079-1.059l.011-.919.755-.016c.628-.013.794-.026.985-.077a2.092 2.092 0 0 0 1.554-1.737c.042-.287.041-7.821-.001-8.078a2.055 2.055 0 0 0-.862-1.393c-.243-.166-.389-.197-.544-.116M7.56 9.053a.398.398 0 0 0-.174.192c-.062.124-.066.153-.035.268.066.246.322.382.543.288.325-.138.359-.567.058-.736a.372.372 0 0 0-.392-.012" fill="currentColor" fill-rule="evenodd"/></svg>