<svg xmlns="http://www.w3.org/2000/svg" viewBox="0 0 6 9"><g fill="none" class="nc-icon-wrapper"><path d="M5.34766 3.96094C5.48828 4.11719 5.55859 4.29688 5.55859 4.5C5.55859 4.70312 5.48828 4.88281 5.34766 5.03906L1.59766 8.78906C1.44141 8.92969 1.26172 9 1.05859 9C0.855469 9 0.675781 8.92969 0.519531 8.78906C0.378906 8.63281 0.308594 8.45312 0.308594 8.25C0.308594 8.04688 0.378906 7.86719 0.519531 7.71094L3.75391 4.5L0.519531 1.28906C0.378906 1.13281 0.308594 0.953125 0.308594 0.75C0.308594 0.546875 0.378906 0.367188 0.519531 0.210938C0.675781 0.0703125 0.855469 0 1.05859 0C1.26172 0 1.44141 0.0703125 1.59766 0.210938L5.34766 3.96094Z" fill="currentColor"></path></g></svg>