<svg xmlns="http://www.w3.org/2000/svg" viewBox="0 0 32 32"><g fill="currentColor" class="nc-icon-wrapper"><path d="M3.524 7.508c-.28.28-.247.815.067 1.047l.151.112 12.063.016c6.635.008 12.165.001 12.291-.017a.815.815 0 0 0 .365-.151l-.002.002c.268-.231.265-.804-.004-1.036l-.139-.12H3.673l-.148.148zm0 8c-.28.28-.247.815.067 1.047l.151.112 12.063.016c6.635.008 12.165.001 12.291-.017a.815.815 0 0 0 .365-.151l-.002.002c.268-.231.265-.804-.004-1.036l-.139-.12H3.673l-.148.148zm0 8c-.28.28-.247.815.067 1.047l.151.112 12.063.016c6.635.008 12.165.001 12.291-.017a.815.815 0 0 0 .365-.151l-.002.002c.268-.231.265-.804-.004-1.036l-.139-.12H3.673l-.148.148z"></path></g></svg>