<svg xmlns="http://www.w3.org/2000/svg" viewBox="0 0 11 13"><g fill="none" class="nc-icon-wrapper"><path d="M2.625 0.5C2.85938 0.515625 2.98438 0.640625 3 0.875V2H7.5V0.875C7.51562 0.640625 7.64062 0.515625 7.875 0.5C8.10938 0.515625 8.23438 0.640625 8.25 0.875V2H9C9.42188 2.01562 9.77344 2.16406 10.0547 2.44531C10.3359 2.72656 10.4844 3.07812 10.5 3.5V4.25V5V11C10.4844 11.4219 10.3359 11.7734 10.0547 12.0547C9.77344 12.3359 9.42188 12.4844 9 12.5H1.5C1.07812 12.4844 0.726562 12.3359 0.445312 12.0547C0.164062 11.7734 0.015625 11.4219 0 11V5V4.25V3.5C0.015625 3.07812 0.164062 2.72656 0.445312 2.44531C0.726562 2.16406 1.07812 2.01562 1.5 2H2.25V0.875C2.26562 0.640625 2.39062 0.515625 2.625 0.5ZM9.75 5H7.3125V6.6875H9.75V5ZM9.75 7.4375H7.3125V9.3125H9.75V7.4375ZM9.75 10.0625H7.3125V11.75H9C9.21875 11.75 9.39844 11.6797 9.53906 11.5391C9.67969 11.3984 9.75 11.2188 9.75 11V10.0625ZM6.5625 9.3125V7.4375H3.9375V9.3125H6.5625ZM3.9375 10.0625V11.75H6.5625V10.0625H3.9375ZM3.1875 9.3125V7.4375H0.75V9.3125H3.1875ZM0.75 10.0625V11C0.75 11.2188 0.820312 11.3984 0.960938 11.5391C1.10156 11.6797 1.28125 11.75 1.5 11.75H3.1875V10.0625H0.75ZM0.75 6.6875H3.1875V5H0.75V6.6875ZM3.9375 6.6875H6.5625V5H3.9375V6.6875ZM9 2.75H1.5C1.28125 2.75 1.10156 2.82031 0.960938 2.96094C0.820312 3.10156 0.75 3.28125 0.75 3.5V4.25H9.75V3.5C9.75 3.28125 9.67969 3.10156 9.53906 2.96094C9.39844 2.82031 9.21875 2.75 9 2.75Z" fill="currentColor"></path></g></svg>