<svg xmlns="http://www.w3.org/2000/svg" viewBox="0 0 64 64"><path d="M43.718.148a2.413 2.413 0 0 0-1.365 3.372c.464.92 1.329 1.387 2.567 1.387h.733v1.384c0 1.351-.006 1.386-.24 1.433-2.245.45-3.46.841-4.954 1.593-.83.418-2.318 1.398-2.912 1.917l-.374.327-.065-2.874c-.071-3.12-.118-3.411-.761-4.687-.403-.798-1.418-1.808-2.269-2.256-1.365-.72-.392-.677-15.297-.676-10.909.001-13.603.028-14.034.143-1.821.486-3.266 1.817-3.99 3.677L.48 5.6.452 32.191c-.025 23.634-.01 26.67.136 27.3.455 1.962 1.802 3.473 3.764 4.223l.608.233 13.466.029c14.826.032 14.158.059 15.511-.625 1.269-.64 2.428-2.007 2.882-3.397.205-.63.233-1 .276-3.661l.047-2.96h3.501c2.956 0 3.526-.024 3.66-.158.087-.087.259-.603.382-1.147 1.032-4.559 1.487-6.518 1.494-6.424.026.379 2.044 16.266 2.096 16.51.109.506.814.602 1.013.138.053-.124.65-2.793 1.326-5.932a851.263 851.263 0 0 1 1.264-5.813c.018-.059.215.445.436 1.12.222.674.471 1.334.554 1.466l.15.24h3.99c4.318 0 4.325-.001 4.325-.573 0-.487-.049-.493-3.943-.493h-3.688l-.664-2.003c-.366-1.102-.739-2.11-.831-2.24a.581.581 0 0 0-.783-.14c-.095.061-.567 2.015-1.295 5.359-.63 2.895-1.17 5.192-1.201 5.104-.031-.088-.496-3.712-1.033-8.054-.537-4.341-1.012-8.01-1.055-8.152-.044-.143-.153-.306-.243-.362-.219-.139-.69-.011-.775.21-.07.182-2.302 10.078-2.302 10.206 0 .039-1.44.072-3.2.072h-3.2V43.78c0-6.759.027-8.47.133-8.408.074.043.35.255.614.472 1.203.989 3.173 2.052 4.832 2.607 2.185.73 4.882.979 7.089.652 3.61-.534 6.661-2.067 9.145-4.595a15.987 15.987 0 0 0 4.431-8.918c.174-1.196.146-3.526-.057-4.742-.339-2.033-1.324-4.527-2.455-6.213l-.472-.702 1.481-1.512c1.5-1.531 1.714-1.858 1.709-2.608-.003-.491-.394-1.114-1.185-1.887-.844-.826-1.148-.993-1.809-.993-.728 0-1.135.271-2.647 1.759-.805.793-1.496 1.441-1.535 1.441-.039 0-.489-.239-.999-.531-1.469-.843-3.306-1.477-5.448-1.881-.235-.044-.24-.078-.24-1.43V4.907h.707c.389 0 .894-.056 1.121-.124.552-.166 1.249-.778 1.49-1.31.256-.562.256-1.477 0-2.039-.241-.533-.938-1.145-1.49-1.31-.611-.183-7.295-.162-7.817.024m7.81 1.207c.337.199.632.72.632 1.114-.001.335-.349.888-.705 1.122-.214.14-.591.203-1.469.245-1.493.072-1.449.007-1.451 2.164l-.002 1.573H46.72V5.826c0-1.268-.036-1.776-.133-1.855-.074-.059-.638-.129-1.254-.155-1.256-.052-1.616-.178-1.922-.674-.369-.597-.253-1.256.306-1.728.281-.238.307-.24 3.893-.24 3.212-.001 3.644.019 3.918.181M32.976 2.43c1.185.479 2.215 1.511 2.658 2.663.175.454.25.926.288 1.814l.052 1.2H1.6V7.05c0-2.038.783-3.468 2.371-4.333 1.085-.591.472-.568 14.962-.548l13.44.018.603.243m28.017 5.72c.16.082.541.415.848.74.469.495.559.655.559.989 0 .368-.106.505-1.369 1.778l-1.368 1.38-.738-.74c-.406-.408-.93-.894-1.165-1.081l-.427-.341 1.448-1.437c1.513-1.502 1.647-1.581 2.212-1.288m-12.194.599c5.297.439 9.732 3.461 12.14 8.27.425.848.987 2.567 1.202 3.674.29 1.492.27 4.16-.043 5.62-.641 2.995-1.932 5.379-4.064 7.504-2.84 2.83-6.32 4.282-10.301 4.298-3.89.015-7.37-1.364-10.163-4.029-1.354-1.292-2.25-2.509-3.067-4.166-1.184-2.404-1.603-4.363-1.505-7.04.032-.88.136-1.96.231-2.4a16.097 16.097 0 0 1 2.325-5.44c.701-1.036 2.783-3.108 3.806-3.788 2.193-1.459 4.56-2.294 7.088-2.502.531-.044.989-.086 1.019-.093.029-.008.629.034 1.332.092M35.947 10.93v1.758l-.913 1.202c-1.487 1.962-2.505 4.292-2.996 6.857-.25 1.308-.25 4.022 0 5.333.537 2.823 1.702 5.33 3.469 7.465l.44.531v21.711H1.6V9.173H35.947v1.757m9.563.547c-2.376.429-4.596 1.597-6.368 3.35-4.826 4.772-4.803 12.459.052 17.226 2.167 2.128 4.89 3.311 7.911 3.438 1.658.069 2.774-.071 4.202-.527 6.146-1.962 9.695-8.324 8.108-14.533-1.19-4.653-5.054-8.204-9.756-8.967-1.193-.193-3.038-.188-4.149.013M19.2 12.49c-.754.148-1.77.704-2.385 1.305-1.841 1.801-1.91 4.783-.154 6.646.901.957 1.819 1.427 3.095 1.586 1.579.198 3.487-.716 4.453-2.131.671-.984.978-2.421.752-3.53-.55-2.703-3.073-4.4-5.761-3.876m27.947.782c0 .675.041.941.167 1.067.211.211.363.211.662.002.213-.149.237-.258.237-1.057v-.89l.454.05c1.686.186 3.318.718 4.66 1.521 2.864 1.713 4.882 4.826 5.275 8.142l.061.506h-.958c-.816 0-.99.032-1.172.214-.276.276-.269.38.049.698.237.238.347.262 1.186.262h.924l-.074.72a11.062 11.062 0 0 1-3.785 7.252c-1.71 1.464-3.636 2.295-6.113 2.637l-.507.07v-1.119c0-1.206-.097-1.454-.573-1.454-.427 0-.493.189-.493 1.409v1.153l-.614-.068c-1.678-.187-3.645-.911-5.052-1.858-.866-.583-2.274-1.988-2.849-2.843-.54-.802-1.138-1.976-1.412-2.772-.249-.724-.527-2.154-.527-2.712v-.415h.883c1.033 0 1.357-.154 1.357-.643 0-.431-.249-.531-1.326-.531-1.072 0-1.028.089-.712-1.442.94-4.554 4.751-8.092 9.345-8.676.411-.052.783-.101.827-.108.044-.008.08.391.08.885m-25.372.578a3.71 3.71 0 0 1 1.699 1.635c.344.634.366.736.366 1.688 0 .869-.039 1.097-.277 1.6a3.987 3.987 0 0 1-1.803 1.804c-.504.237-.729.276-1.6.275-.895-.002-1.078-.036-1.569-.293-.806-.423-1.23-.837-1.635-1.595-.3-.563-.364-.81-.403-1.538-.053-1.027.122-1.656.671-2.404.397-.54 1.106-1.079 1.737-1.319.627-.238 2.194-.156 2.814.147m30.439 3.021c-.201.122-4.873 3.53-5.95 4.34-1.207.909-1.358 2.343-.358 3.402.748.791 1.855.923 2.806.336.353-.218 4.844-6.226 5.04-6.742.141-.37-.046-.995-.359-1.2-.343-.224-.922-.291-1.179-.136m-.031 1.716c-.226.308-1.147 1.568-2.046 2.8-.898 1.232-1.731 2.347-1.849 2.478-.435.481-1.366.406-1.723-.139-.223-.34-.211-1.034.022-1.31.169-.199 5.861-4.389 5.963-4.389.024 0-.141.252-.367.56m-35.785 4.322c-.549.251-7.257 6.638-7.492 7.133-.221.467-.226 1.305-.011 1.722.28.542.8.893 3.574 2.413l2.708 1.485-.066 1.071-.065 1.071-1.522 1.525-1.521 1.524H7.729c-3.181 0-4.306.033-4.401.128-.095.095-.128 1.142-.128 4.051v3.923l.266.174c.223.147.364.157.89.064 1.571-.277 2.84-1.373 3.268-2.824l.133-.449 2.921-.053c2.832-.052 2.938-.062 3.455-.315.38-.187 1.233-.952 2.959-2.657l2.425-2.394 3.131-.052 3.131-.051.07 1.631c.039.897.071 2.821.071 4.275 0 2.611.003 2.646.237 2.81.204.143.767.166 4 .166 3.694 0 3.767-.004 3.989-.226.198-.198.218-.303.157-.826-.08-.673-.435-1.523-.883-2.112-.373-.491-1.424-1.18-2.03-1.333l-.457-.115v-3.437c0-3.726-.045-4.105-.581-4.807-.154-.201-.506-.499-.782-.662l-.503-.295-3.28-.034-3.281-.034.054-.393c.17-1.236.703-8.589.657-9.06-.119-1.211-.91-2.349-2.016-2.902l-.648-.324-1.877.003c-1.545.002-1.947.035-2.278.186m4.524 1.254c.252.178.603.529.78.78.27.384.327.579.36 1.224.031.63-.458 7.407-.681 9.426-.052.467-.027.588.159.774.213.213.325.22 3.779.22 3.448 0 3.568.007 3.842.222.592.466.599.518.599 4.565 0 2.079.045 3.849.101 3.997.108.285.22.335.989.439.913.124 1.951 1.04 2.21 1.95l.098.347H26.987v-4.179c0-3.738-.019-4.198-.177-4.373-.165-.182-.43-.195-3.966-.195h-3.79l-2.514 2.494c-1.382 1.371-2.681 2.583-2.887 2.693-.337.18-.678.202-3.506.224-3.283.026-3.427.047-3.427.503 0 1.13-1.016 2.403-2.213 2.773l-.24.074V41.92h8.254l1.804-1.795 1.804-1.795.071-.919c.039-.505.106-.953.149-.995.042-.043.199-.022.349.047.573.261 1.601.073 2.109-.387.553-.5.768-1.573.459-2.293-.244-.57-.773-.953-2.893-2.098-1.114-.602-2.061-1.127-2.103-1.165-.042-.039 1.002-1.067 2.32-2.285 1.318-1.218 2.397-2.289 2.397-2.379 0-.335-.219-.576-.523-.576-.246 0-.811.47-3.042 2.526-2.515 2.32-2.737 2.552-2.707 2.844.03.297.204.412 2.686 1.775 1.46.801 2.72 1.547 2.8 1.657.243.332.177.783-.166 1.126-.172.172-.424.312-.56.312-.319 0-7.228-3.78-7.473-4.088a.849.849 0 0 1-.086-.917c.116-.218 6.422-6.265 6.831-6.551.232-.163.488-.183 1.991-.156l1.724.032.46.323m15.005 34.005c-.043 1.12-.074 1.269-.432 2.022-.651 1.37-1.763 2.261-3.228 2.585-.657.146-2.333.162-13.867.135l-13.12-.03-.64-.256c-1.268-.506-2.072-1.254-2.652-2.464-.302-.631-.335-.807-.371-1.947l-.039-1.253h34.396l-.047 1.208" fill="currentColor" fill-rule="evenodd"/></svg>