<svg xmlns="http://www.w3.org/2000/svg" viewBox="0 0 14 14"><g fill="none" class="nc-icon-wrapper"><path d="M6.46119 12.4073C6.42405 12.4073 6.38731 12.3996 6.35329 12.3847C6.31927 12.3698 6.28869 12.348 6.26349 12.3208L0.93307 6.55479C0.897536 6.51635 0.87398 6.46838 0.865283 6.41676C0.856587 6.36514 0.863128 6.31211 0.884105 6.26415C0.905083 6.21618 0.939588 6.17538 0.983397 6.14672C1.02721 6.11807 1.07842 6.10281 1.13077 6.10281H3.69654C3.73506 6.10281 3.77313 6.11108 3.80819 6.12705C3.84325 6.14302 3.87447 6.16633 3.89975 6.19539L5.6812 8.24489C5.87372 7.83334 6.24642 7.14809 6.90044 6.3131C7.8673 5.07868 9.66571 3.26323 12.7426 1.62437C12.8021 1.5927 12.8712 1.58448 12.9365 1.60133C13.0017 1.61819 13.0583 1.65889 13.0949 1.7154C13.1316 1.77191 13.1458 1.84012 13.1346 1.90657C13.1235 1.97302 13.0878 2.03287 13.0347 2.07431C13.023 2.08349 11.8366 3.01772 10.4713 4.72892C9.21474 6.30365 7.54438 8.87857 6.72245 12.2028C6.70801 12.2612 6.67443 12.3131 6.62706 12.3501C6.57969 12.3872 6.52126 12.4074 6.4611 12.4074L6.46119 12.4073Z" fill="currentColor"></path></g></svg>