<svg xmlns="http://www.w3.org/2000/svg" viewBox="0 0 32 32"><g fill="currentColor" class="nc-icon-wrapper"><path d="M16 4.167C9.465 4.167 4.167 9.465 4.167 16S9.465 27.833 16 27.833 27.833 22.535 27.833 16 22.535 4.167 16 4.167zM1.167 16C1.167 7.808 7.808 1.167 16 1.167S30.833 7.808 30.833 16 24.192 30.833 16 30.833 1.167 24.192 1.167 16zM16 6.5A1.5 1.5 0 0 1 17.5 8v7.073l4.504 2.252a1.5 1.5 0 1 1-1.351 2.679l.008.004-5.333-2.667a1.504 1.504 0 0 1-.829-1.342v-8a1.5 1.5 0 0 1 1.5-1.5z"></path></g></svg>