<svg xmlns="http://www.w3.org/2000/svg" viewBox="0 0 48 48"><g fill="none" class="nc-icon-wrapper"><path d="M30.1875 3.1875C30.5625 2.9375 30.9375 2.9375 31.3125 3.1875L44.7188 16.875C46.9062 19.125 48 21.75 48 24.75C48 27.75 46.9062 30.375 44.7188 32.625L32.8125 44.8125C32.4375 45.0625 32.0625 45.0625 31.6875 44.8125C31.375 44.4375 31.375 44.0625 31.6875 43.6875L43.6875 31.5938C45.5625 29.5938 46.5 27.3125 46.5 24.75C46.5 22.1875 45.5625 19.9062 43.6875 17.9062L30.1875 4.3125C29.9375 3.9375 29.9375 3.5625 30.1875 3.1875ZM1.5 7.5V21.5625C1.5 22.75 1.9375 23.7812 2.8125 24.6562L18.5625 40.4062C19.5 41.2812 20.5625 41.7188 21.75 41.7188C22.9375 41.7188 24 41.2812 24.9375 40.4062L37.4062 27.9375C38.2812 27 38.7188 25.9375 38.7188 24.75C38.7188 23.5625 38.2812 22.5 37.4062 21.5625L21.6562 5.8125C20.7812 4.9375 19.75 4.5 18.5625 4.5H4.5C3.625 4.5 2.90625 4.78125 2.34375 5.34375C1.78125 5.90625 1.5 6.625 1.5 7.5ZM0 7.5C0.0625 6.25 0.5 5.1875 1.3125 4.3125C2.1875 3.5 3.25 3.0625 4.5 3H18.4688C20.1562 3 21.5938 3.59375 22.7812 4.78125L38.5312 20.5312C39.6562 21.7812 40.2188 23.1875 40.2188 24.75C40.2188 26.375 39.6562 27.7812 38.5312 28.9688L25.9688 41.5312C24.7188 42.7188 23.3125 43.3125 21.75 43.3125C20.125 43.3125 18.7188 42.7188 17.5312 41.5312L1.78125 25.7812C0.59375 24.5938 0 23.1875 0 21.5625V7.5ZM10.5 11.25C9.125 11.375 8.375 12.125 8.25 13.5C8.375 14.875 9.125 15.625 10.5 15.75C11.875 15.625 12.625 14.875 12.75 13.5C12.625 12.125 11.875 11.375 10.5 11.25ZM10.5 17.25C9.0625 17.1875 7.96875 16.5625 7.21875 15.375C6.59375 14.125 6.59375 12.875 7.21875 11.625C7.96875 10.4375 9.0625 9.8125 10.5 9.75C11.9375 9.8125 13.0312 10.4375 13.7812 11.625C14.4062 12.875 14.4062 14.125 13.7812 15.375C13.0312 16.5625 11.9375 17.1875 10.5 17.25Z" fill="currentColor"></path></g></svg>