<svg xmlns="http://www.w3.org/2000/svg" viewBox="0 0 49 49"><g fill="none" class="nc-icon-wrapper"><path d="M42.25 2.4375C41.625 1.875 40.9375 1.59375 40.1875 1.59375C39.375 1.59375 38.6562 1.875 38.0312 2.4375L31.75 8.71875L40.2812 17.25L46.5625 10.9688C47.125 10.3437 47.4062 9.625 47.4062 8.8125C47.4062 8.0625 47.125 7.375 46.5625 6.75L42.25 2.4375ZM7.9375 32.5312C6.9375 33.5312 6.21875 34.7188 5.78125 36.0938L2.875 46.125L12.9062 43.2188C14.2812 42.7812 15.4688 42.0625 16.4688 41.0625L39.25 18.2812L30.7188 9.75L7.9375 32.5312ZM37 1.40625C37.875 0.53125 38.9375 0.09375 40.1875 0.09375C41.375 0.09375 42.4375 0.53125 43.375 1.40625L47.5938 5.625C48.4688 6.5625 48.9062 7.625 48.9062 8.8125C48.9062 10 48.4688 11.0625 47.5938 12L17.5 42.1875C16.3125 43.3125 14.9375 44.125 13.375 44.625L1.9375 48C1.6875 48.0625 1.4375 48 1.1875 47.8125C1 47.5625 0.9375 47.3125 1 47.0625L4.375 35.625C4.875 34.0625 5.6875 32.6875 6.8125 31.5L37 1.40625ZM15.625 3.09375C14.875 2.34375 14 1.96875 13 1.96875C12 1.96875 11.125 2.34375 10.375 3.09375L4.09375 9.375C3.34375 10.125 2.96875 11 2.96875 12C2.96875 13 3.34375 13.875 4.09375 14.625L11.3125 21.8438L10.1875 22.875L3.0625 15.75C2 14.625 1.46875 13.375 1.46875 12C1.46875 10.625 2 9.375 3.0625 8.25L9.25 2.0625C10.375 1 11.625 0.46875 13 0.46875C14.375 0.46875 15.625 1 16.75 2.0625L23.875 9.1875L22.8438 10.3125L19.2812 6.75L14.3125 11.8125C13.9375 12.0625 13.5625 12.0625 13.1875 11.8125C12.9375 11.4375 12.9375 11.0625 13.1875 10.6875L18.25 5.71875L15.625 3.09375ZM26.125 38.8125L27.1562 37.7812L34.375 44.9062C35.125 45.6562 36 46.0312 37 46.0312C38 46.0312 38.875 45.6562 39.625 44.9062L45.9062 38.625C46.6562 37.875 47.0312 37 47.0312 36C47.0312 35 46.6562 34.125 45.9062 33.375L43.2812 30.75L38.3125 35.8125C37.9375 36.0625 37.5625 36.0625 37.1875 35.8125C36.9375 35.4375 36.9375 35.0625 37.1875 34.6875L42.25 29.7188L38.7812 26.1562L39.8125 25.125L46.9375 32.25C48 33.375 48.5312 34.625 48.5312 36C48.5312 37.375 48 38.625 46.9375 39.75L40.75 45.9375C39.625 47 38.375 47.5312 37 47.5312C35.625 47.5312 34.375 47 33.25 45.9375L26.125 38.8125Z" fill="currentColor"></path></g></svg>