<svg xmlns="http://www.w3.org/2000/svg" viewBox="0 0 20 20"><path d="M16.05.063c-.055.035-1.592 1.558-3.416 3.383l-3.317 3.32L6.75 4.204C4.462 1.921 4.161 1.631 3.974 1.54c-.454-.222-.933-.23-1.367-.024-.239.113-.314.179-1.094.961C.64 3.354.525 3.5.418 3.872a2.126 2.126 0 0 0-.033.782c.013.071.075.242.137.379.112.246.157.294 2.654 2.792l2.54 2.542-2.839 2.841C.941 15.145.03 16.079.015 16.142c-.057.236-.076.214 1.777 2.066 1.848 1.847 1.832 1.834 2.065 1.777.064-.015.978-.907 2.935-2.862l2.841-2.839 1.909 1.907 1.908 1.907 2.417.836c2.684.93 2.618.913 2.807.702a.314.314 0 0 0 .093-.234c0-.086-.289-.937-.852-2.508l-.853-2.377-1.914-1.917-1.915-1.917 3.336-3.333c1.834-1.833 3.358-3.377 3.387-3.43a.388.388 0 0 0 .033-.231c-.016-.125-.134-.251-1.745-1.864-.95-.951-1.768-1.751-1.817-1.777a.363.363 0 0 0-.377.015m2.559 4.112-.425.425-.334-.334c-.343-.342-.467-.414-.646-.379a.373.373 0 0 0-.285.262c-.07.205-.022.297.355.676l.342.342-.425.425-.424.424-.659-.653a16.09 16.09 0 0 0-.74-.708.49.49 0 0 0-.225-.055.395.395 0 0 0-.371.283c-.059.216-.002.297.722 1.026l.687.693-.423.423-.423.423-.362-.357c-.347-.341-.369-.358-.505-.358-.273 0-.465.212-.418.462.018.095.098.197.369.473l.346.351-.424.424-.425.424-.666-.669c-.367-.368-.71-.692-.764-.721-.275-.145-.626.112-.57.419.019.101.139.237.728.829l.705.709-.341.341-.341.341-1.392-1.391-1.392-1.392 3.184-3.183L16.25.967l1.391 1.391 1.392 1.391-.424.426M3.642 2.278c.078.046.43.374.783.728l.642.644-1.234 1.233L2.6 6.116l-.634-.633c-.739-.737-.816-.853-.793-1.191.008-.115.042-.269.076-.342.094-.199 1.486-1.594 1.7-1.703a.722.722 0 0 1 .693.031m7.25 7.197 5.242 5.242-.484.483-.484.483-5.233-5.233C7.055 7.572 4.7 5.202 4.7 5.184c0-.033.901-.951.933-.951.009 0 2.376 2.359 5.259 5.242m-1.533 1.534L14.6 16.25l-.467.467-.467.466-5.249-5.25-5.25-5.249.458-.459c.251-.252.465-.458.475-.458.009 0 2.376 2.359 5.259 5.242m-.709 3.124-.417.417-.675-.672c-.371-.369-.707-.688-.747-.708a.598.598 0 0 0-.212-.037c-.114 0-.16.021-.252.114-.098.097-.114.135-.114.273v.16l.7.703c.385.386.7.717.7.735 0 .018-.187.22-.416.448l-.416.415-.362-.357c-.346-.341-.369-.357-.504-.357-.179 0-.319.082-.388.226-.097.207-.048.31.338.705l.346.355-.424.424-.424.423-.667-.669c-.366-.368-.71-.692-.763-.72-.12-.064-.33-.042-.427.045a.458.458 0 0 0-.141.389c.016.078.201.286.726.814l.704.708-.532.533-.532.534-1.392-1.392L.967 16.25l2.658-2.658 2.658-2.659 1.392 1.392 1.392 1.391-.417.417m8.474 2.94c.316.884.568 1.612.561 1.62-.013.013-3.221-1.087-3.25-1.115-.016-.014 2.068-2.112 2.098-2.111.009 0 .275.723.591 1.606" fill="currentColor" fill-rule="evenodd"/></svg>