<svg xmlns="http://www.w3.org/2000/svg" viewBox="0 0 14 14"><path d="M6.418.026a7.012 7.012 0 0 0-4.377 2.037C.973 3.137.303 4.479.067 6.02c-.076.492-.076 1.468 0 1.96.237 1.548.91 2.891 1.986 3.967s2.419 1.749 3.967 1.986c.288.045.434.052.98.052s.692-.007.98-.052c1.543-.236 2.878-.903 3.956-1.975 1.091-1.085 1.752-2.407 2-4.001.073-.467.072-1.454-.003-1.937-.237-1.549-.91-2.893-1.986-3.967A7 7 0 0 0 6.418.026M7.84 1.155a5.83 5.83 0 0 1 2.261.822c1.347.832 2.328 2.206 2.66 3.728.104.476.129.727.129 1.295s-.025.819-.129 1.295c-.365 1.672-1.499 3.143-3.038 3.944a5.905 5.905 0 0 1-8.572-4.422c-.058-.377-.058-1.257 0-1.634.136-.876.39-1.578.826-2.284.937-1.518 2.545-2.552 4.281-2.754l.299-.035c.183-.021 1.05.01 1.283.045M6.615 3.547a2.314 2.314 0 0 0-1.012.475 2.165 2.165 0 0 0-.782 1.601c-.002.186.005.237.048.315.15.279.47.384.743.244.13-.066.26-.233.277-.356l.033-.253a1.1 1.1 0 0 1 .611-.855c.174-.085.178-.086.467-.086.289 0 .293.001.467.086.325.158.557.474.612.834.051.325-.066.671-.309.915-.209.21-.421.296-.82.336a.565.565 0 0 0-.404.238c-.096.144-.11.299-.102 1.076.007.694.009.718.062.826.07.142.193.242.352.289a.544.544 0 0 0 .631-.283c.057-.112.06-.133.067-.621l.008-.505.191-.073c.312-.119.54-.267.775-.503.317-.319.481-.602.596-1.031.072-.266.073-.734.002-1.021a2.217 2.217 0 0 0-1.549-1.603c-.193-.056-.757-.082-.964-.045m.239 6.137a.768.768 0 0 0-.476.373c-.065.124-.061.467.009.597.114.216.382.383.613.383a.75.75 0 0 0 .611-.383.777.777 0 0 0 .03-.529c-.102-.308-.477-.518-.787-.441" fill="currentColor" fill-rule="evenodd"/></svg>