<svg xmlns="http://www.w3.org/2000/svg" viewBox="0 0 14 13"><g fill="none" class="nc-icon-wrapper"><path d="M2.188 1.938v2.625h2.624V1.938H2.188zm-1.313 0c.018-.365.146-.675.383-.93.255-.237.565-.365.93-.383h2.624c.365.018.675.146.93.383.237.255.365.565.383.93v2.625a1.427 1.427 0 0 1-.383.93 1.427 1.427 0 0 1-.93.382H2.188a1.427 1.427 0 0 1-.93-.383 1.427 1.427 0 0 1-.382-.93V1.938zm1.313 7v2.624h2.624V8.938H2.188zm-1.313 0c.018-.365.146-.675.383-.93.255-.237.565-.365.93-.383h2.624c.365.018.675.146.93.383.237.255.365.565.383.93v2.624a1.427 1.427 0 0 1-.383.93 1.427 1.427 0 0 1-.93.383H2.188a1.427 1.427 0 0 1-.93-.383 1.427 1.427 0 0 1-.382-.93V8.938zm10.938-7H9.187v2.625h2.626V1.938zM9.187.625h2.626c.364.018.674.146.93.383.236.255.364.565.382.93v2.625a1.427 1.427 0 0 1-.383.93 1.427 1.427 0 0 1-.93.382H9.188a1.427 1.427 0 0 1-.93-.383 1.427 1.427 0 0 1-.383-.93V1.938c.018-.364.146-.674.383-.93.255-.236.565-.364.93-.382zm0 8.313v2.624h2.626V8.938H9.187zm-1.312 0c.018-.365.146-.675.383-.93.255-.237.565-.365.93-.383h2.624c.365.018.675.146.93.383.237.255.365.565.383.93v2.624a1.427 1.427 0 0 1-.383.93 1.427 1.427 0 0 1-.93.383H9.188a1.427 1.427 0 0 1-.93-.383 1.427 1.427 0 0 1-.383-.93V8.938z" fill="currentColor"></path></g></svg>