<svg xmlns="http://www.w3.org/2000/svg" viewBox="0 0 64 64"><path d="M4.723.161C3.159.501 1.587 1.71.829 3.158.053 4.638.11 2.348.11 32c0 29.652-.057 27.362.719 28.842.514.981 1.455 1.922 2.436 2.437 1.46.765.636.728 15.747.696l13.575-.028.64-.253c.794-.314 1.011-.315 1.813-.009.543.207.841.244 1.973.245 1.165 0 1.455-.038 2.294-.3.528-.166 1.032-.301 1.12-.301.088 0 .592.135 1.12.3.814.254 1.153.3 2.24.308 1.53.012 2.429-.231 3.493-.943.754-.505 1.929-1.813 2.828-3.149l.607-.901.231 1.457c.268 1.692.499 2.248 1.185 2.852.807.709 1.88.914 3.023.576.72-.214 1.581-1.031 1.841-1.749.213-.588 6.792-42.783 6.87-44.06.138-2.271-.864-4.681-2.627-6.312-.711-.658-1.296-1.037-2.303-1.491l-.642-.289.023-.687c.029-.894.38-2.632.788-3.908.293-.913 1.239-2.975 1.967-4.286.225-.404.255-.541.16-.719-.145-.271-.593-.396-.801-.224-.222.185-1.049 1.625-1.498 2.61-.843 1.852-1.755 5.094-1.76 6.259-.003.623-.053.644-1.314.562l-1.138-.073V4.968c0-3.895-.022-4.525-.166-4.731-.206-.294-.514-.303-.794-.024-.207.207-.213.356-.213 4.747v4.533l-.454.001c-.249.001-.774.031-1.165.068l-.713.067-.053-.361c-.233-1.572-.337-2.11-.615-3.175-.393-1.503-.902-2.819-1.664-4.298C48.113.3 47.816-.057 47.429.04c-.513.129-.526.455-.051 1.293 1.454 2.569 2.377 5.331 2.606 7.797l.07.753-.831.395c-1.583.752-2.803 1.821-3.637 3.188-.801 1.313-1.307 3.342-1.178 4.724.034.369.832 5.61 1.774 11.645.941 6.036 1.711 11.02 1.711 11.076 0 .058-.522.111-1.2.123-1.553.027-2.951.375-4.396 1.094-.584.291-1.082.51-1.105.486-.104-.104.253-1.251.648-2.081.579-1.218 1.596-2.253 2.768-2.815.814-.391 1.01-.608.873-.965-.177-.461-.858-.363-1.891.273-1.739 1.069-2.853 2.656-3.408 4.852l-.245.967-.955-.514c-1.676-.903-3.177-1.296-4.955-1.299-1.308-.002-1.999.14-3.076.632-1.081.494-2.181 1.593-2.723 2.722-1.231 2.567-1.217 6.044.042 10.137.174.567.317 1.059.317 1.094 0 .035-6.144.063-13.654.063H1.28V8.32h34.88v11.102c0 6.106-.036 11.084-.08 11.062-2.482-1.26-2.7-1.31-2.964-.677-.498 1.191-.739 4.074-.466 5.56.514 2.798 2.478 4.799 5.48 5.585 1.153.302 1.402.291 1.588-.072.527-1.026.704-3.656.344-5.093-.33-1.313-1.021-2.589-1.925-3.549l-.804-.854V18.376c0-12.605-.006-13.034-.21-13.832-.292-1.139-.783-2.005-1.594-2.808C34.737.951 33.513.299 32.487.114 31.466-.07 5.584-.026 4.723.161m28.676 1.411c1.864.917 2.761 2.42 2.761 4.624v1.057H1.258l.039-1.306c.035-1.208.064-1.362.381-2.033A5.086 5.086 0 0 1 4.64 1.322c.338-.108 3.289-.132 14.242-.116l13.816.021.701.345m24.048 9.289c2.529.667 4.527 2.679 5.109 5.148.343 1.459.36 1.331-3.148 23.878-1.822 11.708-3.36 21.467-3.418 21.687-.351 1.333-2.183 1.752-3.203.732-.47-.471-.529-.674-.903-3.131l-.288-1.892.446-1.133c1.615-4.102 1.963-8.436.894-11.137-.622-1.569-1.573-2.63-2.986-3.33-.486-.241-.883-.478-.883-.526 0-.049-.797-5.189-1.771-11.423-1.676-10.73-1.768-11.394-1.716-12.454.087-1.762.677-3.135 1.903-4.426.76-.799 1.505-1.304 2.546-1.725.989-.399 1.342-.438 4.112-.451 2.17-.01 2.681.019 3.306.183m-34.83 3.959c-.071.133-.11 1.835-.11 4.794v4.587l.237.166c.205.144.835.166 4.723.166 3.999 0 4.513-.019 4.737-.176.243-.17.25-.213.193-1.2-.122-2.123-1.098-4.245-2.684-5.83-1.651-1.652-4.057-2.711-6.163-2.713-.704-.001-.838.029-.933.206m2.592 1.141c2.009.504 4.013 2.036 5.005 3.826.489.883.889 1.969.985 2.673.04.29.095.611.124.713.048.176-.183.187-3.796.187H23.68v-7.699l.453.072c.25.039.734.142 1.076.228m-9.679-.003c-5.283.954-9.537 5.203-10.585 10.573-.241 1.238-.244 3.502-.004 4.727C6 36.68 10.029 40.724 15.52 41.875c1.165.245 3.645.244 4.8-.002 5.43-1.155 9.433-5.11 10.499-10.374.268-1.323.327-2.709.126-2.951-.131-.158-.731-.175-6.318-.175h-6.174v-6.165c0-4.653-.031-6.197-.128-6.293-.173-.174-1.725-.15-2.795.043m1.857 7.061c0 4.653.031 6.196.128 6.293.096.097 1.64.128 6.293.128 5.801 0 6.165.011 6.165.187-.001.427-.33 2.169-.534 2.831-.602 1.948-1.721 3.722-3.286 5.207-1.57 1.492-3.248 2.412-5.456 2.994-1.049.276-3.287.376-4.495.2-5.164-.753-9.347-4.852-10.178-9.973-.398-2.453.013-5.215 1.095-7.366 1.139-2.264 3.247-4.345 5.512-5.442 1.347-.652 3.201-1.156 4.462-1.212l.294-.013v6.166m31.573-.758c-.203.072-.427.351-.427.533 0 .077.096.235.214.353.2.2.355.213 2.589.213 2.584 0 2.851-.055 2.851-.587 0-.53-.272-.587-2.771-.578-1.263.005-2.368.034-2.456.066m-14.096 8.833c2.143 1.131 3.559 2.803 4.072 4.81.242.946.278 2.375.085 3.421l-.126.684-.328-.07c-1.267-.268-2.849-1.169-3.565-2.031-.839-1.007-1.39-2.687-1.398-4.255-.003-.647.262-2.652.374-2.834.088-.142.106-.137.886.275m17.766 2.239c-.162.247-.162.287 0 .534l.175.266h2.536c1.831 0 2.572-.035 2.664-.128.203-.202.156-.703-.078-.828-.125-.067-1.174-.11-2.664-.11h-2.458l-.175.266m-16.043 9.173c1.114.359 1.955.775 2.94 1.454.415.286.823.519.907.518.084-.001.575-.286 1.091-.632 1.64-1.101 3.074-1.589 4.943-1.682 2.544-.127 4.219.772 5.2 2.791.578 1.19.742 2.02.749 3.792.018 4.309-1.851 9.261-4.648 12.313-.775.846-1.385 1.284-2.162 1.551-1.262.434-2.553.371-4.269-.209l-.895-.303-.868.3c-2.611.904-4.746.531-6.249-1.092-2.671-2.885-4.437-7.022-4.843-11.346-.379-4.043 1.13-6.957 3.979-7.683.361-.092 1.012-.127 1.885-.102 1.09.031 1.498.092 2.24.33m-6.98 15.334c.817 1.618 1.769 3.001 2.903 4.213l.523.56-.383.131c-.294.101-3.479.139-13.636.163-14.627.034-14 .06-15.302-.634-.794-.423-1.624-1.322-2.048-2.22-.297-.627-.332-.813-.367-1.946l-.039-1.254h27.851l.498.987" fill="currentColor" fill-rule="evenodd"/></svg>