<svg xmlns="http://www.w3.org/2000/svg" viewBox="0 0 18 18"><path d="M9.765.043a.547.547 0 0 0-.315.474c0 .14.11.342.225.413.055.034.282.101.503.148a8.694 8.694 0 0 1 5.978 4.579c.339.661.589 1.382.752 2.169.09.433.149.551.319.637.3.153.659.001.739-.313.035-.138-.001-.371-.147-.95-.62-2.476-2.205-4.602-4.435-5.953a9.576 9.576 0 0 0-2.997-1.17c-.416-.087-.495-.091-.622-.034m-6.73 1.051c-.089.021-.264.09-.39.153-.208.104-.308.193-1.065.942-.46.454-.896.904-.97.999-.873 1.125-.795 2.758.243 5.137 1.016 2.327 3.05 4.893 5.26 6.638 1.741 1.374 3.944 2.517 5.527 2.868 1.286.286 2.19.197 2.931-.287.175-.114.442-.364 1.059-.991.458-.465.886-.927.962-1.039.205-.302.283-.574.282-.979 0-.382-.071-.628-.27-.933-.17-.261-2.46-2.556-2.734-2.741a1.449 1.449 0 0 0-.94-.283c-.261.002-.35.015-.517.078-.383.144-.52.251-1.262.984l-.715.705-.29-.15c-1.548-.797-3.656-2.921-4.408-4.44l-.111-.224.693-.698c.913-.92 1.047-1.132 1.082-1.722.019-.334-.018-.511-.177-.846-.115-.241-.156-.288-1.211-1.365-1.216-1.241-1.498-1.503-1.787-1.655a1.788 1.788 0 0 0-1.192-.151m.714 1.056c.128.064.402.322 1.319 1.245C6.313 4.649 6.39 4.743 6.39 5.014c0 .283-.064.367-.932 1.229-.552.548-.819.835-.853.915-.071.168-.062.417.024.645.233.617.729 1.394 1.42 2.219 1.155 1.382 2.5 2.508 3.768 3.158.507.259.629.289.883.215.169-.049.204-.08.985-.854.83-.824.946-.916 1.197-.95.272-.037.337.015 1.638 1.319 1.27 1.273 1.35 1.371 1.35 1.636-.001.277-.088.396-.903 1.228-.415.424-.837.829-.937.899-.473.333-1.154.388-2.123.172-1.584-.353-3.798-1.542-5.472-2.939-2.044-1.706-3.78-3.982-4.721-6.187-.494-1.159-.69-1.998-.657-2.812.017-.435.1-.705.306-1.006.074-.109.466-.527.879-.937.595-.592.777-.756.909-.817.217-.101.39-.1.598.003m5.865 1.16a.574.574 0 0 0-.3.391c-.043.288.142.526.456.588 1.301.258 2.352.93 3.109 1.988.417.584.664 1.182.848 2.056.008.038.061.12.119.184a.495.495 0 0 0 .842-.166c.047-.123.049-.162.014-.367a6.657 6.657 0 0 0-.379-1.234c-.466-1.107-1.36-2.116-2.442-2.754-.779-.46-1.971-.821-2.267-.686" fill="currentColor" fill-rule="evenodd"/></svg>