<svg xmlns="http://www.w3.org/2000/svg" viewBox="0 0 64 64"><g fill="none" class="nc-icon-wrapper"><path d="M32.1963 0C28.1401 0 24.8403 3.29987 24.8403 7.356C24.8403 11.4121 28.1401 14.712 32.1963 14.712C36.2524 14.712 39.5523 11.4121 39.5523 7.356C39.5523 3.29987 36.2524 0 32.1963 0ZM32.1963 13.5957C28.7558 13.5957 25.9565 10.7966 25.9565 7.356C25.9565 3.91537 28.7556 1.11625 32.1963 1.11625C35.6368 1.11625 38.436 3.91537 38.436 7.35588C38.436 10.7964 35.6368 13.5957 32.1963 13.5957ZM61.2441 56.8125H43.1473L60.3943 47.8761C61.2076 47.4506 61.7131 46.6195 61.7131 45.7071C61.7131 45.3453 61.6309 44.9901 61.4688 44.6512C61.1821 44.052 60.6766 43.6056 60.0458 43.3942C59.4135 43.1824 58.7399 43.2345 58.1444 43.543L57.555 43.856C55.9616 41.7377 53.1405 40.8803 50.6303 41.7508L45.794 31.91C44.9065 30.1031 42.7046 29.3506 40.8841 30.2339L37.394 31.9431C37.4598 27.9941 37.9285 23.7155 38.0903 22.2391C38.0918 22.2259 38.0931 22.2129 38.0946 22.2003H53.8191C55.4278 22.2003 56.7366 20.8915 56.7366 19.2826C56.7366 17.6718 55.4278 16.3612 53.8191 16.3612H9.833C8.22438 16.3612 6.9155 17.6718 6.9155 19.2826C6.9155 20.8914 8.22438 22.2003 9.833 22.2003H25.2423L25.7875 38.5504L19.9976 45.1799H6.71125C6.403 45.1799 6.15313 45.4297 6.15313 45.738V47.7166C5.73475 47.4338 5.244 47.2809 4.73163 47.2809C3.3345 47.2809 2.19775 48.4209 2.19775 49.8223V57.3704V63.4416C2.19775 63.7499 2.4475 63.9997 2.75588 63.9997H61.2443C61.5525 63.9997 61.8024 63.7499 61.8024 63.4416V57.3704C61.8023 57.0624 61.5525 56.8125 61.2441 56.8125ZM58.6621 44.5321C58.9826 44.3661 59.3478 44.3379 59.6911 44.4529C60.0329 44.5674 60.3066 44.809 60.4619 45.1334C60.5515 45.3205 60.5969 45.5135 60.5969 45.7072C60.5969 46.2027 60.3211 46.6547 59.8789 46.8861L40.721 56.8125H35.5401L47.3705 50.528C47.3729 50.5269 47.3753 50.5265 47.3776 50.5254C47.3821 50.5233 47.3856 50.5199 47.39 50.5176L57.6394 45.073L58.6621 44.5321ZM10.252 56.8125C11.6346 55.8433 12.6003 54.3211 12.8214 52.5482L20.981 52.5626C22.2744 52.5581 23.4818 52.0713 24.4023 51.1666L37.1343 40.2254L40.8206 38.422L46.3926 49.7848L33.1608 56.8125H10.252ZM7.26938 46.2964H20.2513C20.4124 46.2964 20.5656 46.2267 20.6716 46.1054L26.7731 39.119C26.8661 39.0125 26.9153 38.8746 26.9105 38.7332L26.3399 21.6236C26.3299 21.3228 26.0831 21.0841 25.7821 21.0841H9.833C8.83975 21.0841 8.03175 20.276 8.03175 19.2827C8.03175 18.2874 8.83975 17.4776 9.833 17.4776H53.8194C54.8126 17.4776 55.6206 18.2874 55.6206 19.2827C55.6206 20.276 54.8126 21.0841 53.8194 21.0841H37.5906C37.4373 21.0841 37.2906 21.1472 37.1853 21.2586C37.0898 21.3595 37.0358 21.492 37.0326 21.6299C37.0281 21.6898 37.0093 21.8585 36.9809 22.1178C36.8051 23.722 36.2704 28.6039 36.2704 32.8419C36.2704 33.0345 36.3698 33.2135 36.5331 33.3154C36.6969 33.4174 36.9014 33.4279 37.074 33.3431L41.3735 31.2374C42.6411 30.6224 44.1745 31.1451 44.7924 32.4024L49.8559 42.7057C49.9885 42.9756 50.3103 43.0919 50.5855 42.9688C52.6793 42.0283 55.1389 42.6468 56.5508 44.3896L47.379 49.2609L41.5773 37.4299C41.4419 37.1532 41.107 37.0389 40.8309 37.1743L36.5793 39.2541C36.5365 39.275 36.4968 39.3013 36.4608 39.3322L23.6601 50.3325C23.6501 50.3411 23.6405 50.35 23.6311 50.3594C22.92 51.0639 21.9745 51.446 20.9836 51.4465L12.3083 51.4313C12.3079 51.4313 12.3078 51.4313 12.3074 51.4313C12.0076 51.4313 11.7613 51.6682 11.7496 51.968C11.6526 54.4963 9.72913 56.5148 7.2695 56.7825L7.26938 46.2964ZM4.73163 48.3974C5.10988 48.3974 5.46875 48.5462 5.73563 48.8101C6.00475 49.085 6.153 49.4445 6.153 49.8224V56.8124H3.314V49.8224C3.314 49.0368 3.94988 48.3974 4.73163 48.3974ZM60.686 62.8838H3.314V57.9289H6.69588C6.701 57.929 6.70588 57.9304 6.71113 57.9304C6.71638 57.9304 6.72125 57.929 6.72638 57.9289H40.8423C40.8464 57.929 40.8504 57.9305 40.8546 57.9305C40.8594 57.9305 40.8641 57.9289 40.8688 57.9289H60.6861V62.8838H60.686Z" fill="currentColor"></path></g></svg>