<svg xmlns="http://www.w3.org/2000/svg" viewBox="0 0 46 46"><g fill="none" class="nc-icon-wrapper"><path d="M41.538 27.278C40.526 26.312 39.376 25.714 38.272 25.53C36.616 25.254 35.788 25.668 35.144 26.036C34.914 26.174 34.684 26.266 34.408 26.358C34.5 24.886 34.96 24.426 35.742 24.15C36.11 24.012 36.294 23.644 36.156 23.276C36.018 22.908 35.65 22.724 35.282 22.862C33.488 23.506 33.12 24.932 33.028 26.358C32.752 26.266 32.522 26.174 32.292 26.036C31.924 25.852 31.51 25.622 30.912 25.53V8.78601C30.912 7.03801 29.394 5.61201 27.554 5.61201H24.058C23.736 4.23201 22.494 3.17401 21.022 3.17401H12.19C10.718 3.17401 9.47605 4.23201 9.15405 5.61201H5.65805C3.81805 5.61201 2.30005 7.03801 2.30005 8.78601V39.652C2.30005 41.4 3.81805 42.826 5.65805 42.826H27.6C28.29 42.826 28.98 42.596 29.532 42.228C30.314 42.596 31.096 42.826 31.878 42.826C32.522 42.826 33.166 42.688 33.764 42.412C36.11 43.562 39.008 42.412 41.262 39.376C43.976 35.742 44.942 30.452 41.538 27.278ZM10.488 6.30201C10.488 5.33601 11.27 4.55401 12.236 4.55401H21.114C22.08 4.55401 22.862 5.33601 22.862 6.30201V7.95801C22.862 8.00401 22.816 8.05001 22.77 8.05001H10.534C10.488 8.05001 10.442 8.00401 10.442 7.95801V6.30201H10.488ZM27.6 41.446H5.65805C4.55405 41.446 3.68005 40.618 3.68005 39.652V8.78601C3.68005 7.77401 4.55405 6.99201 5.65805 6.99201H9.06205V7.95801C9.06205 8.78601 9.70605 9.43001 10.534 9.43001H22.724C23.506 9.43001 24.196 8.78601 24.196 7.95801V6.99201H27.6C28.704 6.99201 29.578 7.82001 29.578 8.78601V25.484C29.44 25.484 29.348 25.53 29.21 25.53C28.106 25.714 27.002 26.312 25.944 27.278C24.426 28.658 23.782 30.498 23.782 32.384H14.95C14.582 32.384 14.26 32.706 14.26 33.074C14.26 33.442 14.582 33.764 14.95 33.764H23.92C24.196 35.742 25.07 37.72 26.312 39.33C26.91 40.112 27.554 40.802 28.198 41.308C27.968 41.4 27.784 41.446 27.6 41.446ZM40.158 38.548C38.686 40.48 36.248 42.274 34.132 41.032C33.902 40.894 33.626 40.894 33.442 41.032C31.326 42.32 28.888 40.48 27.416 38.548C25.116 35.512 24.196 30.866 26.956 28.29C27.784 27.508 28.658 27.048 29.486 26.91C29.808 26.864 30.038 26.818 30.268 26.818C30.912 26.818 31.28 27.002 31.74 27.232C32.108 27.416 32.522 27.646 33.12 27.784V29.854C32.476 29.762 31.924 29.578 31.188 29.164C30.866 28.98 30.452 29.118 30.268 29.44C30.084 29.762 30.222 30.176 30.544 30.36C31.694 31.004 32.66 31.234 33.81 31.234C34.96 31.234 35.88 30.958 37.076 30.36C37.398 30.176 37.536 29.762 37.352 29.44C37.168 29.118 36.754 28.98 36.432 29.164C35.696 29.532 35.144 29.762 34.5 29.854V27.784C35.098 27.692 35.512 27.462 35.88 27.232C36.478 26.91 36.938 26.68 38.134 26.864C38.962 27.002 39.836 27.508 40.664 28.244C43.378 30.866 42.412 35.512 40.158 38.548Z" fill="currentColor"></path><path d="M10.6259 13.984L8.37193 16.652L7.45193 15.87C7.17593 15.64 6.71593 15.64 6.48593 15.962C6.25593 16.238 6.25593 16.698 6.57793 16.928L8.00393 18.124C8.14193 18.216 8.27993 18.308 8.46393 18.308H8.50993C8.69393 18.308 8.87793 18.216 8.96993 18.078L11.6839 14.858C11.9139 14.582 11.8679 14.122 11.5919 13.892C11.3159 13.662 10.9019 13.662 10.6259 13.984Z" fill="currentColor"></path><path d="M10.6259 23.368L8.37193 26.036L7.45193 25.254C7.17593 25.024 6.71593 25.024 6.48593 25.346C6.25593 25.622 6.25593 26.082 6.57793 26.312L8.00393 27.508C8.14193 27.6 8.27993 27.692 8.46393 27.692H8.50993C8.69393 27.692 8.87793 27.6 8.96993 27.462L11.6839 24.242C11.9139 23.966 11.8679 23.506 11.5919 23.276C11.3159 23.046 10.9019 23.092 10.6259 23.368Z" fill="currentColor"></path><path d="M10.6259 32.752L8.37193 35.42L7.45193 34.638C7.17593 34.408 6.71593 34.408 6.48593 34.73C6.25593 35.006 6.25593 35.466 6.57793 35.696L8.00393 36.892C8.14193 36.984 8.27993 37.076 8.46393 37.076H8.50993C8.69393 37.076 8.87793 36.984 8.96993 36.846L11.6839 33.626C11.9139 33.35 11.8679 32.89 11.5919 32.66C11.3159 32.43 10.9019 32.476 10.6259 32.752Z" fill="currentColor"></path><path d="M14.95 24.426H26.22C26.588 24.426 26.91 24.104 26.91 23.736C26.91 23.368 26.588 23.046 26.22 23.046H14.95C14.582 23.046 14.26 23.368 14.26 23.736C14.26 24.104 14.582 24.426 14.95 24.426Z" fill="currentColor"></path><path d="M14.95 27.83H19.366C19.734 27.83 20.056 27.508 20.056 27.14C20.056 26.772 19.734 26.45 19.366 26.45H14.95C14.582 26.45 14.26 26.772 14.26 27.14C14.26 27.508 14.582 27.83 14.95 27.83Z" fill="currentColor"></path><path d="M14.95 14.996H26.22C26.588 14.996 26.91 14.674 26.91 14.306C26.91 13.938 26.588 13.616 26.22 13.616H14.95C14.582 13.616 14.26 13.938 14.26 14.306C14.26 14.674 14.582 14.996 14.95 14.996Z" fill="currentColor"></path><path d="M14.95 18.446H19.366C19.734 18.446 20.056 18.124 20.056 17.756C20.056 17.388 19.734 17.066 19.366 17.066H14.95C14.582 17.066 14.26 17.388 14.26 17.756C14.26 18.124 14.582 18.446 14.95 18.446Z" fill="currentColor"></path><path d="M19.366 35.834H14.95C14.582 35.834 14.26 36.156 14.26 36.524C14.26 36.892 14.582 37.214 14.95 37.214H19.366C19.734 37.214 20.056 36.892 20.056 36.524C20.056 36.156 19.78 35.834 19.366 35.834Z" fill="currentColor"></path></g></svg>