<svg xmlns="http://www.w3.org/2000/svg" viewBox="0 0 46 40"><g fill="none" class="nc-icon-wrapper"><path d="M27.3212 24.3357C27.3212 20.4196 27.9717 16.7832 29.2727 13.4266C30.5737 10.0699 32.1071 7.50583 33.8727 5.73427C35.6384 3.86947 37.2646 2.47087 38.7515 1.53847C40.3313 0.512826 41.5394 3.63149e-06 42.3758 3.70461e-06C42.8404 3.74523e-06 43.2586 0.233106 43.6303 0.699312C44.002 1.07227 44.1879 1.39861 44.1879 1.67833C44.1879 2.23777 43.7697 2.89045 42.9333 3.63637C42.097 4.28905 41.2141 4.98835 40.2848 5.73427C39.3556 6.48019 38.4727 7.73893 37.6364 9.5105C36.8 11.2821 36.3818 13.38 36.3818 15.8042C36.3818 18.3217 36.8929 20.4662 37.9151 22.2378C38.9374 23.9161 40.0061 25.0816 41.1212 25.7343C42.3293 26.387 43.4444 27.1795 44.4667 28.1119C45.4889 28.9511 46 29.9301 46 31.049C46 31.6084 44.7454 33.1469 42.2364 35.6643C42.0505 35.8508 41.5394 36.4569 40.703 37.4825C39.9596 38.4149 39.2626 39.0676 38.6121 39.4406C38.0545 39.8135 37.404 40 36.6606 40C36.3818 40 35.9172 39.8601 35.2667 39.5804C34.6162 39.2075 33.8263 38.6014 32.897 37.7622C31.9677 36.9231 31.0848 35.9441 30.2485 34.8252C29.4121 33.7063 28.7151 32.2145 28.1576 30.3497C27.6 28.4849 27.3212 26.4802 27.3212 24.3357ZM-2.12749e-06 24.3357C-1.78514e-06 20.4196 0.650503 16.7832 1.95151 13.4266C3.25252 10.0699 4.78586 7.50583 6.55151 5.73427C8.4101 3.86947 10.0828 2.47087 11.5697 1.53847C13.1495 0.512824 14.3576 1.25518e-06 15.1939 1.3283e-06C15.6586 1.36892e-06 16.0768 0.233104 16.4485 0.699309C16.8202 1.07226 17.0061 1.3986 17.0061 1.67833C17.0061 2.23776 16.5879 2.89045 15.7515 3.63637C15.0081 4.28905 14.1252 4.98835 13.103 5.73427C12.0808 6.48019 11.1515 7.73893 10.3151 9.51049C9.57171 11.2821 9.2 13.38 9.2 15.8042C9.2 18.3217 9.71111 20.4662 10.7333 22.2378C11.7556 23.9161 12.8242 25.0816 13.9394 25.7343C15.1475 26.3869 16.2626 27.1795 17.2848 28.1119C18.3071 28.9511 18.8182 29.9301 18.8182 31.049C18.8182 31.6084 17.5636 33.1469 15.0545 35.6643C14.8687 35.8508 14.3576 36.4569 13.5212 37.4825C12.7778 38.4149 12.0808 39.0676 11.4303 39.4406C10.8727 39.8135 10.2222 40 9.47878 40C8.82828 40 7.80606 39.5338 6.41212 38.6014C5.11111 37.669 3.71717 35.9441 2.2303 33.4266C0.743431 30.8159 -2.42909e-06 27.7855 -2.12749e-06 24.3357Z" fill="currentColor"></path></g></svg>