<svg xmlns="http://www.w3.org/2000/svg" viewBox="0 0 60 52"><g fill="none" class="nc-icon-wrapper"><path d="M24.72 20.16C24.72 25.2 23.88 29.88 22.2 34.2C20.52 38.52 18.54 41.82 16.26 44.1C13.98 46.5 11.88 48.3 9.96 49.5C7.92 50.82 6.36 51.48 5.28 51.48C4.68 51.48 4.13999 51.18 3.66 50.58C3.18 50.1 2.93999 49.68 2.94 49.32C2.94 48.6 3.48 47.76 4.56 46.8C5.64 45.96 6.78 45.06 7.98 44.1C9.18 43.14 10.32 41.52 11.4 39.24C12.48 36.96 13.02 34.26 13.02 31.14C13.02 27.9 12.36 25.14 11.04 22.86C9.72 20.7 8.34 19.2 6.9 18.36C5.34 17.52 3.9 16.5 2.58 15.3C1.26 14.22 0.599994 12.96 0.599994 11.52C0.599994 10.8 2.22 8.81997 5.46 5.57997C5.7 5.33997 6.36 4.55997 7.44 3.23997C8.4 2.03997 9.3 1.19997 10.14 0.71997C10.86 0.239969 11.7 -3.09254e-05 12.66 -3.08415e-05C13.02 -3.081e-05 13.62 0.179967 14.46 0.539966C15.3 1.01997 16.32 1.79997 17.52 2.87997C18.72 3.95997 19.86 5.21997 20.94 6.65997C22.02 8.09997 22.92 10.02 23.64 12.42C24.36 14.82 24.72 17.4 24.72 20.16ZM60 20.16C60 25.2 59.16 29.88 57.48 34.2C55.8 38.52 53.82 41.82 51.54 44.1C49.14 46.5 46.98 48.3 45.06 49.5C43.02 50.82 41.46 51.48 40.38 51.48C39.78 51.48 39.24 51.18 38.76 50.58C38.28 50.1 38.04 49.68 38.04 49.32C38.04 48.6 38.58 47.76 39.66 46.8C40.62 45.96 41.76 45.06 43.08 44.1C44.4 43.14 45.6 41.52 46.68 39.24C47.64 36.96 48.12 34.26 48.12 31.14C48.12 27.9 47.46 25.14 46.14 22.86C44.82 20.7 43.44 19.2 42 18.36C40.44 17.52 39 16.5 37.68 15.3C36.36 14.22 35.7 12.96 35.7 11.52C35.7 10.8 37.32 8.81997 40.56 5.57997C40.8 5.33997 41.46 4.55997 42.54 3.23997C43.5 2.03997 44.4 1.19997 45.24 0.719973C45.96 0.239972 46.8 -2.78569e-05 47.76 -2.77729e-05C48.6 -2.76995e-05 49.92 0.599969 51.72 1.79997C53.4 2.99997 55.2 5.21997 57.12 8.45998C59.04 11.82 60 15.72 60 20.16Z" fill="currentColor"></path></g></svg>