<svg xmlns="http://www.w3.org/2000/svg" viewBox="0 0 46 46"><g fill="none" class="nc-icon-wrapper"><path d="M17.9688 39.5312H6.46875C5.89707 39.5306 5.34898 39.3032 4.94474 38.899C4.5405 38.4948 4.31312 37.9467 4.3125 37.375V9.34374C4.31312 8.77206 4.5405 8.22397 4.94474 7.81973C5.34898 7.41549 5.89707 7.18812 6.46875 7.18749H9.34375V8.62499C9.34437 9.19667 9.57175 9.74476 9.97599 10.149C10.3802 10.5532 10.9283 10.7806 11.5 10.7812H23C23.5717 10.7806 24.1198 10.5532 24.524 10.149C24.9282 9.74476 25.1556 9.19667 25.1562 8.62499V7.18749H28.0312C28.6029 7.18812 29.151 7.41549 29.5553 7.81973C29.9595 8.22397 30.1869 8.77206 30.1875 9.34374V19.4062C30.1875 19.5969 30.2632 19.7797 30.398 19.9145C30.5328 20.0493 30.7156 20.125 30.9062 20.125C31.0969 20.125 31.2797 20.0493 31.4145 19.9145C31.5493 19.7797 31.625 19.5969 31.625 19.4062V9.34374C31.6239 8.39096 31.2449 7.47753 30.5712 6.80381C29.8975 6.1301 28.984 5.75111 28.0312 5.74999H25.0238C24.8761 5.33077 24.6023 4.96754 24.24 4.71015C23.8776 4.45277 23.4445 4.31386 23 4.31249H20.7715C20.6057 3.50087 20.1647 2.77141 19.523 2.24753C18.8813 1.72365 18.0784 1.4375 17.25 1.4375C16.4216 1.4375 15.6187 1.72365 14.977 2.24753C14.3353 2.77141 13.8943 3.50087 13.7285 4.31249H11.5C11.0555 4.31386 10.6224 4.45277 10.26 4.71015C9.89767 4.96754 9.62386 5.33077 9.47619 5.74999H6.46875C5.51597 5.75111 4.60254 6.1301 3.92882 6.80381C3.2551 7.47753 2.87612 8.39096 2.875 9.34374V37.375C2.87612 38.3278 3.2551 39.2412 3.92882 39.9149C4.60254 40.5886 5.51597 40.9676 6.46875 40.9687H17.9688C18.1594 40.9687 18.3422 40.893 18.477 40.7582C18.6118 40.6234 18.6875 40.4406 18.6875 40.25C18.6875 40.0594 18.6118 39.8765 18.477 39.7418C18.3422 39.607 18.1594 39.5312 17.9688 39.5312ZM10.7812 6.46874C10.7814 6.27816 10.8571 6.09541 10.9919 5.96065C11.1267 5.82589 11.3094 5.75012 11.5 5.74999H14.375C14.4694 5.75005 14.5629 5.73149 14.6501 5.69539C14.7373 5.65929 14.8166 5.60635 14.8834 5.5396C14.9501 5.47284 15.003 5.39359 15.0391 5.30636C15.0752 5.21913 15.0938 5.12565 15.0938 5.03124C15.0938 4.45937 15.3209 3.91092 15.7253 3.50654C16.1297 3.10217 16.6781 2.87499 17.25 2.87499C17.8219 2.87499 18.3703 3.10217 18.7747 3.50654C19.1791 3.91092 19.4062 4.45937 19.4062 5.03124C19.4062 5.12565 19.4248 5.21913 19.4609 5.30636C19.497 5.39359 19.5499 5.47284 19.6166 5.5396C19.6834 5.60635 19.7627 5.65929 19.8499 5.69539C19.9371 5.73149 20.0306 5.75005 20.125 5.74999H23C23.1906 5.75012 23.3733 5.82589 23.5081 5.96065C23.6429 6.09541 23.7186 6.27816 23.7188 6.46874V8.62499C23.7186 8.81558 23.6429 8.99832 23.5081 9.13308C23.3733 9.26785 23.1906 9.34361 23 9.34374H11.5C11.3094 9.34361 11.1267 9.26785 10.9919 9.13308C10.8571 8.99832 10.7814 8.81558 10.7812 8.62499V6.46874ZM12.9375 14.375C12.9376 14.2806 12.919 14.1871 12.8829 14.0999C12.8468 14.0126 12.7939 13.9334 12.7271 13.8666C12.6603 13.7999 12.5811 13.7469 12.4939 13.7108C12.4066 13.6747 12.3132 13.6562 12.2188 13.6562H7.90625C7.81185 13.6562 7.71836 13.6747 7.63113 13.7108C7.54391 13.7469 7.46465 13.7999 7.3979 13.8666C7.33114 13.9334 7.2782 14.0126 7.2421 14.0999C7.206 14.1871 7.18745 14.2806 7.1875 14.375V18.6875C7.18745 18.7819 7.206 18.8754 7.2421 18.9626C7.2782 19.0498 7.33114 19.1291 7.3979 19.1958C7.46465 19.2626 7.54391 19.3155 7.63113 19.3516C7.71836 19.3877 7.81185 19.4063 7.90625 19.4062H12.2188C12.3132 19.4063 12.4066 19.3877 12.4939 19.3516C12.5811 19.3155 12.6603 19.2626 12.7271 19.1958C12.7939 19.1291 12.8468 19.0498 12.8829 18.9626C12.919 18.8754 12.9376 18.7819 12.9375 18.6875V14.375ZM11.5 17.9687H8.625V15.0937H11.5V17.9687ZM12.9375 23C12.9376 22.9056 12.919 22.8121 12.8829 22.7249C12.8468 22.6376 12.7939 22.5584 12.7271 22.4916C12.6603 22.4249 12.5811 22.3719 12.4939 22.3358C12.4066 22.2997 12.3132 22.2812 12.2188 22.2812H7.90625C7.81185 22.2812 7.71836 22.2997 7.63113 22.3358C7.54391 22.3719 7.46465 22.4249 7.3979 22.4916C7.33114 22.5584 7.2782 22.6376 7.2421 22.7249C7.206 22.8121 7.18745 22.9056 7.1875 23V27.3125C7.18745 27.4069 7.206 27.5004 7.2421 27.5876C7.2782 27.6748 7.33114 27.7541 7.3979 27.8208C7.46465 27.8876 7.54391 27.9405 7.63113 27.9766C7.71836 28.0127 7.81185 28.0313 7.90625 28.0312H12.2188C12.3132 28.0313 12.4066 28.0127 12.4939 27.9766C12.5811 27.9405 12.6603 27.8876 12.7271 27.8208C12.7939 27.7541 12.8468 27.6748 12.8829 27.5876C12.919 27.5004 12.9376 27.4069 12.9375 27.3125V23ZM11.5 26.5937H8.625V23.7187H11.5V26.5937ZM12.2188 30.9062H7.90625C7.81185 30.9062 7.71836 30.9247 7.63113 30.9608C7.54391 30.9969 7.46465 31.0499 7.3979 31.1166C7.33114 31.1834 7.2782 31.2626 7.2421 31.3499C7.206 31.4371 7.18745 31.5306 7.1875 31.625V35.9375C7.18745 36.0319 7.206 36.1254 7.2421 36.2126C7.2782 36.2998 7.33114 36.3791 7.3979 36.4458C7.46465 36.5126 7.54391 36.5655 7.63113 36.6016C7.71836 36.6377 7.81185 36.6563 7.90625 36.6562H12.2188C12.3132 36.6563 12.4066 36.6377 12.4939 36.6016C12.5811 36.5655 12.6603 36.5126 12.7271 36.4458C12.7939 36.3791 12.8468 36.2998 12.8829 36.2126C12.919 36.1254 12.9376 36.0319 12.9375 35.9375V31.625C12.9376 31.5306 12.919 31.4371 12.8829 31.3499C12.8468 31.2626 12.7939 31.1834 12.7271 31.1166C12.6603 31.0499 12.5811 30.9969 12.4939 30.9608C12.4066 30.9247 12.3132 30.9062 12.2188 30.9062ZM11.5 35.2187H8.625V32.3437H11.5V35.2187ZM27.3125 14.375C27.3126 14.4694 27.294 14.5629 27.2579 14.6501C27.2218 14.7373 27.1689 14.8166 27.1021 14.8833C27.0354 14.9501 26.9561 15.003 26.8689 15.0391C26.7816 15.0752 26.6882 15.0938 26.5938 15.0937H15.8125C15.6219 15.0937 15.4391 15.018 15.3043 14.8832C15.1695 14.7484 15.0938 14.5656 15.0938 14.375C15.0938 14.1844 15.1695 14.0015 15.3043 13.8668C15.4391 13.732 15.6219 13.6562 15.8125 13.6562H26.5938C26.6882 13.6562 26.7816 13.6747 26.8689 13.7108C26.9561 13.7469 27.0354 13.7999 27.1021 13.8666C27.1689 13.9334 27.2218 14.0126 27.2579 14.0999C27.294 14.1871 27.3126 14.2806 27.3125 14.375ZM15.0938 18.6875C15.0937 18.5931 15.1123 18.4996 15.1484 18.4124C15.1845 18.3251 15.2374 18.2459 15.3041 18.1791C15.3709 18.1124 15.4502 18.0594 15.5374 18.0233C15.6246 17.9872 15.7181 17.9687 15.8125 17.9687H22.2812C22.4719 17.9687 22.6547 18.0445 22.7895 18.1793C22.9243 18.314 23 18.4969 23 18.6875C23 18.8781 22.9243 19.0609 22.7895 19.1957C22.6547 19.3305 22.4719 19.4062 22.2812 19.4062H15.8125C15.7181 19.4063 15.6246 19.3877 15.5374 19.3516C15.4502 19.3155 15.3709 19.2626 15.3041 19.1958C15.2374 19.1291 15.1845 19.0498 15.1484 18.9626C15.1123 18.8754 15.0937 18.7819 15.0938 18.6875ZM26.5938 23.7187H15.8125C15.6219 23.7187 15.4391 23.643 15.3043 23.5082C15.1695 23.3734 15.0938 23.1906 15.0938 23C15.0938 22.8094 15.1695 22.6265 15.3043 22.4918C15.4391 22.357 15.6219 22.2812 15.8125 22.2812H26.5938C26.7844 22.2812 26.9672 22.357 27.102 22.4918C27.2368 22.6265 27.3125 22.8094 27.3125 23C27.3125 23.1906 27.2368 23.3734 27.102 23.5082C26.9672 23.643 26.7844 23.7187 26.5938 23.7187ZM22.2812 26.5937C22.4719 26.5937 22.6547 26.6695 22.7895 26.8043C22.9243 26.939 23 27.1219 23 27.3125C23 27.5031 22.9243 27.6859 22.7895 27.8207C22.6547 27.9555 22.4719 28.0312 22.2812 28.0312H15.8125C15.6219 28.0312 15.4391 27.9555 15.3043 27.8207C15.1695 27.6859 15.0938 27.5031 15.0938 27.3125C15.0938 27.1219 15.1695 26.939 15.3043 26.8043C15.4391 26.6695 15.6219 26.5937 15.8125 26.5937H22.2812ZM18.6875 31.625C18.6876 31.7194 18.669 31.8129 18.6329 31.9001C18.5968 31.9873 18.5439 32.0666 18.4771 32.1333C18.4103 32.2001 18.3311 32.253 18.2439 32.2891C18.1566 32.3252 18.0632 32.3438 17.9688 32.3437H15.8125C15.6219 32.3437 15.4391 32.268 15.3043 32.1332C15.1695 31.9984 15.0938 31.8156 15.0938 31.625C15.0938 31.4344 15.1695 31.2515 15.3043 31.1168C15.4391 30.982 15.6219 30.9062 15.8125 30.9062H17.9688C18.0632 30.9062 18.1566 30.9247 18.2439 30.9608C18.3311 30.9969 18.4103 31.0499 18.4771 31.1166C18.5439 31.1834 18.5968 31.2626 18.6329 31.3499C18.669 31.4371 18.6876 31.5306 18.6875 31.625ZM18.6875 35.9375C18.6876 36.0319 18.669 36.1254 18.6329 36.2126C18.5968 36.2998 18.5439 36.3791 18.4771 36.4458C18.4103 36.5126 18.3311 36.5655 18.2439 36.6016C18.1566 36.6377 18.0632 36.6563 17.9688 36.6562H15.8125C15.6219 36.6562 15.4391 36.5805 15.3043 36.4457C15.1695 36.3109 15.0938 36.1281 15.0938 35.9375C15.0938 35.7469 15.1695 35.564 15.3043 35.4293C15.4391 35.2945 15.6219 35.2187 15.8125 35.2187H17.9688C18.0632 35.2187 18.1566 35.2372 18.2439 35.2733C18.3311 35.3094 18.4103 35.3624 18.4771 35.4291C18.5439 35.4959 18.5968 35.5751 18.6329 35.6624C18.669 35.7496 18.6876 35.8431 18.6875 35.9375ZM41.9851 30.1875L42.4062 29.7663C42.6341 29.5385 42.8149 29.268 42.9382 28.9703C43.0615 28.6726 43.125 28.3535 43.125 28.0312C43.125 27.709 43.0615 27.3899 42.9382 27.0922C42.8149 26.7945 42.6341 26.524 42.4062 26.2961L41.9851 25.875L42.7039 25.1562C42.9732 24.8866 43.1245 24.521 43.1245 24.1399C43.1245 23.7588 42.9732 23.3932 42.7039 23.1235L41.564 21.9836C41.2941 21.7146 40.9286 21.5635 40.5476 21.5635C40.1666 21.5635 39.8011 21.7146 39.5312 21.9836L38.8125 22.7024L38.3914 22.2812C37.9238 21.8352 37.3024 21.5864 36.6562 21.5864C36.0101 21.5864 35.3887 21.8352 34.9211 22.2812L34.5 22.7024L34.0789 22.2812C33.6113 21.8352 32.9899 21.5864 32.3438 21.5864C31.6976 21.5864 31.0762 21.8352 30.6086 22.2812L30.1875 22.7024C29.9596 22.9302 29.7789 23.2007 29.6555 23.4985C29.5322 23.7962 29.4688 24.1152 29.4688 24.4375C29.4688 24.7597 29.5322 25.0788 29.6555 25.3765C29.7789 25.6742 29.9596 25.9447 30.1875 26.1726L32.7649 28.75L27.3125 34.2024L24.7351 31.625C24.2676 31.179 23.6462 30.9301 23 30.9301C22.3538 30.9301 21.7324 31.179 21.2649 31.625L20.8438 32.0461C20.6159 32.274 20.4351 32.5445 20.3118 32.8422C20.1885 33.1399 20.125 33.459 20.125 33.7812C20.125 34.1035 20.1885 34.4226 20.3118 34.7203C20.4351 35.018 20.6159 35.2885 20.8438 35.5163L21.2649 35.9375L20.8438 36.3586C20.6159 36.5865 20.4351 36.857 20.3118 37.1547C20.1885 37.4524 20.125 37.7715 20.125 38.0937C20.125 38.416 20.1885 38.7351 20.3118 39.0328C20.4351 39.3305 20.6159 39.601 20.8438 39.8288L21.2649 40.25L20.5461 40.9687C20.2768 41.2384 20.1255 41.604 20.1255 41.9851C20.1255 42.3662 20.2768 42.7318 20.5461 43.0015L21.686 44.1413C21.9558 44.4106 22.3213 44.5618 22.7024 44.5618C23.0835 44.5618 23.449 44.4106 23.7188 44.1413L24.4375 43.4226L24.8586 43.8437C25.0865 44.0716 25.357 44.2524 25.6547 44.3757C25.9524 44.499 26.2715 44.5625 26.5938 44.5625C26.916 44.5625 27.2351 44.499 27.5328 44.3757C27.8305 44.2524 28.101 44.0716 28.3289 43.8437L28.75 43.4226L29.1711 43.8437C29.399 44.0716 29.6695 44.2524 29.9672 44.3757C30.2649 44.499 30.584 44.5625 30.9062 44.5625C31.2285 44.5625 31.5476 44.499 31.8453 44.3757C32.143 44.2524 32.4135 44.0716 32.6414 43.8437L33.0625 43.4226C33.2904 43.1947 33.4711 42.9242 33.5945 42.6265C33.7178 42.3288 33.7812 42.0097 33.7812 41.6875C33.7812 41.3652 33.7178 41.0462 33.5945 40.7485C33.4711 40.4507 33.2904 40.1802 33.0625 39.9524L30.4851 37.375L35.9375 31.9226L38.5149 34.5C38.7427 34.7279 39.0132 34.9086 39.311 35.0319C39.6087 35.1553 39.9278 35.2187 40.25 35.2187C40.5722 35.2187 40.8913 35.1553 41.189 35.0319C41.4868 34.9086 41.7573 34.7279 41.9851 34.5L42.4062 34.0788C42.6341 33.851 42.8149 33.5805 42.9382 33.2828C43.0615 32.9851 43.125 32.666 43.125 32.3437C43.125 32.0215 43.0615 31.7024 42.9382 31.4047C42.8149 31.107 42.6341 30.8365 42.4062 30.6086L41.9851 30.1875ZM22.7024 43.125L21.5625 41.9851L22.2812 41.2663L23.4211 42.4062L22.7024 43.125ZM27.3125 42.8274C27.1187 43.0119 26.8613 43.1148 26.5938 43.1148C26.3262 43.1148 26.0688 43.0119 25.875 42.8274L21.8601 38.8125C21.6695 38.6218 21.5625 38.3633 21.5625 38.0937C21.5625 37.8242 21.6695 37.5657 21.8601 37.375L22.2812 36.9538L27.7336 42.4062L27.3125 42.8274ZM32.0461 40.9687C32.2367 41.1594 32.3438 41.4179 32.3438 41.6875C32.3438 41.9571 32.2367 42.2156 32.0461 42.4062L31.625 42.8274C31.4312 43.0119 31.1738 43.1148 30.9062 43.1148C30.6387 43.1148 30.3813 43.0119 30.1875 42.8274L21.8601 34.5C21.6695 34.3093 21.5625 34.0508 21.5625 33.7812C21.5625 33.5117 21.6695 33.2532 21.8601 33.0625L22.2812 32.6413C22.4719 32.4508 22.7304 32.3437 23 32.3437C23.2696 32.3437 23.5281 32.4508 23.7188 32.6413L32.0461 40.9687ZM29.4688 36.3586L28.3289 35.2187L33.7812 29.7663L34.9211 30.9062L29.4688 36.3586ZM41.3899 33.0625L40.9688 33.4836C40.7749 33.6682 40.5176 33.7711 40.25 33.7711C39.9824 33.7711 39.7251 33.6682 39.5312 33.4836L31.2039 25.1562C31.0133 24.9656 30.9062 24.7071 30.9062 24.4375C30.9062 24.1679 31.0133 23.9094 31.2039 23.7187L31.625 23.2976C31.8157 23.107 32.0742 23 32.3438 23C32.6133 23 32.8718 23.107 33.0625 23.2976L41.3899 31.625C41.5805 31.8157 41.6875 32.0742 41.6875 32.3437C41.6875 32.6133 41.5805 32.8718 41.3899 33.0625ZM41.3899 28.75L40.9688 29.1711L35.5164 23.7187L35.9375 23.2976C36.1313 23.1131 36.3887 23.0102 36.6562 23.0102C36.9238 23.0102 37.1812 23.1131 37.375 23.2976L41.3899 27.3125C41.5805 27.5032 41.6875 27.7617 41.6875 28.0312C41.6875 28.3008 41.5805 28.5593 41.3899 28.75ZM40.9688 24.8586L39.8289 23.7187L40.5476 23L41.6875 24.1399L40.9688 24.8586Z" fill="currentColor"></path></g></svg>