<svg xmlns="http://www.w3.org/2000/svg" viewBox="0 0 32 32"><g fill="currentColor" class="nc-icon-wrapper"><path d="M16.046 10.39A5.61 5.61 0 1 0 21.657 16v-.001a5.613 5.613 0 0 0-5.61-5.611zM12.306 16a3.74 3.74 0 1 1 7.48 0 3.74 3.74 0 1 1-7.48 0zm13.351 10.466l-2.154-.945c-.616-.27-1.34-.231-1.922.107s-.954.932-1.028 1.602l-.259 2.343a1.154 1.154 0 0 1-.852.987l-.008.002-.016.004c-1.013.252-2.177.397-3.374.397s-2.361-.145-3.474-.417l.1.021a1.159 1.159 0 0 1-.874-.977l-.001-.006-.001-.006v-.005l-.259-2.339c-.076-.669-.464-1.261-1.046-1.598s-1.288-.375-1.902-.107l-2.154.946a1.138 1.138 0 0 1-1.298-.266l-.001-.001-.002-.002A15.001 15.001 0 0 1 1.847 20.7l-.031-.106-.03-.106-.029-.107a1.144 1.144 0 0 1 .408-1.26l.003-.002.006-.004 1.904-1.405a2.122 2.122 0 0 0 .017-3.404l-.005-.004-.012-.008-1.903-1.403a1.15 1.15 0 0 1-.41-1.292l-.002.008-.004.016A15.163 15.163 0 0 1 5.16 5.78l-.008.008-.016.016a1.142 1.142 0 0 1 1.321-.258l-.007-.003-.014-.006 2.145.944c.617.271 1.327.23 1.912-.112.57-.336.966-.917 1.044-1.594l.001-.01.26-2.341c.055-.489.413-.889.892-.996a14.936 14.936 0 0 1 3.351-.388h.02c1.124.013 2.244.143 3.341.388.479.107.837.507.892.996l.261 2.343a2.128 2.128 0 0 0 2.105 1.892c.29 0 .578-.06.846-.179l2.145-.944a1.136 1.136 0 0 1 1.298.266l.001.001.002.002a14.964 14.964 0 0 1 3.287 5.501l.031.106.03.106.029.107a1.146 1.146 0 0 1-.407 1.26l-.003.002-.006.004-1.901 1.404c-.542.399-.87 1.033-.87 1.708s.328 1.308.871 1.708l1.903 1.405c.394.291.561.799.416 1.267a15.175 15.175 0 0 1-3.399 5.842l.008-.008.008-.008.008-.009a1.139 1.139 0 0 1-1.322.26l.007.003.014.006zm-6.79-.247a4.012 4.012 0 0 1 1.723-2.18l.018-.01.036-.02a3.878 3.878 0 0 1 1.979-.536h.039c.595 0 1.159.131 1.665.366l-.024-.01-.025-.01-.026-.01 1.676.736a13.053 13.053 0 0 0 2.368-3.963l.03-.09.029-.091.029-.092-1.483-1.095C25.89 18.47 25.27 17.282 25.27 16s.62-2.468 1.63-3.213l.001-.001 1.48-1.093a13.27 13.27 0 0 0-2.498-4.284l.013.016.028.032-1.664.733c-.46.213-.999.338-1.567.338h-.035a3.995 3.995 0 0 1-3.956-3.5l-.002-.019-.002-.019-.002-.018V4.97l-.202-1.82a12.921 12.921 0 0 0-2.408-.24h-.024c-.878.011-1.728.098-2.554.255l.091-.014-.203 1.822a4.008 4.008 0 0 1-5.644 3.189l.025.01.05.02-1.666-.733a13.063 13.063 0 0 0-2.369 3.962l-.03.09-.029.091-.029.092 1.483 1.094a3.991 3.991 0 0 1 .032 6.402l-.01.007-.01.007-.011.008-1.485 1.096a13.282 13.282 0 0 0 2.499 4.29l-.014-.016-.028-.032 1.677-.736c1.159-.507 2.491-.432 3.587.201s1.826 1.749 1.969 3.006l.001.006.202 1.825c1.616.318 3.279.318 4.895 0l.202-1.829c.03-.274.088-.544.172-.804z"></path></g></svg>