<svg xmlns="http://www.w3.org/2000/svg" viewBox="0 0 32 32"><g fill="currentColor" class="nc-icon-wrapper"><path d="M23.883 20.8H12.95a3.202 3.202 0 0 1-3.136-2.57L7.659 7.467H4.267a1.066 1.066 0 1 1 0-2.132h4.267a1.067 1.067 0 0 1 1.067.854l2.304 11.627a1.066 1.066 0 0 0 1.067.853h10.912a1.064 1.064 0 0 0 1.067-.842l1.717-8c.034-.158.032-.321-.007-.477s-.111-.302-.214-.427a1.07 1.07 0 0 0-.846-.387h-1.067a1.066 1.066 0 1 1 0-2.132h1.067a3.208 3.208 0 0 1 2.543 1.164 3.206 3.206 0 0 1 .657 2.719l-1.739 8a3.2 3.2 0 0 1-3.179 2.517z"></path><path d="M13.867 28.8a3.204 3.204 0 0 1-2.957-1.975 3.198 3.198 0 0 1 .694-3.488 3.199 3.199 0 0 1 5.462 2.263 3.2 3.2 0 0 1-3.2 3.2zm0-4.267a1.071 1.071 0 0 0-.986.659 1.065 1.065 0 0 0 1.393 1.393 1.064 1.064 0 0 0 .659-.986 1.066 1.066 0 0 0-1.066-1.066z"></path><path d="M23.466 28.8a3.204 3.204 0 0 1-2.957-1.975 3.198 3.198 0 0 1 .694-3.488 3.199 3.199 0 0 1 5.462 2.263 3.2 3.2 0 0 1-3.2 3.2zm0-4.267a1.071 1.071 0 0 0-.986.659 1.065 1.065 0 0 0 1.393 1.393 1.07 1.07 0 0 0 .347-1.74c-.2-.2-.471-.312-.754-.312z"></path><path d="M21.333 12.8h-6.4a1.066 1.066 0 1 1 0-2.132h6.4a1.066 1.066 0 1 1 0 2.132z"></path><path d="M18.133 16a1.066 1.066 0 0 1-1.066-1.066v-6.4a1.066 1.066 0 1 1 2.132 0v6.4A1.066 1.066 0 0 1 18.133 16z"></path></g></svg>