<svg xmlns="http://www.w3.org/2000/svg" viewBox="0 0 22 22"><g fill="none" class="nc-icon-wrapper"><path d="M18.9915 8.00112C18.9323 7.3165 18.6177 6.6792 18.1103 6.21583C17.6029 5.75246 16.9397 5.49693 16.2525 5.5H15.125V4.125C15.125 3.03098 14.6904 1.98177 13.9168 1.20818C13.1432 0.434597 12.094 0 11 0C9.90599 0 8.85678 0.434597 8.08319 1.20818C7.3096 1.98177 6.875 3.03098 6.875 4.125V5.5H5.7475C5.06034 5.49693 4.39716 5.75246 3.88971 6.21583C3.38227 6.6792 3.0677 7.3165 3.00851 8.00112L2.07694 18.2511C2.03367 18.7267 2.09 19.2062 2.24235 19.6589C2.39471 20.1116 2.63973 20.5276 2.9618 20.8803C3.28387 21.2331 3.67592 21.5148 4.11294 21.7076C4.54996 21.9004 5.02236 22 5.5 22H16.5C16.9777 22 17.4501 21.9004 17.8871 21.7076C18.3241 21.5148 18.7161 21.2331 19.0382 20.8803C19.3603 20.5276 19.6053 20.1116 19.7577 19.6589C19.91 19.2062 19.9663 18.7267 19.9231 18.2511L18.9915 8.00112ZM8.25001 4.125C8.25001 3.39565 8.53974 2.69618 9.05546 2.18046C9.57119 1.66473 10.2707 1.375 11 1.375C11.7294 1.375 12.4288 1.66473 12.9445 2.18046C13.4603 2.69618 13.75 3.39565 13.75 4.125V5.5H8.25001V4.125ZM18.0228 19.9533C17.8305 20.1661 17.5955 20.3359 17.3331 20.4516C17.0707 20.5673 16.7868 20.6264 16.5 20.625H5.5C5.21343 20.6249 4.93 20.5652 4.66782 20.4495C4.40563 20.3338 4.17043 20.1647 3.97721 19.9531C3.784 19.7414 3.63701 19.4918 3.54562 19.2202C3.45424 18.9486 3.42046 18.6609 3.44644 18.3755L4.37801 8.12556C4.40768 7.78328 4.56499 7.46468 4.81869 7.23301C5.0724 7.00134 5.40394 6.87354 5.7475 6.875H16.2525C16.5961 6.87354 16.9276 7.00134 17.1813 7.23301C17.435 7.46468 17.5923 7.78328 17.622 8.12556L18.5536 18.3755C18.5812 18.661 18.5482 18.9492 18.4568 19.2211C18.3653 19.493 18.2174 19.7425 18.0228 19.9533Z" fill="currentColor"></path><path d="M14.4375 8.25C14.2552 8.25 14.0803 8.32243 13.9514 8.45136C13.8224 8.5803 13.75 8.75516 13.75 8.9375C13.75 9.66685 13.4603 10.3663 12.9445 10.882C12.4288 11.3978 11.7293 11.6875 11 11.6875C10.2707 11.6875 9.57118 11.3978 9.05546 10.882C8.53973 10.3663 8.25 9.66685 8.25 8.9375C8.25 8.75516 8.17757 8.5803 8.04864 8.45136C7.9197 8.32243 7.74484 8.25 7.5625 8.25C7.38016 8.25 7.2053 8.32243 7.07636 8.45136C6.94743 8.5803 6.875 8.75516 6.875 8.9375C6.875 10.0315 7.3096 11.0807 8.08318 11.8543C8.85677 12.6279 9.90598 13.0625 11 13.0625C12.094 13.0625 13.1432 12.6279 13.9168 11.8543C14.6904 11.0807 15.125 10.0315 15.125 8.9375C15.125 8.75516 15.0526 8.5803 14.9236 8.45136C14.7947 8.32243 14.6198 8.25 14.4375 8.25Z" fill="currentColor"></path></g></svg>