<svg xmlns="http://www.w3.org/2000/svg" viewBox="0 0 32 32"><g fill="currentColor" class="nc-icon-wrapper"><path d="M10.667 10.996v-.015a3.557 3.557 0 0 0-2.642-3.437L8 7.538V4.445v-.006a.887.887 0 0 0-1.518-.623.883.883 0 0 0-.26.627V7.538a3.561 3.561 0 0 0-2.729 3.457c0 .835.288 1.604.771 2.21l-.006-.007a3.564 3.564 0 0 0 1.94 1.251l.024.005v13.108a.887.887 0 0 0 1.518.623.885.885 0 0 0 .26-.628V14.454a3.565 3.565 0 0 0 2.667-3.445v-.013.001zm-3.556 1.777h-.002a1.774 1.774 0 0 1-1.636-1.086l-.004-.012a1.764 1.764 0 0 1 .386-1.936 1.78 1.78 0 0 1 3.035 1.257v.031c0 .485-.196.925-.512 1.244-.322.327-.77.53-1.266.53H7.11v-.027z"></path><path d="M28.444 14.071v-.015a3.557 3.557 0 0 0-2.642-3.437l-.025-.006V4.444v-.006a.887.887 0 0 0-1.518-.623.883.883 0 0 0-.26.627V10.613a3.568 3.568 0 0 0-2.727 3.458v.002a3.555 3.555 0 0 0 2.703 3.451l.024.005v10.033a.887.887 0 0 0 1.518.623.885.885 0 0 0 .26-.628V17.529a3.565 3.565 0 0 0 2.667-3.445v-.014.001zm-3.555 1.778h-.002a1.774 1.774 0 0 1-1.636-1.086l-.004-.012a1.764 1.764 0 0 1 .386-1.936 1.778 1.778 0 0 1 3.035 1.256v.036c0 .982-.796 1.778-1.778 1.778v-.036z"></path><path d="M19.556 21.778v-.015a3.557 3.557 0 0 0-2.642-3.437l-.025-.006V4.444v-.006a.887.887 0 0 0-1.518-.623.883.883 0 0 0-.26.627V18.32a3.568 3.568 0 0 0-2.727 3.458v.002a3.555 3.555 0 0 0 2.703 3.451l.024.005V27.562a.887.887 0 0 0 1.518.623.885.885 0 0 0 .26-.628V25.236a3.565 3.565 0 0 0 2.667-3.445v-.014.001zM16 23.556h-.002a1.774 1.774 0 0 1-1.636-1.086l-.004-.012a1.768 1.768 0 0 1 .386-1.937 1.778 1.778 0 0 1 3.035 1.256v.022c0 .735-.445 1.367-1.08 1.641l-.012.004a1.754 1.754 0 0 1-.687.138v-.027z"></path></g></svg>