<svg xmlns="http://www.w3.org/2000/svg" viewBox="0 0 16 17"><g fill="none" class="nc-icon-wrapper"><path d="M5.188.375c.351.023.539.21.562.563-.023.351-.21.539-.563.562H1.25v3.938c-.023.351-.21.539-.563.562-.351-.023-.539-.21-.562-.563v-4.5C.148.587.335.398.688.375h4.5zM.125 11.063c.023-.352.21-.54.563-.563.351.023.539.21.562.563V15h3.938c.351.023.539.21.562.563-.023.351-.21.539-.563.562h-4.5c-.351-.023-.539-.21-.562-.563v-4.5zM15.313.374c.351.023.539.21.562.563v4.5c-.023.351-.21.539-.563.562-.351-.023-.539-.21-.562-.563V1.5h-3.938c-.351-.023-.539-.21-.562-.563.023-.351.21-.539.563-.562h4.5zm-.563 10.688c.023-.352.21-.54.563-.563.351.023.539.21.562.563v4.5c-.023.351-.21.539-.563.562h-4.5c-.351-.023-.539-.21-.562-.563.023-.351.21-.539.563-.562h3.937v-3.938z" fill="currentColor"></path></g></svg>