<svg xmlns="http://www.w3.org/2000/svg" viewBox="0 0 40 40"><g fill="none" class="nc-icon-wrapper"><path d="M28.228 13.811a9.067 9.067 0 0 0-4.895-4.433 9.325 9.325 0 0 0-6.668 0 9.068 9.068 0 0 0-4.894 4.435.81.81 0 0 1-1.073.366.778.778 0 0 1-.373-1.05 10.66 10.66 0 0 1 5.753-5.213c2.52-.967 5.32-.967 7.84-.001a10.66 10.66 0 0 1 5.754 5.21c.193.391.026.86-.372 1.05a.81.81 0 0 1-1.072-.364zm10.77 14.955v1.372H39a4.768 4.768 0 0 1-1.442 3.402 4.978 4.978 0 0 1-3.477 1.412c-.016 0-.03-.008-.047-.009a2.952 2.952 0 0 1-2.077 1.05 2.968 2.968 0 0 1-2.202-.772 2.84 2.84 0 0 1-.924-2.102v-7.333a2.854 2.854 0 0 1 .863-2.037 2.98 2.98 0 0 1 2.08-.844c.467.003.926.116 1.339.33v-5.83c0-4.585-2.5-8.822-6.556-11.114a13.36 13.36 0 0 0-13.113 0C9.387 8.583 6.888 12.82 6.888 17.405v5.83a2.958 2.958 0 0 1 1.338-.33 2.98 2.98 0 0 1 2.08.844c.553.54.863 1.273.864 2.037v7.333a2.839 2.839 0 0 1-.925 2.103 2.968 2.968 0 0 1-2.203.771 2.954 2.954 0 0 1-2.078-1.053 5.134 5.134 0 0 1-3.513-1.494A4.923 4.923 0 0 1 1 29.976v-1.048a4.91 4.91 0 0 1 1.22-3.219 5.107 5.107 0 0 1 3.062-1.677v-6.627c0-3.82 1.55-7.484 4.31-10.186C12.352 4.518 16.096 3 20 3s7.647 1.517 10.407 4.219c2.76 2.701 4.311 6.365 4.311 10.186v6.61a4.941 4.941 0 0 1 3.054 1.588A4.746 4.746 0 0 1 39 28.766h-.001zm-33.717-3.15a3.495 3.495 0 0 0-1.925 1.202 3.366 3.366 0 0 0-.75 2.11v1.048c0 .766.265 1.51.75 2.11a3.494 3.494 0 0 0 1.925 1.203v-7.674zm1.606.17v7.333c0 .468.255.9.669 1.134.414.234.924.234 1.338 0 .414-.234.669-.666.669-1.134v-7.333c0-.468-.255-.9-.67-1.134a1.362 1.362 0 0 0-1.337 0 1.305 1.305 0 0 0-.67 1.134zm26.225 0c0-.468-.256-.9-.67-1.134a1.362 1.362 0 0 0-1.337 0 1.304 1.304 0 0 0-.67 1.134v7.333c0 .468.255.9.67 1.134.413.234.923.234 1.338 0 .413-.234.669-.666.669-1.134v-7.333zm4.28 2.98h.001c0-.751-.268-1.48-.756-2.06a3.334 3.334 0 0 0-1.92-1.122v7.736a3.332 3.332 0 0 0 1.92-1.122c.488-.58.755-1.308.756-2.06v-1.372z" fill="currentColor"></path></g></svg>