<svg xmlns="http://www.w3.org/2000/svg" viewBox="0 0 16 16"><g fill="none" class="nc-icon-wrapper"><path d="M6.375 1C6.79167 1 7.14583 1.14583 7.4375 1.4375L12.8438 6.84375C13.2188 7.23958 13.4062 7.70833 13.4062 8.25C13.4062 8.77083 13.2188 9.23958 12.8438 9.65625L8.65625 13.8438C8.26042 14.2188 7.79167 14.4062 7.25 14.4062C6.72917 14.4062 6.26042 14.2188 5.84375 13.8438L0.4375 8.4375C0.145833 8.14583 0 7.79167 0 7.375V2.5C0.0208333 2.08333 0.166667 1.72917 0.4375 1.4375C0.729167 1.16667 1.08333 1.02083 1.5 1H6.375ZM1.15625 7.71875L6.53125 13.125C6.73958 13.3125 6.97917 13.4062 7.25 13.4062C7.52083 13.4062 7.76042 13.3125 7.96875 13.125L12.125 8.96875C12.3125 8.76042 12.4062 8.52083 12.4062 8.25C12.4062 7.97917 12.3125 7.73958 12.125 7.53125L6.71875 2.15625C6.63542 2.05208 6.52083 2 6.375 2H1.5C1.1875 2.02083 1.02083 2.1875 1 2.5V7.375C1 7.52083 1.05208 7.63542 1.15625 7.71875ZM9.625 1.15625C9.85417 0.947917 10.0938 0.9375 10.3438 1.125L14.75 5.34375C15.5833 6.17708 16 7.14583 16 8.25C16 9.35417 15.5833 10.3229 14.75 11.1562L10.875 14.875C10.625 15.0625 10.3854 15.0521 10.1562 14.8438C9.96875 14.5938 9.97917 14.3542 10.1875 14.125L14.0625 10.4062C14.6875 9.78125 15 9.0625 15 8.25C15 7.4375 14.6875 6.71875 14.0625 6.09375L9.65625 1.875C9.44792 1.64583 9.4375 1.40625 9.625 1.15625ZM3.25 3.5C3.70833 3.54167 3.95833 3.79167 4 4.25C3.95833 4.70833 3.70833 4.95833 3.25 5C2.79167 4.95833 2.54167 4.70833 2.5 4.25C2.54167 3.79167 2.79167 3.54167 3.25 3.5Z" fill="currentColor"></path></g></svg>