<svg xmlns="http://www.w3.org/2000/svg" viewBox="0 0 15 13"><g fill="none" class="nc-icon-wrapper"><path d="M5.25 5.75C5.65625 5.75 6.03125 5.64844 6.375 5.44531C6.71875 5.24219 6.99219 4.96875 7.19531 4.625C7.39844 4.26562 7.5 3.89062 7.5 3.5C7.5 3.10938 7.39844 2.73438 7.19531 2.375C6.99219 2.03125 6.71875 1.75781 6.375 1.55469C6.03125 1.35156 5.65625 1.25 5.25 1.25C4.84375 1.25 4.46875 1.35156 4.125 1.55469C3.78125 1.75781 3.50781 2.03125 3.30469 2.375C3.10156 2.73438 3 3.10938 3 3.5C3 3.89062 3.10156 4.26562 3.30469 4.625C3.50781 4.96875 3.78125 5.24219 4.125 5.44531C4.46875 5.64844 4.84375 5.75 5.25 5.75ZM0.75 11.75H7.54688L7.52344 11.8438C7.47656 12.0625 7.49219 12.2812 7.57031 12.5H0.703125C0.5 12.5 0.335938 12.4297 0.210938 12.2891C0.0703125 12.1641 0 12 0 11.7969C0.03125 10.625 0.4375 9.64062 1.21875 8.84375C2.01562 8.0625 3 7.65625 4.17188 7.625H6.32812C7.375 7.64062 8.28125 7.97656 9.04688 8.63281L8.50781 9.14844C7.89844 8.64844 7.17188 8.39062 6.32812 8.375H4.17188C3.21875 8.40625 2.42188 8.73438 1.78125 9.35938C1.125 10 0.78125 10.7969 0.75 11.75ZM2.25 3.5C2.25 2.95312 2.38281 2.45312 2.64844 2C2.91406 1.54688 3.28125 1.17969 3.75 0.898438C4.21875 0.632813 4.71875 0.5 5.25 0.5C5.78125 0.5 6.28125 0.632813 6.75 0.898438C7.21875 1.17969 7.58594 1.54688 7.85156 2C8.11719 2.45312 8.25 2.95312 8.25 3.5C8.25 4.04688 8.11719 4.54688 7.85156 5C7.58594 5.45312 7.21875 5.82031 6.75 6.10156C6.28125 6.36719 5.78125 6.5 5.25 6.5C4.71875 6.5 4.21875 6.36719 3.75 6.10156C3.28125 5.82031 2.91406 5.45312 2.64844 5C2.38281 4.54688 2.25 4.04688 2.25 3.5ZM13.6641 6.6875C13.4922 6.54688 13.3125 6.54688 13.125 6.6875L12.5391 7.27344L13.4766 8.21094L14.0625 7.625C14.2188 7.45312 14.2188 7.27344 14.0625 7.08594L13.6641 6.6875ZM9.53906 10.2969C9.47656 10.3438 9.4375 10.3984 9.42188 10.4609L9.14062 11.6094L10.2891 11.3281C10.3516 11.3125 10.4062 11.2812 10.4531 11.2344L12.9609 8.72656L12.0234 7.78906L9.53906 10.2969ZM12.6094 6.14844C12.8281 5.92969 13.0859 5.82031 13.3828 5.82031C13.6953 5.82031 13.9609 5.92969 14.1797 6.14844L14.6016 6.57031C14.8203 6.80469 14.9297 7.07031 14.9297 7.36719C14.9297 7.66406 14.8203 7.92969 14.6016 8.16406L10.9922 11.75C10.8516 11.9062 10.6797 12.0078 10.4766 12.0547L8.71875 12.5C8.57812 12.5312 8.46094 12.4922 8.36719 12.3828C8.27344 12.2891 8.24219 12.1719 8.27344 12.0312L8.69531 10.2734C8.75781 10.0859 8.85938 9.91406 9 9.75781L12.6094 6.14844Z" fill="currentColor"></path></g></svg>