<svg xmlns="http://www.w3.org/2000/svg" viewBox="0 0 16 16"><path d="M7.467.017a8.028 8.028 0 0 0-5.859 3.176C.799 4.26.296 5.477.073 6.906c-.082.523-.082 1.665 0 2.188.342 2.195 1.407 4.004 3.123 5.301.982.742 2.287 1.307 3.437 1.487l.114.018v-5.58H4.72V8h2.022l.011-1.127c.013-1.232.03-1.407.182-1.866.148-.447.348-.775.663-1.088.611-.606 1.441-.848 2.655-.774.449.027 1.043.087 1.22.124l.074.015V5.253h-.585c-.659 0-.908.034-1.13.153a1.105 1.105 0 0 0-.44.442c-.128.272-.139.375-.139 1.291V8h2.218l-.015.073c-.021.104-.336 2.184-.336 2.219 0 .019-.294.028-.933.028h-.934v5.58l.114-.018c.701-.11 1.631-.423 2.307-.777 2.175-1.14 3.691-3.153 4.166-5.53.121-.609.147-.89.146-1.602-.001-.678-.022-.907-.135-1.496a8.01 8.01 0 0 0-3.975-5.472c-.87-.487-1.83-.8-2.876-.939A12.585 12.585 0 0 0 7.467.017" fill="currentColor" fill-rule="evenodd"/></svg>