<svg xmlns="http://www.w3.org/2000/svg" viewBox="0 0 14 12"><g fill="none" class="nc-icon-wrapper"><path d="M1.094.063h1.312c.401.036.62.255.656.656V2.03c-.036.401-.255.62-.656.656H1.094c-.401-.036-.62-.255-.657-.656V.72c.037-.401.256-.62.657-.656zM5.03.719h8.313c.4.036.62.255.656.656-.037.401-.255.62-.656.656H5.03c-.4-.036-.62-.255-.656-.656.036-.401.255-.62.656-.656zm0 4.375h8.313c.4.036.62.255.656.656-.037.401-.255.62-.656.656H5.03c-.4-.036-.62-.255-.656-.656.036-.401.255-.62.656-.656zm0 4.375h8.313c.4.036.62.255.656.656-.037.401-.255.62-.656.656H5.03c-.4-.036-.62-.255-.656-.656.036-.401.255-.62.656-.656zM.438 5.094c.036-.401.255-.62.656-.657h1.312c.401.037.62.256.656.657v1.312c-.036.401-.255.62-.656.657H1.094c-.401-.037-.62-.256-.657-.657V5.094zm.656 3.718h1.312c.401.037.62.256.656.657v1.312c-.036.401-.255.62-.656.656H1.094c-.401-.036-.62-.255-.657-.656V9.47c.037-.401.256-.62.657-.656z" fill="currentColor"></path></g></svg>