<svg xmlns="http://www.w3.org/2000/svg" viewBox="0 0 20 18"><g fill="none" class="nc-icon-wrapper"><path d="M15.912 11.6h-8.2A2.4 2.4 0 0 1 5.36 9.672L3.744 1.6H1.2a.8.8 0 0 1 0-1.6h3.2a.8.8 0 0 1 .8.64l1.728 8.72a.8.8 0 0 0 .8.64h8.184a.8.8 0 0 0 .8-.632l1.288-6a.8.8 0 0 0-.8-.968h-.8a.8.8 0 1 1 0-1.6h.8a2.4 2.4 0 0 1 2.4 2.912l-1.304 6a2.4 2.4 0 0 1-2.384 1.888z" fill="#002B44"></path><path d="M8.4 17.6a2.4 2.4 0 1 1 0-4.8 2.4 2.4 0 0 1 0 4.8zm0-3.2a.8.8 0 1 0 0 1.6.8.8 0 0 0 0-1.6z" fill="#002B44"></path><path d="M15.6 17.6a2.4 2.4 0 1 1 0-4.8 2.4 2.4 0 0 1 0 4.8zm0-3.2a.8.8 0 1 0 0 1.6.8.8 0 0 0 0-1.6z" fill="#002B44"></path><path d="M14 5.6H9.2a.8.8 0 0 1 0-1.6H14a.8.8 0 1 1 0 1.6z" fill="#002B44"></path><path d="M11.6 8a.8.8 0 0 1-.8-.8V2.4a.8.8 0 0 1 1.6 0v4.8a.8.8 0 0 1-.8.8z" fill="#002B44"></path></g></svg>