<svg xmlns="http://www.w3.org/2000/svg" viewBox="0 0 20 20"><g fill="none" class="nc-icon-wrapper"><path d="M18.3068 7.48612H15.9079L12.4216 2.30598C12.2093 1.99057 11.7782 1.90463 11.4616 2.11582C11.1432 2.3261 11.0573 2.75122 11.2696 3.06664L14.2446 7.48612H5.75453L8.72945 3.06664C8.94175 2.75122 8.85591 2.3261 8.53746 2.11582C8.21901 1.90554 7.78981 1.99057 7.57751 2.30598L4.09123 7.48612H1.69227C1.31014 7.48612 1 7.79331 1 8.17181C1 8.55031 1.31014 8.8575 1.69227 8.8575H2.04764L3.48572 15.9786C3.72201 17.1497 4.76873 18 5.97513 18H14.0249C15.2313 18 16.2771 17.1497 16.5143 15.9786L17.9524 8.8575H18.3077C18.6899 8.8575 19 8.55031 19 8.17181C19 7.79331 18.6889 7.48612 18.3068 7.48612ZM15.1556 15.7098C15.0476 16.2419 14.5722 16.6286 14.0239 16.6286H5.97513C5.42685 16.6286 4.95149 16.2419 4.8435 15.7098L3.45987 8.8575H16.5392L15.1556 15.7098ZM11.1533 13.6573V11.8288C11.1533 11.4503 11.4635 11.1431 11.8456 11.1431C12.2277 11.1431 12.5379 11.4503 12.5379 11.8288V13.6573C12.5379 14.0358 12.2277 14.343 11.8456 14.343C11.4635 14.343 11.1533 14.0358 11.1533 13.6573ZM7.46121 13.6573V11.8288C7.46121 11.4503 7.77135 11.1431 8.15348 11.1431C8.53561 11.1431 8.84575 11.4503 8.84575 11.8288V13.6573C8.84575 14.0358 8.53561 14.343 8.15348 14.343C7.77135 14.343 7.46121 14.0358 7.46121 13.6573Z" fill="currentColor"></path></g></svg>