<svg xmlns="http://www.w3.org/2000/svg" viewBox="0 0 22 22"><g fill="none" class="nc-icon-wrapper"><path fill-rule="evenodd" clip-rule="evenodd" d="M4.58 19.79a1.676 1.676 0 1 1-2.37-2.37l-.554-.553.554.553 9.57-9.57a.86.86 0 0 0 .223-.83 4.209 4.209 0 0 1 1.09-4.068 4.204 4.204 0 0 1 3.545-1.196l-2.37 2.37a.86.86 0 0 0 0 1.216l2.39 2.39a.86.86 0 0 0 1.215 0l2.37-2.37a4.204 4.204 0 0 1-1.195 3.545 4.209 4.209 0 0 1-4.069 1.09.86.86 0 0 0-.829.223l-9.57 9.57zM.994 21.005a3.395 3.395 0 0 0 4.8 0l9.239-9.237a5.931 5.931 0 0 0 6.39-8.395.86.86 0 0 0-1.384-.237l-2.773 2.773-1.175-1.175 2.773-2.773a.86.86 0 0 0-.237-1.383 5.932 5.932 0 0 0-8.395 6.389L.994 16.205l.608.608-.608-.608a3.394 3.394 0 0 0 0 4.8z" fill="#002B44"></path><path fill-rule="evenodd" clip-rule="evenodd" d="M16.205 21.006a3.395 3.395 0 0 0 4.8-4.8l-5.812-5.814a.86.86 0 1 0-1.215 1.216l5.813 5.812a1.676 1.676 0 0 1-2.37 2.37l-5.813-5.813a.86.86 0 0 0-1.216 1.216l5.813 5.813.608-.608-.608.608z" fill="#002B44"></path><path fill-rule="evenodd" clip-rule="evenodd" d="M9.815 9.815a.86.86 0 0 0 0-1.215L1.467.252A.86.86 0 0 0 .252 1.467L8.6 9.815a.86.86 0 0 0 1.215 0z" fill="#002B44"></path></g></svg>