<svg xmlns="http://www.w3.org/2000/svg" viewBox="0 0 24 24"><g fill="none" class="nc-icon-wrapper"><path fill-rule="evenodd" clip-rule="evenodd" d="M5.981 8.986H4.96c-.708 0-1.362.383-1.71 1.004l-.712 1.27H5.98V8.986zM4.96 7.11h1.959a.937.937 0 0 1 .937.937v4.15c0 .517-.42.937-.937.937H.938A.938.938 0 0 1 .12 11.74l1.494-2.665A3.837 3.837 0 0 1 4.96 7.11z" fill="#002B44"></path><path fill-rule="evenodd" clip-rule="evenodd" d="M4.636 17.435c-.718 0-1.31.588-1.31 1.325s.592 1.324 1.31 1.324c.717 0 1.31-.587 1.31-1.324 0-.738-.593-1.325-1.31-1.325zM1.45 18.76c0-1.761 1.42-3.2 3.185-3.2a3.192 3.192 0 0 1 3.184 3.2c0 1.761-1.42 3.2-3.184 3.2a3.192 3.192 0 0 1-3.185-3.2z" fill="#002B44"></path><path fill-rule="evenodd" clip-rule="evenodd" d="M17.29 17.435c-.717 0-1.31.588-1.31 1.325s.593 1.324 1.31 1.324c.718 0 1.31-.587 1.31-1.324 0-.738-.592-1.325-1.31-1.325zm-3.184 1.325c0-1.761 1.42-3.2 3.184-3.2a3.192 3.192 0 0 1 3.185 3.2c0 1.761-1.42 3.2-3.185 3.2a3.192 3.192 0 0 1-3.184-3.2z" fill="#002B44"></path><path fill-rule="evenodd" clip-rule="evenodd" d="M5.837 17.893c0-.518.42-.937.938-.937h8.358a.937.937 0 1 1 0 1.875H6.775a.938.938 0 0 1-.938-.938z" fill="#002B44"></path><path fill-rule="evenodd" clip-rule="evenodd" d="M0 12.197c0-.517.42-.937.938-.937h5.884a.937.937 0 1 1 0 1.875H1.875v3.216c0 .336.271.605.6.605a.937.937 0 1 1 0 1.875A2.478 2.478 0 0 1 0 16.35v-4.153z" fill="#002B44"></path><path fill-rule="evenodd" clip-rule="evenodd" d="M23.063 14.047c.517 0 .937.42.937.937a3.842 3.842 0 0 1-3.838 3.847h-.747a.938.938 0 0 1 0-1.875h.747c1.082 0 1.963-.88 1.963-1.972 0-.517.42-.937.938-.937z" fill="#002B44"></path><path fill-rule="evenodd" clip-rule="evenodd" d="M5.982 5.887A3.842 3.842 0 0 1 9.82 2.041h10.342A3.842 3.842 0 0 1 24 5.887v4.41a.938.938 0 0 1-1.875 0v-4.41a1.967 1.967 0 0 0-1.963-1.971H9.82c-1.082 0-1.963.88-1.963 1.971v11.505a.937.937 0 1 1-1.875 0V5.887z" fill="#002B44"></path><path fill-rule="evenodd" clip-rule="evenodd" d="M14.88 9.188c0-.518.419-.937.937-.937h6.95a.937.937 0 1 1 0 1.875h-6.95a.937.937 0 0 1-.938-.938z" fill="#002B44"></path><path fill-rule="evenodd" clip-rule="evenodd" d="M17.761 6.797a.938.938 0 0 1 0 1.326l-1.065 1.065 1.065 1.066a.937.937 0 0 1-1.325 1.325l-1.729-1.728a.938.938 0 0 1 0-1.326l1.729-1.728a.937.937 0 0 1 1.325 0z" fill="#002B44"></path></g></svg>