<svg xmlns="http://www.w3.org/2000/svg" viewBox="0 0 16 16"><g fill="none" class="nc-icon-wrapper"><path d="M2 3C1.70833 3 1.46875 3.09375 1.28125 3.28125C1.09375 3.46875 1 3.70833 1 4V5.25L7.125 9.71875C7.70833 10.1146 8.29167 10.1146 8.875 9.71875L15 5.25V4C15 3.70833 14.9062 3.46875 14.7188 3.28125C14.5312 3.09375 14.2917 3 14 3H2ZM1 6.5V12C1 12.2917 1.09375 12.5312 1.28125 12.7188C1.46875 12.9062 1.70833 13 2 13H14C14.2917 13 14.5312 12.9062 14.7188 12.7188C14.9062 12.5312 15 12.2917 15 12V6.5L9.46875 10.5312C9.03125 10.8646 8.54167 11.0312 8 11.0312C7.45833 11.0312 6.96875 10.8646 6.53125 10.5312L1 6.5ZM0 4C0.0208333 3.4375 0.21875 2.96875 0.59375 2.59375C0.96875 2.21875 1.4375 2.02083 2 2H14C14.5625 2.02083 15.0312 2.21875 15.4062 2.59375C15.7812 2.96875 15.9792 3.4375 16 4V12C15.9792 12.5625 15.7812 13.0312 15.4062 13.4062C15.0312 13.7812 14.5625 13.9792 14 14H2C1.4375 13.9792 0.96875 13.7812 0.59375 13.4062C0.21875 13.0312 0.0208333 12.5625 0 12V4Z" fill="currentColor"></path></g></svg>