<svg xmlns="http://www.w3.org/2000/svg" viewBox="0 0 24 24"><g fill="none" class="nc-icon-wrapper"><path d="M9.333 2.667H4A1.333 1.333 0 0 0 2.667 4v5.333A1.333 1.333 0 0 0 4 10.667h5.333a1.333 1.333 0 0 0 1.334-1.334V4a1.333 1.333 0 0 0-1.334-1.333zM4 9.333V4h5.333v5.333H4z" fill="#002B44"></path><path d="M20 2.667h-5.333A1.333 1.333 0 0 0 13.333 4v5.333a1.333 1.333 0 0 0 1.334 1.334H20a1.333 1.333 0 0 0 1.333-1.334V4A1.334 1.334 0 0 0 20 2.667zm-5.333 6.666V4H20v5.333h-5.333z" fill="#002B44"></path><path d="M9.333 13.333H4a1.333 1.333 0 0 0-1.333 1.334V20A1.333 1.333 0 0 0 4 21.333h5.333A1.333 1.333 0 0 0 10.667 20v-5.333a1.333 1.333 0 0 0-1.334-1.334zM4 20v-5.333h5.333V20H4z" fill="#002B44"></path><path d="M20 13.333h-5.333a1.333 1.333 0 0 0-1.334 1.334V20a1.333 1.333 0 0 0 1.334 1.333H20A1.333 1.333 0 0 0 21.333 20v-5.333A1.333 1.333 0 0 0 20 13.333zM14.667 20v-5.333H20V20h-5.333z" fill="#002B44"></path></g></svg>