<svg xmlns="http://www.w3.org/2000/svg" viewBox="0 0 19 19"><path d="M0 2.502v2.501h8.55V0H0v2.502m10.45 0v2.501H19V0h-8.55v2.502m-2.85 0V3.99H.95V1.013H7.6v1.489m10.45 0V3.99H11.4V1.013h6.65v1.489M0 9.5v2.502h8.55V6.998H0V9.5m10.45 0v2.502H19V6.998h-8.55V9.5m-2.85 0v1.488H.95V8.012H7.6V9.5m10.45 0v1.488H11.4V8.012h6.65V9.5M0 16.498V19h8.55v-5.003H0v2.501m10.45 0V19H19v-5.003h-8.55v2.501m-2.85.016v1.504H.95V15.01H7.6v1.504m10.45 0v1.504H11.4V15.01h6.65v1.504" fill="currentColor" fill-rule="evenodd"/></svg>