<svg xmlns="http://www.w3.org/2000/svg" viewBox="0 0 14 13"><g fill="none" class="nc-icon-wrapper"><path d="M6.18 12.547l-.082-.055-4.785-4.457C.456 7.215.018 6.212 0 5.027v-.082c.018-.984.328-1.84.93-2.57.583-.71 1.358-1.167 2.324-1.367 1.13-.2 2.151.018 3.062.656.256.164.483.365.684.602a2.39 2.39 0 0 1 .383-.356c.091-.091.191-.173.3-.246.912-.638 1.933-.866 3.063-.684.966.201 1.741.666 2.324 1.395.602.73.912 1.586.93 2.57v.082c-.018 1.185-.456 2.188-1.313 3.008l-4.785 4.457-.082.055c-.237.219-.51.328-.82.328-.31 0-.583-.11-.82-.328zm.355-8.832l-.027-.027-.492-.547a2.661 2.661 0 0 0-1.149-.766A2.664 2.664 0 0 0 3.5 2.293a2.608 2.608 0 0 0-1.559.93c-.4.474-.61 1.048-.629 1.722v.082c.019.802.32 1.486.903 2.051L7 11.535l4.785-4.457a2.846 2.846 0 0 0 .902-2.05v-.083c-.018-.674-.227-1.248-.628-1.722a2.608 2.608 0 0 0-1.559-.93 2.664 2.664 0 0 0-1.367.082c-.438.146-.82.401-1.149.766l-.492.546-.027.028A.633.633 0 0 1 7 3.906a.633.633 0 0 1-.465-.191z" fill="currentColor"></path></g></svg>