<svg xmlns="http://www.w3.org/2000/svg" viewBox="0 0 19 19"><path d="M0 2.502v2.501h5.003V0H0v2.502m6.998 0v2.501H19V0H6.998v2.502m-3.008 0V3.99H1.013V1.013H3.99v1.489m13.997 0V3.99H8.012V1.013H17.987v1.489M0 9.5v2.502h5.003V6.998H0V9.5m6.998 0v2.502H19V6.998H6.998V9.5m-3.008 0v1.488H1.013V8.012H3.99V9.5m13.997 0v1.488H8.012V8.012H17.987V9.5M0 16.498V19h5.003v-5.003H0v2.501m6.998 0V19H19v-5.003H6.998v2.501m-3.008.016v1.504H1.013V15.01H3.99v1.504m13.997 0v1.504H8.012V15.01H17.987v1.504" fill="currentColor" fill-rule="evenodd"/></svg>