<svg xmlns="http://www.w3.org/2000/svg" viewBox="0 0 18 16"><g fill="none" class="nc-icon-wrapper"><path fill-rule="evenodd" clip-rule="evenodd" d="M3.516 2.375a2.11 2.11 0 0 0-2.11 2.11v7.03a2.11 2.11 0 0 0 2.11 2.11h10.968a2.11 2.11 0 0 0 2.11-2.11v-7.03a2.11 2.11 0 0 0-2.11-2.11H3.516zM0 4.485A3.516 3.516 0 0 1 3.516.968h10.968A3.516 3.516 0 0 1 18 4.484v7.032a3.516 3.516 0 0 1-3.516 3.515H3.516A3.516 3.516 0 0 1 0 11.516V4.484z" fill="#002B44"></path><path fill-rule="evenodd" clip-rule="evenodd" d="M3.026 3.98a.703.703 0 0 1 .994.015L8.506 8.62c.274.27.714.27.988 0l4.486-4.626a.703.703 0 1 1 1.01.979l-4.49 4.63-.008.008A2.11 2.11 0 0 1 7.5 9.604l-4.49-4.63a.703.703 0 0 1 .015-.994z" fill="#002B44"></path><path fill-rule="evenodd" clip-rule="evenodd" d="M7.378 7.493c.28.269.289.714.02.994l-3.375 3.516a.703.703 0 0 1-1.015-.974l3.375-3.516a.703.703 0 0 1 .995-.02z" fill="#002B44"></path><path fill-rule="evenodd" clip-rule="evenodd" d="M10.622 7.493a.703.703 0 0 1 .995.02l3.375 3.516a.703.703 0 0 1-1.015.974l-3.375-3.516a.703.703 0 0 1 .02-.994z" fill="#002B44"></path></g></svg>