<svg xmlns="http://www.w3.org/2000/svg" viewBox="0 0 40 40"><g fill="none" class="nc-icon-wrapper"><path d="M40 20.5C40 30.716 31.782 39 21.65 39 11.516 39 3.3 30.716 3.3 20.5c0-.166.055-.331.11-.442L1.602 21.88a1.006 1.006 0 0 1-.657.277c-.219 0-.493-.111-.657-.277-.384-.386-.384-.993 0-1.325l3.341-3.369c.11-.11.219-.166.329-.22.274-.111.602-.111.876.11.055.055.11.055.164.11l3.342 3.37c.383.386.383.993 0 1.325a1.006 1.006 0 0 1-.658.276c-.218 0-.492-.11-.657-.276l-1.807-1.823c.054.11.11.276.11.442 0 9.168 7.394 16.623 16.487 16.623 9.092 0 16.487-7.456 16.487-16.623 0-9.167-7.395-16.622-16.487-16.622-4.492 0-8.655 1.767-11.777 5.025-.384.387-.986.387-1.315 0-.383-.387-.383-.994 0-1.325C12.23 3.988 16.885 2 21.87 2 31.784 2 40 10.283 40 20.5zm-18.35-9.996c-.493 0-.931.442-.931.939v1.988h-.439c-2.19 0-3.944 1.767-3.944 3.976s1.754 3.976 3.944 3.976h2.74c1.15 0 2.08.94 2.08 2.099 0 1.16-.93 2.099-2.08 2.099h-4.985c-.493 0-.931.441-.931.938 0 .497.438.94.93.94h2.63v1.987c0 .497.438.939.931.939.493 0 .931-.442.931-.939v-1.988h.438c2.19 0 3.944-1.767 3.944-3.976s-1.753-3.976-3.944-3.976h-2.739a2.09 2.09 0 0 1-2.081-2.099 2.09 2.09 0 0 1 2.081-2.098H25.1c.493 0 .931-.442.931-.94 0-.496-.438-.938-.93-.938h-2.52v-1.988c.055-.497-.384-.939-.931-.939z" fill="currentColor"></path></g></svg>