<svg xmlns="http://www.w3.org/2000/svg" viewBox="0 0 22 24"><g fill="none" class="nc-icon-wrapper"><path fill-rule="evenodd" clip-rule="evenodd" d="M3.5 11.25a.938.938 0 0 0-.938.938v3.374a.938.938 0 0 0 1.876 0v-3.374a.938.938 0 0 0-.938-.938zm-2.813.938a2.813 2.813 0 0 1 5.625 0v3.374a2.813 2.813 0 0 1-5.625 0v-3.374z" fill="#002B44"></path><path fill-rule="evenodd" clip-rule="evenodd" d="M18.5 11.25a.938.938 0 0 0-.938.938v3.374a.938.938 0 0 0 1.875 0v-3.374a.938.938 0 0 0-.937-.938zm-2.813.938a2.813 2.813 0 0 1 5.626 0v3.374a2.813 2.813 0 0 1-5.625 0v-3.374z" fill="#002B44"></path><path fill-rule="evenodd" clip-rule="evenodd" d="M11 1.875a8.438 8.438 0 0 0-8.438 8.438v1.874a.937.937 0 1 1-1.874 0v-1.874C.688 4.617 5.304 0 11 0c5.695 0 10.313 4.617 10.313 10.313v1.874a.937.937 0 1 1-1.875 0v-1.874A8.438 8.438 0 0 0 11 1.874z" fill="#002B44"></path><path fill-rule="evenodd" clip-rule="evenodd" d="M20.375 14.625c.518 0 .938.42.938.938v1.874a4.688 4.688 0 0 1-4.688 4.688h-3.75a.937.937 0 1 1 0-1.875h3.75a2.813 2.813 0 0 0 2.813-2.813v-1.875c0-.517.42-.937.937-.937z" fill="#002B44"></path><path fill-rule="evenodd" clip-rule="evenodd" d="M11 20.25a.937.937 0 1 0 0 1.875.937.937 0 0 0 0-1.875zm-2.813.938a2.813 2.813 0 1 1 5.626 0 2.813 2.813 0 0 1-5.626 0z" fill="#002B44"></path></g></svg>