<svg xmlns="http://www.w3.org/2000/svg" viewBox="0 0 16 16"><path d="M7.533 3.053c-1.299.148-2.475.601-3.448 1.326-1.217.909-2.117 2.211-2.704 3.914-.17.492-.408 1.491-.365 1.531.009.009 1.233.168 1.407.184.059.005.066-.011.124-.291.117-.56.294-1.103.539-1.65.689-1.539 1.791-2.635 3.161-3.145 1.437-.534 3.339-.503 4.697.078 1.546.66 2.643 1.96 3.295 3.902.066.197.198.722.239.949.016.087.032.16.035.163.009.008 1.471-.179 1.482-.189.016-.013-.076-.473-.168-.838a9.25 9.25 0 0 0-1.288-2.894 7.158 7.158 0 0 0-.986-1.163c-1.036-1.003-2.277-1.606-3.787-1.839-.476-.073-1.738-.095-2.233-.038m.437 3.84c-1.262.239-2.242 1.274-2.438 2.574a3.116 3.116 0 0 0 1.194 2.934c1.037.782 2.478.794 3.504.031a3.098 3.098 0 0 0 1.191-1.79c.05-.197.058-.3.057-.735-.001-.467-.007-.528-.074-.774a3.844 3.844 0 0 0-.444-.973 3.145 3.145 0 0 0-1.721-1.216c-.335-.088-.946-.112-1.269-.051M9 8.475c.476.174.854.614.961 1.118.228 1.074-.708 2.057-1.748 1.836a1.375 1.375 0 0 1-.749-.413 1.467 1.467 0 0 1-.411-.697c-.051-.19-.05-.586.001-.787a1.54 1.54 0 0 1 .998-1.072c.151-.053.216-.06.481-.052.232.007.346.023.467.067" fill="currentColor" fill-rule="evenodd"/></svg>