<svg xmlns="http://www.w3.org/2000/svg" viewBox="0 0 16 16"><g fill="none" class="nc-icon-wrapper"><path d="M2.15625 6.59375H2.1875C2.10417 6.84375 1.92708 6.97917 1.65625 7C1.30208 6.95833 1.14583 6.77083 1.1875 6.4375C1.5625 4.85417 2.375 3.5625 3.625 2.5625C4.85417 1.5625 6.3125 1.04167 8 1C9.29167 1.02083 10.4583 1.33333 11.5 1.9375C12.5417 2.54167 13.375 3.36458 14 4.40625V2.5C14.0208 2.1875 14.1875 2.02083 14.5 2C14.8125 2.02083 14.9792 2.1875 15 2.5V5.5C14.9792 5.8125 14.8125 5.97917 14.5 6H14.0312H11.5C11.1875 5.97917 11.0208 5.8125 11 5.5C11.0208 5.1875 11.1875 5.02083 11.5 5H13.1875C12.6667 4.08333 11.9479 3.35417 11.0312 2.8125C10.1354 2.29167 9.125 2.02083 8 2C6.5625 2.02083 5.3125 2.45833 4.25 3.3125C3.20833 4.14583 2.51042 5.23958 2.15625 6.59375ZM13.8438 9.4375V9.40625C13.9062 9.15625 14.0729 9.02083 14.3438 9C14.6979 9.04167 14.8542 9.22917 14.8125 9.5625C14.4375 11.1458 13.6354 12.4375 12.4062 13.4375C11.1562 14.4375 9.6875 14.9583 8 15C6.70833 14.9792 5.54167 14.6667 4.5 14.0625C3.45833 13.4583 2.625 12.6458 2 11.625V13.5C1.97917 13.8125 1.8125 13.9792 1.5 14C1.20833 13.9792 1.04167 13.8125 1 13.5V10.5C1.04167 10.1875 1.20833 10.0208 1.5 10H1.96875H4.5C4.8125 10.0208 4.97917 10.1875 5 10.5C4.97917 10.8125 4.8125 10.9792 4.5 11H2.8125C3.33333 11.9167 4.05208 12.6458 4.96875 13.1875C5.86458 13.7083 6.875 13.9792 8 14C9.4375 13.9792 10.6875 13.5417 11.75 12.6875C12.7917 11.8542 13.4896 10.7708 13.8438 9.4375Z" fill="currentColor"></path></g></svg>