<svg xmlns="http://www.w3.org/2000/svg" viewBox="0 0 40 40"><g fill="none" class="nc-icon-wrapper"><path d="M32.702 26.304c-.977 0-1.906.383-2.606 1.075-.7.7-1.092 1.613-1.092 2.59 0 .978.383 1.89 1.092 2.59a3.708 3.708 0 0 0 2.606 1.076c2.004 0 3.633-1.646 3.633-3.666s-1.63-3.665-3.633-3.665zm0 5.702c-1.124 0-2.069-.929-2.069-2.037 0-1.107.945-2.036 2.07-2.036 1.107 0 2.003.912 2.003 2.036s-.896 2.037-2.004 2.037zm.945-17.911a.791.791 0 0 0-.546-.212h-4.178a.817.817 0 0 0-.815.815v6.678c0 .448.367.815.815.815h6.63a.817.817 0 0 0 .814-.815v-4.471a.815.815 0 0 0-.268-.603l-2.452-2.207zm1.091 6.467h-5v-5.058h3.045l1.955 1.76v3.298zm-21.926 5.742c-.977 0-1.906.383-2.606 1.075-.7.7-1.092 1.613-1.092 2.59 0 .978.383 1.89 1.092 2.59a3.708 3.708 0 0 0 2.606 1.076c2.004 0 3.633-1.646 3.633-3.666s-1.63-3.665-3.633-3.665zm0 5.702c-1.124 0-2.069-.929-2.069-2.037 0-1.107.945-2.036 2.07-2.036 1.107 0 2.003.912 2.003 2.036s-.896 2.037-2.004 2.037zm-5.433-4.7H5.742v-2.167a.817.817 0 0 0-.814-.814.817.817 0 0 0-.815.814v2.982c0 .447.367.814.815.814h2.451a.817.817 0 0 0 .815-.814.817.817 0 0 0-.815-.815zm4.13-4.439a.817.817 0 0 0-.815-.815H.814a.817.817 0 0 0-.814.815c0 .448.367.814.814.814h9.88a.812.812 0 0 0 .815-.814zm-9.041-2.94l9.88.057a.822.822 0 0 0 .822-.807.807.807 0 0 0-.806-.822l-9.88-.057h-.008a.81.81 0 0 0-.814.806.807.807 0 0 0 .806.823zm1.662-3.698h9.88a.817.817 0 0 0 .814-.815.817.817 0 0 0-.815-.814H4.13a.817.817 0 0 0-.814.814c0 .448.367.815.815.815zm35.569-1.1l-5.832-4.83a.802.802 0 0 0-.521-.187h-6.858V7.18a.817.817 0 0 0-.815-.815H4.928a.817.817 0 0 0-.815.815v5.962c0 .448.367.814.815.814a.817.817 0 0 0 .814-.814V7.994h19.125v19.312h-6.68a.817.817 0 0 0-.814.814c0 .448.367.815.815.815h9.945a.817.817 0 0 0 .814-.814.817.817 0 0 0-.814-.815h-1.637V11.741h6.564l5.311 4.398-.057 11.15h-.847a.817.817 0 0 0-.815.815c0 .448.367.815.815.815h1.653a.81.81 0 0 0 .815-.807L40 15.765a.86.86 0 0 0-.301-.636z" fill="currentColor"></path></g></svg>