<svg xmlns="http://www.w3.org/2000/svg" width="160" height="50" viewBox="0 0 160 50" fill="none"><g clip-path="url(#clip0_55_478)"><path d="M151.504 23.1075C151.504 22.5942 151.72 22.1599 152.152 21.8045C152.583 21.4492 153.191 21.2715 153.976 21.2715C154.673 21.2715 155.36 21.4097 156.037 21.6762C156.713 21.9427 157.41 22.3375 158.097 22.8508L159.529 20.8174C158.744 20.1857 157.91 19.7119 157.018 19.3862C156.125 19.0604 155.124 18.8926 154.006 18.8926C153.25 18.8926 152.554 19.0012 151.926 19.2085C151.288 19.4158 150.749 19.7218 150.288 20.1166C149.836 20.5115 149.483 20.9852 149.218 21.5281C148.963 22.071 148.826 22.683 148.826 23.3542C148.826 24.0649 148.934 24.6769 149.159 25.1705C149.385 25.664 149.719 26.0884 150.14 26.4438C150.572 26.7893 151.102 27.0854 151.73 27.3223C152.367 27.5592 153.084 27.7665 153.898 27.954C154.604 28.1317 155.183 28.2995 155.634 28.4574C156.076 28.6154 156.429 28.793 156.684 28.9707C156.939 29.1484 157.116 29.3557 157.204 29.5728C157.302 29.79 157.341 30.0367 157.341 30.3131C157.341 30.9152 157.096 31.389 156.615 31.7345C156.135 32.08 155.477 32.2577 154.643 32.2577C153.692 32.2577 152.829 32.0899 152.083 31.7444C151.327 31.3989 150.582 30.9054 149.846 30.2638L148.237 32.1886C149.15 33.0177 150.14 33.6396 151.22 34.0344C152.289 34.4391 153.417 34.6365 154.585 34.6365C155.379 34.6365 156.115 34.5378 156.782 34.3305C157.449 34.1232 158.018 33.8271 158.489 33.4323C158.96 33.0375 159.333 32.5538 159.598 31.9912C159.863 31.4187 160 30.7771 160 30.0466C160 29.405 159.892 28.8424 159.686 28.3686C159.48 27.8948 159.166 27.4802 158.754 27.1249C158.352 26.7695 157.832 26.4635 157.214 26.2168C156.596 25.97 155.889 25.743 155.095 25.5357C154.369 25.358 153.77 25.1902 153.29 25.0323C152.819 24.8743 152.446 24.6967 152.181 24.5091C151.916 24.3216 151.73 24.1143 151.632 23.8971C151.553 23.6701 151.504 23.4135 151.504 23.1075ZM135.454 23.1075C135.454 22.5942 135.67 22.1599 136.102 21.8045C136.533 21.4492 137.141 21.2715 137.926 21.2715C138.623 21.2715 139.31 21.4097 139.987 21.6762C140.663 21.9427 141.36 22.3375 142.047 22.8508L143.479 20.8174C142.694 20.1857 141.86 19.7119 140.968 19.3862C140.075 19.0604 139.074 18.8926 137.956 18.8926C137.2 18.8926 136.504 19.0012 135.876 19.2085C135.238 19.4158 134.699 19.7218 134.238 20.1166C133.786 20.5115 133.433 20.9852 133.168 21.5281C132.913 22.071 132.776 22.683 132.776 23.3542C132.776 24.0649 132.884 24.6769 133.109 25.1705C133.335 25.664 133.669 26.0884 134.09 26.4438C134.522 26.7893 135.052 27.0854 135.68 27.3223C136.317 27.5592 137.034 27.7665 137.848 27.954C138.554 28.1317 139.133 28.2995 139.584 28.4574C140.026 28.6154 140.379 28.793 140.634 28.9707C140.889 29.1484 141.066 29.3557 141.154 29.5728C141.252 29.79 141.291 30.0367 141.291 30.3131C141.291 30.9152 141.046 31.389 140.565 31.7345C140.085 32.08 139.427 32.2577 138.593 32.2577C137.642 32.2577 136.778 32.0899 136.033 31.7444C135.277 31.3989 134.532 30.9054 133.796 30.2638L132.187 32.1886C133.1 33.0177 134.09 33.6396 135.17 34.0344C136.239 34.4391 137.367 34.6365 138.535 34.6365C139.329 34.6365 140.065 34.5378 140.732 34.3305C141.399 34.1232 141.968 33.8271 142.439 33.4323C142.91 33.0375 143.283 32.5538 143.548 31.9912C143.813 31.4187 143.95 30.7771 143.95 30.0466C143.95 29.405 143.842 28.8424 143.636 28.3686C143.43 27.8948 143.116 27.4802 142.704 27.1249C142.302 26.7695 141.782 26.4635 141.164 26.2168C140.546 25.97 139.839 25.743 139.045 25.5357C138.319 25.358 137.72 25.1902 137.24 25.0323C136.769 24.8743 136.396 24.6967 136.131 24.5091C135.866 24.3216 135.68 24.1143 135.582 23.8971C135.503 23.6701 135.454 23.4135 135.454 23.1075ZM127.557 19.0999H116.294V34.4095H127.664V31.9813H118.943V27.8948H126.576V25.4666H118.943V21.5281H127.547V19.0999H127.557ZM111.134 31.9615L109.417 30.2144C108.769 30.8264 108.102 31.3101 107.435 31.6654C106.768 32.0208 105.973 32.1984 105.041 32.1984C104.315 32.1984 103.648 32.0603 103.03 31.774C102.412 31.4877 101.882 31.1028 101.431 30.5994C100.98 30.1058 100.636 29.5235 100.391 28.8621C100.146 28.2008 100.018 27.4901 100.018 26.73C100.018 25.97 100.146 25.2692 100.391 24.6078C100.636 23.9564 100.99 23.3838 101.431 22.8903C101.882 22.3968 102.412 22.0118 103.03 21.7354C103.648 21.4492 104.315 21.311 105.041 21.311C105.915 21.311 106.69 21.4887 107.367 21.8341C108.043 22.1796 108.691 22.6435 109.299 23.216L111.016 21.2221C110.653 20.8767 110.27 20.5509 109.868 20.2548C109.466 19.9587 109.024 19.7119 108.544 19.5046C108.063 19.2973 107.543 19.1295 106.964 19.0111C106.395 18.8926 105.758 18.8334 105.061 18.8334C103.903 18.8334 102.844 19.0407 101.892 19.4553C100.931 19.8699 100.107 20.4424 99.4102 21.1629C98.7136 21.8835 98.174 22.7225 97.7914 23.6898C97.4088 24.6572 97.2126 25.6837 97.2126 26.7695C97.2126 27.875 97.4088 28.9115 97.8012 29.8788C98.1936 30.8363 98.7332 31.6753 99.42 32.386C100.107 33.0967 100.921 33.6494 101.863 34.064C102.805 34.4687 103.835 34.676 104.953 34.676C105.659 34.676 106.317 34.6168 106.896 34.4885C107.484 34.3601 108.024 34.1825 108.514 33.9456C109.005 33.7087 109.466 33.4224 109.898 33.0967C110.329 32.7611 110.741 32.386 111.134 31.9615ZM93.1608 31.9615L91.444 30.2144C90.7965 30.8264 90.1294 31.3101 89.4623 31.6654C88.7952 32.0208 88.0005 32.1984 87.0685 32.1984C86.3425 32.1984 85.6754 32.0603 85.0573 31.774C84.4393 31.4877 83.9095 31.1028 83.4582 30.5994C83.0069 30.1058 82.6636 29.5235 82.4183 28.8621C82.173 28.2008 82.0455 27.4901 82.0455 26.73C82.0455 25.97 82.173 25.2692 82.4183 24.6078C82.6636 23.9564 83.0168 23.3838 83.4582 22.8903C83.9095 22.3968 84.4393 22.0118 85.0573 21.7354C85.6754 21.4492 86.3425 21.311 87.0685 21.311C87.9416 21.311 88.7167 21.4887 89.3936 21.8341C90.0705 22.1796 90.718 22.6435 91.3263 23.216L93.0431 21.2221C92.6801 20.8767 92.2975 20.5509 91.8953 20.2548C91.493 19.9587 91.0516 19.7119 90.5709 19.5046C90.0901 19.2973 89.5702 19.1295 88.9914 19.0111C88.4224 18.8926 87.7847 18.8334 87.0881 18.8334C85.9305 18.8334 84.8709 19.0407 83.9193 19.4553C82.9579 19.8699 82.1338 20.4424 81.4373 21.1629C80.7407 21.8835 80.2011 22.7225 79.8185 23.6898C79.4359 24.6572 79.2397 25.6837 79.2397 26.7695C79.2397 27.875 79.4359 28.9115 79.8283 29.8788C80.2208 30.8363 80.7603 31.6753 81.4471 32.386C82.1338 33.0967 82.9481 33.6494 83.8899 34.064C84.8317 34.4687 85.8618 34.676 86.9802 34.676C87.6866 34.676 88.3341 34.6168 88.9227 34.4885C89.5113 34.3601 90.0509 34.1825 90.5414 33.9456C91.032 33.7087 91.4931 33.4224 91.9247 33.0967C92.3662 32.7611 92.7782 32.386 93.1608 31.9615ZM71.2441 19.0999V27.9145C71.2441 29.326 70.9007 30.3921 70.214 31.1127C69.5273 31.8234 68.5953 32.1886 67.3984 32.1886C66.1917 32.1886 65.2401 31.8135 64.5533 31.0732C63.8666 30.3329 63.5232 29.2471 63.5232 27.8158V19.1098H60.8744V27.9244C60.8744 29.0299 61.0314 30.0071 61.3355 30.8461C61.6396 31.6852 62.0713 32.386 62.6403 32.9585C63.2093 33.531 63.8862 33.9554 64.6809 34.2417C65.4755 34.5279 66.3683 34.6661 67.3591 34.6661C68.3598 34.6661 69.2624 34.5279 70.0668 34.2417C70.8713 33.9554 71.5581 33.531 72.1173 32.9486C72.6863 32.3761 73.1179 31.6556 73.4319 30.7968C73.7458 29.938 73.9028 28.9411 73.9028 27.7961V19.0999H71.2441ZM47.0808 23.1075C47.0808 22.5942 47.2966 22.1599 47.7283 21.8045C48.1599 21.4492 48.7682 21.2715 49.553 21.2715C50.2496 21.2715 50.9363 21.4097 51.6132 21.6762C52.2902 21.9427 52.9867 22.3375 53.6735 22.8508L55.1058 20.8174C54.3209 20.1857 53.4871 19.7119 52.5943 19.3862C51.7015 19.0604 50.7009 18.8926 49.5825 18.8926C48.827 18.8926 48.1305 19.0012 47.5026 19.2085C46.8649 19.4158 46.3254 19.7218 45.8643 20.1166C45.413 20.5115 45.0598 20.9852 44.7949 21.5281C44.5398 22.071 44.4025 22.683 44.4025 23.3542C44.4025 24.0649 44.5104 24.6769 44.7361 25.1705C44.9617 25.664 45.2953 26.0884 45.7171 26.4438C46.1488 26.7893 46.6785 27.0854 47.3064 27.3223C47.9441 27.5592 48.6603 27.7665 49.4745 27.954C50.1809 28.1317 50.7597 28.2995 51.211 28.4574C51.6525 28.6154 52.0057 28.793 52.2607 28.9707C52.5158 29.1484 52.6924 29.3557 52.7807 29.5728C52.8788 29.79 52.918 30.0367 52.918 30.3131C52.918 30.9152 52.6728 31.389 52.1921 31.7345C51.7113 32.08 51.054 32.2577 50.2201 32.2577C49.2587 32.2577 48.4052 32.0899 47.6596 31.7444C46.9042 31.3989 46.1586 30.9054 45.4228 30.2638L43.8433 32.1787C44.7557 33.0078 45.7465 33.6297 46.8257 34.0245C47.8951 34.4292 49.0233 34.6267 50.1907 34.6267C50.9854 34.6267 51.7212 34.5279 52.3883 34.3207C53.0554 34.1134 53.6244 33.8173 54.0953 33.4224C54.5662 33.0276 54.939 32.5439 55.2039 31.9813C55.4688 31.4088 55.6061 30.7672 55.6061 30.0367C55.6061 29.3951 55.4982 28.8325 55.2922 28.3587C55.0862 27.8849 54.7722 27.4703 54.3602 27.115C53.958 26.7596 53.438 26.4537 52.8199 26.2069C52.2019 25.9601 51.4955 25.7331 50.7009 25.5258C49.9749 25.3481 49.3764 25.1803 48.8957 25.0224C48.4248 24.8645 48.052 24.6868 47.7871 24.4992C47.5222 24.3117 47.3358 24.1044 47.2377 23.8873C47.1298 23.6701 47.0808 23.4135 47.0808 23.1075Z" fill="black"></path><path d="M126.88 39.7989H123.083V44.9712H126.919V44.152H123.976V42.77H126.556V41.9508H123.976V40.6182H126.88V39.7989ZM117.903 41.4868C117.903 41.7534 117.805 41.9705 117.618 42.1284C117.432 42.2864 117.167 42.3653 116.843 42.3653H115.519V40.6182H116.834C117.177 40.6182 117.432 40.6873 117.618 40.8354C117.815 40.9834 117.903 41.2006 117.903 41.4868ZM118.982 44.9614L117.599 43.0069C117.775 42.9576 117.942 42.8885 118.089 42.7997C118.237 42.7108 118.364 42.6022 118.472 42.4641C118.58 42.3357 118.668 42.1877 118.727 42.01C118.786 41.8422 118.815 41.6448 118.815 41.4276C118.815 41.1809 118.776 40.944 118.688 40.7465C118.6 40.5393 118.472 40.3715 118.305 40.2333C118.138 40.0951 117.942 39.9865 117.707 39.9075C117.471 39.8286 117.206 39.7891 116.912 39.7891H114.626V44.9614H115.519V43.155H116.657L117.923 44.9614H118.982ZM110.359 39.7989H106.552V44.9712H110.388V44.152H107.445V42.77H110.025V41.9508H107.445V40.6182H110.349V39.7989H110.359ZM101.186 42.7898V44.9712H102.079V39.7989H101.186V41.9508H98.7234V39.7989H97.8208V44.9712H98.7136V42.7898H101.186ZM90.2569 43.3722L87.51 39.7989H86.6761V44.9712H87.5688V41.2894L90.3943 44.9712H91.1497V39.7989H90.2569V43.3722ZM80.8388 42.9082H79.0729L79.9559 40.8452L80.8388 42.9082ZM80.3777 39.7595H79.5438L77.2874 44.9614H78.2096L78.7394 43.7176H81.1724L81.6923 44.9614H82.6439L80.3777 39.7595ZM73.4024 44.2507V42.0791H71.2147V42.8688H72.5293V43.8361C72.3723 43.9545 72.1859 44.0533 71.9799 44.1223C71.7641 44.1914 71.5384 44.2309 71.2932 44.2309C71.0283 44.2309 70.7928 44.1816 70.577 44.0927C70.3612 44.0039 70.1846 43.8657 70.0276 43.7078C69.8706 43.54 69.7529 43.3426 69.6744 43.1155C69.5959 42.8885 69.5469 42.6417 69.5469 42.3752C69.5469 42.1284 69.5861 41.8916 69.6744 41.6645C69.7627 41.4375 69.8804 41.25 70.0276 41.0821C70.1748 40.9143 70.3514 40.786 70.5574 40.6873C70.7634 40.5886 70.9792 40.5393 71.2147 40.5393C71.3716 40.5393 71.5286 40.5491 71.6561 40.5787C71.7935 40.6084 71.9112 40.638 72.029 40.6873C72.1369 40.7367 72.2448 40.7959 72.3527 40.865C72.4606 40.9341 72.5587 41.0131 72.6568 41.092L73.2258 40.4011C73.0983 40.2925 72.9609 40.1839 72.8138 40.1049C72.6764 40.0161 72.5293 39.947 72.3723 39.8878C72.2153 39.8286 72.0486 39.7792 71.8622 39.7496C71.6758 39.72 71.4698 39.7002 71.2539 39.7002C70.8713 39.7002 70.5083 39.7693 70.1846 39.9174C69.8608 40.0556 69.5763 40.253 69.3409 40.4998C69.1054 40.7465 68.919 41.0229 68.7915 41.3487C68.6639 41.6744 68.5953 42.0199 68.5953 42.3851C68.5953 42.7602 68.6639 43.1155 68.7817 43.4413C68.9092 43.767 69.0858 44.0434 69.3212 44.2902C69.5567 44.527 69.8314 44.7146 70.1649 44.8528C70.4887 44.991 70.8615 45.0601 71.2539 45.0601C71.4796 45.0601 71.6954 45.0403 71.9014 45.0008C72.1074 44.9614 72.2938 44.9021 72.4802 44.8232C72.6568 44.7541 72.8236 44.6652 72.9806 44.5665C73.1277 44.458 73.2749 44.3592 73.4024 44.2507ZM63.6311 42.3851C63.6311 42.6319 63.5919 42.8688 63.5036 43.0958C63.4153 43.3228 63.2976 43.5104 63.1504 43.6782C63.0033 43.846 62.8169 43.9743 62.601 44.073C62.3852 44.1717 62.1596 44.2211 61.9045 44.2211C61.6494 44.2211 61.414 44.1717 61.1981 44.073C60.9823 43.9743 60.7959 43.846 60.6487 43.6782C60.4918 43.5104 60.374 43.3129 60.2857 43.0958C60.1975 42.8688 60.1582 42.6319 60.1582 42.3851C60.1582 42.1383 60.1975 41.8916 60.2857 41.6744C60.374 41.4474 60.4918 41.2598 60.6389 41.092C60.7861 40.9242 60.9725 40.7959 61.1883 40.6972C61.4041 40.5985 61.6298 40.5491 61.8849 40.5491C62.1399 40.5491 62.3754 40.5985 62.5912 40.6972C62.8071 40.7959 62.9935 40.9242 63.1406 41.092C63.2976 41.2598 63.4153 41.4572 63.5036 41.6744C63.5821 41.9014 63.6311 42.1383 63.6311 42.3851ZM64.5729 42.3752C64.5729 42.01 64.5043 41.6645 64.3767 41.3388C64.2492 41.0131 64.0628 40.7268 63.8273 40.4899C63.5919 40.253 63.3074 40.0556 62.9836 39.9174C62.6599 39.7792 62.2969 39.7101 61.8947 39.7101C61.5022 39.7101 61.1393 39.7792 60.8057 39.9273C60.482 40.0655 60.1974 40.2629 59.9522 40.5096C59.7167 40.7564 59.5303 41.0328 59.393 41.3585C59.2654 41.6843 59.1968 42.0297 59.1968 42.395C59.1968 42.7602 59.2654 43.1057 59.393 43.4314C59.5205 43.7571 59.7069 44.0434 59.9424 44.2803C60.1778 44.5172 60.4623 44.7146 60.7861 44.8528C61.1098 44.991 61.4728 45.0601 61.875 45.0601C62.2675 45.0601 62.6305 44.991 62.964 44.8429C63.2878 44.7047 63.5723 44.5073 63.8175 44.2605C64.053 44.0138 64.2394 43.7374 64.3767 43.4116C64.5043 43.0859 64.5729 42.7404 64.5729 42.3752ZM52.0351 44.9614H55.6356V44.1421H52.9377V39.7891H52.0449V44.9614H52.0351ZM44.9421 41.1512C44.9421 40.9834 45.0107 40.8354 45.1579 40.7071C45.3051 40.5886 45.5111 40.5294 45.776 40.5294C46.0114 40.5294 46.2469 40.5787 46.4725 40.6676C46.6982 40.7564 46.9336 40.8946 47.1691 41.0624L47.6498 40.3715C47.3849 40.1642 47.1004 39.9964 46.8061 39.8878C46.5019 39.7792 46.1684 39.72 45.7858 39.72C45.5307 39.72 45.2952 39.7595 45.0794 39.8286C44.8636 39.8977 44.6772 40.0062 44.53 40.1346C44.3731 40.2629 44.2553 40.4307 44.167 40.6084C44.0787 40.7959 44.0395 41.0032 44.0395 41.2203C44.0395 41.4572 44.0787 41.6645 44.1572 41.8323C44.2357 42.0001 44.3436 42.1383 44.4908 42.2568C44.6379 42.3752 44.8145 42.4739 45.0304 42.5529C45.2462 42.6319 45.4915 42.701 45.7662 42.77C46.0016 42.8293 46.1978 42.8885 46.3548 42.9379C46.5019 42.9872 46.6197 43.0464 46.708 43.1155C46.7963 43.1748 46.8551 43.2438 46.8846 43.3228C46.914 43.3919 46.9336 43.4807 46.9336 43.5696C46.9336 43.767 46.8551 43.9348 46.6883 44.0532C46.5216 44.1717 46.3057 44.2309 46.0212 44.2309C45.6975 44.2309 45.413 44.1717 45.1579 44.0532C44.9028 43.9348 44.6478 43.767 44.4025 43.5498L43.8629 44.2013C44.167 44.4777 44.5104 44.685 44.8636 44.8232C45.2266 44.9614 45.6092 45.0305 46.0016 45.0305C46.2665 45.0305 46.5216 44.991 46.7472 44.9318C46.9729 44.8627 47.1691 44.7639 47.326 44.6258C47.483 44.4974 47.6105 44.3296 47.6988 44.1421C47.7871 43.9545 47.8362 43.7275 47.8362 43.4807C47.8362 43.2636 47.7969 43.076 47.7283 42.9181C47.6596 42.7602 47.5517 42.622 47.4143 42.4937C47.277 42.3752 47.1004 42.2666 46.8944 42.1877C46.6883 42.1087 46.4431 42.0297 46.1782 41.9606C45.9329 41.9014 45.7269 41.8422 45.5699 41.7928C45.413 41.7435 45.2854 41.6843 45.1971 41.6152C45.1089 41.5559 45.0402 41.4868 45.0107 41.4079C44.9519 41.3388 44.9421 41.25 44.9421 41.1512Z" fill="black"></path><path d="M29.7161 14.283C32.1884 17.3133 32.7672 21.4788 31.2171 25.0816C36.3873 19.0407 39.8602 13.4539 41.6261 8.32106C41.734 8.0052 41.6065 7.66959 41.3318 7.50179C41.0473 7.33398 40.6941 7.38334 40.4684 7.63011C36.9955 11.4994 33.4049 13.7204 29.7161 14.283ZM26.7533 0C29.9908 0 32.62 2.64537 32.62 5.90272C32.62 9.16008 29.9908 11.8054 26.7533 11.8054C23.5158 11.8054 20.8866 9.16008 20.8866 5.90272C20.8866 2.64537 23.5158 0 26.7533 0ZM16.57 8.71589C14.1762 8.71589 12.2337 6.76148 12.2337 4.35301C12.2337 6.76148 10.2912 8.71589 7.89748 8.71589C10.2912 8.71589 12.2337 10.6703 12.2337 13.0788C12.2337 10.6703 14.1762 8.71589 16.57 8.71589ZM6.55343 13.4539C4.7483 13.4539 3.27672 11.9831 3.27672 10.157C3.27672 11.9732 1.81495 13.4539 0 13.4539C1.80514 13.4539 3.27672 14.9246 3.27672 16.7507C3.28653 14.9246 4.7483 13.4539 6.55343 13.4539ZM18.0612 21.6269C23.1725 26.6215 13.8525 41.3487 1.61874 48.7123C1.31461 48.8899 1.19688 49.2749 1.34404 49.6006C1.4912 49.9165 1.85419 50.0744 2.18775 49.9658C18.9638 44.3691 32.571 28.3291 27.6657 17.0073C24.026 9.24891 11.39 15.7932 4.90527 21.617C4.64038 21.8539 4.60114 22.2487 4.80716 22.535C5.01318 22.8212 5.39579 22.9101 5.69992 22.7324C10.4973 19.9982 15.4123 19.1789 18.0612 21.6269Z" fill="black"></path></g><defs><clipPath id="clip0_55_478"><rect width="160" height="50" fill="white"></rect></clipPath></defs></svg>