<svg xmlns="http://www.w3.org/2000/svg" width="160" height="50" viewBox="0 0 160 50" fill="none"><path d="M40.912 17.0884V32.7719L25.2285 17.0884H40.912Z" fill="black"></path><path d="M24.9558 1V17.0589L24.9264 17.0883L9 33.0074V1H24.9558Z" fill="black"></path><path d="M40.9117 33.0442V33.0957L25.0074 49H9V33.0442H40.9117Z" fill="black"></path><path d="M49.566 7.32935H55.8879C56.5798 7.32935 57.2348 7.43974 57.8309 7.65317C58.4344 7.87396 58.9496 8.16099 59.3838 8.52162C59.818 8.88224 60.1566 9.30911 60.4068 9.79485C60.6497 10.2806 60.7748 10.781 60.7748 11.3036C60.7748 12.1573 60.5687 12.8712 60.1566 13.4305C59.7444 13.9899 59.2513 14.4167 58.692 14.6891V14.9098C59.5163 15.2116 60.1639 15.6753 60.635 16.3008C61.106 16.9264 61.3415 17.6918 61.3415 18.6044C61.3415 19.2741 61.209 19.8703 60.9367 20.4002C60.6718 20.9301 60.2964 21.379 59.8254 21.747C59.3544 22.115 58.795 22.402 58.1547 22.5934C57.5071 22.7921 56.8079 22.8878 56.0572 22.8878H49.5586V7.32935H49.566ZM55.5568 13.4968C56.1676 13.4968 56.6386 13.3569 56.9698 13.0846C57.301 12.8123 57.4703 12.4149 57.4703 11.9144C57.4703 11.4066 57.301 11.0166 56.9698 10.7442C56.6386 10.4719 56.197 10.3321 55.6451 10.3321H52.9514V13.5041H55.5568V13.4968ZM55.8438 19.8408C57.2495 19.8408 57.9487 19.2594 57.9487 18.104C57.9487 16.9485 57.22 16.3671 55.7555 16.3671H52.9514V19.8408H55.8438Z" fill="black"></path><path d="M70.5935 21.5336H70.3727C69.6514 22.667 68.5622 23.2264 67.1123 23.2264C65.7802 23.2264 64.7867 22.7995 64.139 21.9458C63.484 21.092 63.1602 19.966 63.1602 18.575V12.231H66.4205V18.207C66.4205 18.7885 66.5603 19.2595 66.8326 19.6275C67.105 19.9954 67.5318 20.1794 68.1132 20.1794C68.8492 20.1794 69.4159 19.8998 69.7986 19.3331C70.1813 18.7664 70.3727 18.0304 70.3727 17.1178V12.231H73.633V22.8804H70.5935V21.5336Z" fill="black"></path><path d="M77.8716 11.2373C77.5846 11.2373 77.3123 11.1858 77.0694 11.0754C76.8266 10.965 76.6058 10.8252 76.4291 10.6412C76.2452 10.4572 76.1053 10.2438 75.9949 10.0009C75.8845 9.75805 75.833 9.48574 75.833 9.19871C75.833 8.9264 75.8845 8.66145 75.9949 8.40386C76.1053 8.15363 76.2452 7.93284 76.4291 7.74885C76.6131 7.56485 76.8266 7.42502 77.0694 7.31462C77.3123 7.20423 77.5846 7.15271 77.8716 7.15271C78.144 7.15271 78.4089 7.20423 78.6665 7.31462C78.9167 7.42502 79.1375 7.56485 79.3215 7.74885C79.5055 7.93284 79.6453 8.14627 79.7557 8.40386C79.8661 8.65409 79.9176 8.91904 79.9176 9.19871C79.9176 9.48574 79.8661 9.75805 79.7557 10.0009C79.6453 10.2438 79.5055 10.4646 79.3215 10.6412C79.1375 10.8252 78.9241 10.965 78.6665 11.0754C78.4089 11.1858 78.1513 11.2373 77.8716 11.2373ZM76.2452 22.8804V12.2383H79.5055V22.8878H76.2452V22.8804Z" fill="black"></path><path d="M82.1113 22.8804V7.32935H85.3717V22.8878H82.1113V22.8804Z" fill="black"></path><path d="M95.5133 21.7102H95.2925C95.0497 22.1297 94.667 22.4903 94.1518 22.7847C93.6366 23.0791 92.9889 23.2337 92.2088 23.2337C91.5244 23.2337 90.8767 23.0938 90.2511 22.8215C89.6256 22.5492 89.0809 22.1592 88.6099 21.6587C88.1389 21.1582 87.7636 20.5621 87.4912 19.8629C87.2189 19.1711 87.0791 18.3983 87.0791 17.5593C87.0791 16.7203 87.2189 15.9549 87.4912 15.2557C87.7636 14.5639 88.1389 13.9604 88.6099 13.46C89.0809 12.9595 89.6256 12.5695 90.2511 12.2971C90.8767 12.0248 91.5244 11.885 92.2088 11.885C92.9889 11.885 93.6366 12.0322 94.1518 12.3339C94.667 12.6283 95.0497 12.989 95.2925 13.4085H95.5133L95.2925 11.885V7.32935H98.5529V22.8878H95.5133V21.7102ZM92.9301 20.1868C93.276 20.1868 93.6072 20.1279 93.9163 20.0028C94.2254 19.8776 94.505 19.7084 94.7406 19.4802C94.9761 19.2594 95.1674 18.9798 95.3072 18.6559C95.4471 18.3321 95.5133 17.9641 95.5133 17.5593C95.5133 17.1546 95.4471 16.7939 95.3072 16.4701C95.1674 16.1536 94.9834 15.874 94.7406 15.6458C94.505 15.4177 94.2254 15.2337 93.9163 15.1159C93.6072 14.9908 93.276 14.9319 92.9301 14.9319C92.5842 14.9319 92.253 14.9908 91.9439 15.1159C91.6348 15.241 91.3551 15.4177 91.1196 15.6458C90.8841 15.8813 90.6927 16.1536 90.5529 16.4701C90.413 16.7866 90.3468 17.1546 90.3468 17.5593C90.3468 17.9641 90.413 18.3321 90.5529 18.6559C90.6927 18.9798 90.8767 19.2594 91.1196 19.4802C91.3551 19.7084 91.6348 19.8776 91.9439 20.0028C92.253 20.1279 92.5842 20.1868 92.9301 20.1868Z" fill="black"></path><path d="M53.4964 36.4001L48.2637 28.0763H52.3483L55.0861 32.6393H55.3069L57.9122 28.0763H62.041L56.8892 36.4001V43.6347H53.4964V36.4001Z" fill="black"></path><path d="M66.0301 32.6394C66.8544 32.6394 67.6198 32.7792 68.319 33.0663C69.0181 33.3459 69.629 33.7434 70.1442 34.2365C70.6593 34.7369 71.0568 35.3331 71.3364 36.0322C71.6161 36.724 71.7633 37.4895 71.7633 38.3137C71.7633 39.138 71.6235 39.9034 71.3364 40.5952C71.0568 41.2871 70.652 41.8906 70.1442 42.391C69.629 42.8915 69.0181 43.2815 68.319 43.5612C67.6198 43.8409 66.8544 43.9881 66.0301 43.9881C65.2058 43.9881 64.4404 43.8482 63.7412 43.5612C63.042 43.2815 62.4312 42.8841 61.916 42.391C61.4008 41.8906 61.0034 41.2944 60.7237 40.5952C60.4441 39.9034 60.2969 39.138 60.2969 38.3137C60.2969 37.4895 60.4367 36.724 60.7237 36.0322C61.0034 35.3404 61.4008 34.7369 61.916 34.2365C62.4312 33.736 63.042 33.3459 63.7412 33.0663C64.4404 32.7792 65.2058 32.6394 66.0301 32.6394ZM66.0301 40.9412C66.3613 40.9412 66.6777 40.8823 66.9721 40.7572C67.2665 40.632 67.5315 40.4628 67.767 40.2346C67.9951 40.0138 68.1791 39.7342 68.3116 39.4103C68.4441 39.0865 68.5103 38.7185 68.5103 38.3137C68.5103 37.909 68.4441 37.5483 68.3116 37.2245C68.1791 36.908 68.0025 36.6284 67.767 36.4002C67.5315 36.1721 67.2739 35.9881 66.9721 35.8703C66.6777 35.7452 66.3613 35.6863 66.0301 35.6863C65.6989 35.6863 65.3824 35.7452 65.088 35.8703C64.7937 35.9954 64.5287 36.1721 64.2932 36.4002C64.0577 36.6357 63.8811 36.908 63.7486 37.2245C63.6161 37.541 63.5499 37.909 63.5499 38.3137C63.5499 38.7185 63.6161 39.0865 63.7486 39.4103C63.8811 39.7342 64.0577 40.0138 64.2932 40.2346C64.5213 40.4628 64.7863 40.632 65.088 40.7572C65.3824 40.8749 65.6989 40.9412 66.0301 40.9412Z" fill="black"></path><path d="M80.3962 42.2879H80.1754C79.4542 43.4213 78.3649 43.9806 76.9151 43.9806C75.5829 43.9806 74.5894 43.5538 73.9417 42.7C73.2867 41.8463 72.9629 40.7203 72.9629 39.3293V32.9852H76.2232V38.9613C76.2232 39.5427 76.3631 40.0137 76.6354 40.3817C76.9077 40.7497 77.3346 40.9337 77.916 40.9337C78.6519 40.9337 79.2186 40.654 79.6013 40.0873C79.9841 39.5206 80.1754 38.7847 80.1754 37.8721V32.9852H83.4358V43.6347H80.3962V42.2879Z" fill="black"></path><path d="M85.4375 32.9853H88.4771V34.3321H88.6979C88.9849 33.8685 89.397 33.4711 89.9343 33.1399C90.4715 32.8087 91.0677 32.6394 91.7153 32.6394C92.1054 32.6394 92.4439 32.6909 92.7383 32.7792C93.0254 32.8749 93.2682 32.978 93.4522 33.0957L92.6059 36.0028C92.4145 35.8998 92.2158 35.8188 92.0097 35.7673C91.7963 35.7084 91.5313 35.679 91.1928 35.679C90.3832 35.679 89.765 35.9586 89.3381 36.5253C88.9113 37.092 88.6979 37.828 88.6979 38.7406V43.6274H85.4375V32.9853Z" fill="black"></path><path d="M94.667 28.0764H98.0598V34.0746H104.014V28.0764H107.407V43.6348H104.014V37.2908H98.0598V43.6348H94.667V28.0764Z" fill="black"></path><path d="M114.877 32.6394C115.701 32.6394 116.466 32.7792 117.166 33.0663C117.865 33.3459 118.476 33.7434 118.991 34.2365C119.506 34.7369 119.903 35.3331 120.183 36.0322C120.463 36.724 120.61 37.4895 120.61 38.3137C120.61 39.138 120.47 39.9034 120.183 40.5952C119.903 41.2871 119.499 41.8906 118.991 42.391C118.476 42.8915 117.865 43.2815 117.166 43.5612C116.466 43.8409 115.701 43.9881 114.877 43.9881C114.052 43.9881 113.287 43.8482 112.588 43.5612C111.889 43.2815 111.278 42.8841 110.763 42.391C110.248 41.8906 109.85 41.2944 109.57 40.5952C109.291 39.9034 109.144 39.138 109.144 38.3137C109.144 37.4895 109.283 36.724 109.57 36.0322C109.85 35.3404 110.248 34.7369 110.763 34.2365C111.278 33.736 111.889 33.3459 112.588 33.0663C113.287 32.7792 114.052 32.6394 114.877 32.6394ZM114.877 40.9412C115.208 40.9412 115.524 40.8823 115.819 40.7572C116.113 40.632 116.378 40.4628 116.614 40.2346C116.842 40.0138 117.026 39.7342 117.158 39.4103C117.291 39.0865 117.357 38.7185 117.357 38.3137C117.357 37.909 117.291 37.5483 117.158 37.2245C117.026 36.908 116.849 36.6284 116.614 36.4002C116.378 36.1721 116.121 35.9881 115.819 35.8703C115.524 35.7452 115.208 35.6863 114.877 35.6863C114.546 35.6863 114.229 35.7452 113.935 35.8703C113.64 35.9954 113.375 36.1721 113.14 36.4002C112.904 36.6357 112.728 36.908 112.595 37.2245C112.463 37.541 112.397 37.909 112.397 38.3137C112.397 38.7185 112.463 39.0865 112.595 39.4103C112.728 39.7342 112.904 40.0138 113.14 40.2346C113.368 40.4628 113.633 40.632 113.935 40.7572C114.229 40.8749 114.538 40.9412 114.877 40.9412Z" fill="black"></path><path d="M121.787 32.9853H124.826V34.3322H125.047C125.393 33.7949 125.842 33.3828 126.386 33.081C126.931 32.7866 127.571 32.6321 128.307 32.6321C129.117 32.6321 129.794 32.8234 130.331 33.2061C130.869 33.5888 131.244 34.0378 131.465 34.5456C131.781 34.0378 132.237 33.5962 132.834 33.2061C133.43 32.8234 134.173 32.6321 135.071 32.6321C135.711 32.6321 136.263 32.7351 136.742 32.9485C137.22 33.162 137.617 33.449 137.926 33.8317C138.236 34.2071 138.471 34.656 138.633 35.1785C138.795 35.7011 138.869 36.2751 138.869 36.8934V43.6275H135.608V37.5189C135.608 36.9669 135.483 36.5254 135.225 36.1795C134.975 35.8409 134.6 35.6716 134.107 35.6716C133.4 35.6716 132.863 35.9587 132.502 36.5327C132.142 37.1068 131.958 37.8722 131.958 38.8216V43.6201H128.697V37.5116C128.697 36.9596 128.565 36.518 128.293 36.1721C128.028 35.8336 127.608 35.6643 127.041 35.6643C126.372 35.6643 125.879 35.9513 125.54 36.5254C125.209 37.0994 125.04 37.8648 125.04 38.8142V43.6128H121.779V32.9853H121.787Z" fill="black"></path><path d="M151.072 41.0441C150.549 41.9567 149.865 42.6706 149.018 43.1932C148.172 43.7157 147.149 43.9733 145.942 43.9733C145.118 43.9733 144.352 43.8335 143.653 43.5464C142.954 43.2668 142.336 42.8693 141.82 42.3615C141.298 41.8537 140.893 41.2576 140.606 40.5658C140.319 39.8813 140.172 39.1233 140.172 38.299C140.172 37.5336 140.319 36.8049 140.606 36.1131C140.893 35.4287 141.298 34.8252 141.813 34.31C142.328 33.7948 142.932 33.39 143.616 33.0809C144.301 32.7792 145.051 32.6246 145.868 32.6246C146.751 32.6246 147.532 32.7718 148.201 33.0589C148.878 33.3459 149.438 33.7433 149.887 34.2438C150.336 34.7442 150.674 35.333 150.91 36.0027C151.138 36.6798 151.256 37.3937 151.256 38.1665C151.256 38.2842 151.248 38.402 151.248 38.5124C151.241 38.6302 151.234 38.7332 151.219 38.8141C151.204 38.9172 151.197 39.0129 151.197 39.0938H143.351C143.513 39.7856 143.837 40.2934 144.33 40.6173C144.823 40.9337 145.375 41.0957 145.979 41.0957C146.59 41.0957 147.09 40.9632 147.487 40.7056C147.885 40.448 148.201 40.1095 148.429 39.7047L151.072 41.0441ZM148.179 36.9006C148.15 36.724 148.084 36.54 147.973 36.3339C147.863 36.1279 147.716 35.9439 147.517 35.7819C147.318 35.6127 147.083 35.4802 146.803 35.3698C146.523 35.2594 146.207 35.2079 145.861 35.2079C145.353 35.2079 144.882 35.3551 144.448 35.6421C144.014 35.9291 143.697 36.3486 143.491 36.9006H148.179Z" fill="black"></path><path d="M104.242 12.5548C102.711 12.5548 101.46 11.311 101.46 9.77281C101.46 8.24199 102.704 6.99084 104.242 6.99084C105.773 6.99084 107.024 8.23463 107.024 9.77281C107.024 11.3036 105.773 12.5548 104.242 12.5548ZM104.242 7.5649C103.02 7.5649 102.034 8.55846 102.034 9.77281C102.034 10.9872 103.028 11.9807 104.242 11.9807C105.464 11.9807 106.45 10.9872 106.45 9.77281C106.45 8.55846 105.464 7.5649 104.242 7.5649Z" fill="black"></path><path d="M104.845 11.1417L104.271 10.2879H103.808V11.1417H103.219V8.47009H104.44C104.757 8.47009 105.007 8.55105 105.184 8.7056C105.36 8.86016 105.449 9.07359 105.449 9.35326V9.36062C105.449 9.57405 105.397 9.75068 105.294 9.89052C105.191 10.023 105.051 10.126 104.882 10.1923L105.537 11.149H104.845V11.1417ZM104.853 9.3827C104.853 9.25758 104.808 9.16191 104.727 9.09567C104.647 9.02943 104.536 8.99999 104.389 8.99999H103.808V9.7654H104.404C104.551 9.7654 104.661 9.7286 104.735 9.66236C104.816 9.59613 104.853 9.50045 104.853 9.39006V9.3827Z" fill="black"></path></svg>