<svg xmlns="http://www.w3.org/2000/svg" width="160" height="50" viewBox="0 0 160 50" fill="none"><path d="M36.4413 14.0473C38.936 14.0473 40.8645 14.8107 42.2799 16.3195C43.6777 17.8284 44.3854 20.2071 44.3854 23.4024H29.4173L29.3819 22.5858H40.316C40.3691 21.2012 40.263 19.9053 39.9799 18.7337C39.6968 17.5621 39.2545 16.6213 38.6352 15.9112C38.0337 15.2012 37.2375 14.8462 36.2821 14.8462C34.9728 14.8462 33.8228 15.503 32.832 16.7988C31.8235 18.1124 31.2219 20.1716 31.0273 23.0118L31.1512 23.1893C31.0981 23.6154 31.045 24.0769 31.0273 24.5917C30.9919 25.1065 30.9919 25.6213 30.9919 26.1183C30.9919 28.0533 31.3104 29.7041 31.9296 31.0888C32.5489 32.4734 33.3628 33.5385 34.3713 34.2663C35.3797 34.9941 36.4059 35.3491 37.4852 35.3491C38.7591 35.3491 39.9268 35.0296 41.0061 34.4083C42.0853 33.787 42.9876 32.6864 43.713 31.0888L44.5623 31.426C44.2438 32.3669 43.7484 33.2722 43.0407 34.142C42.333 35.0296 41.4484 35.7396 40.3691 36.2899C39.2899 36.8402 38.0514 37.1243 36.6359 37.1243C34.6013 37.1243 32.8497 36.6627 31.3989 35.7219C29.9481 34.7811 28.8334 33.4852 28.0549 31.8343C27.2764 30.1834 26.8872 28.2663 26.8872 26.1183C26.8872 23.6154 27.2764 21.4675 28.0726 19.6746C28.8688 17.8817 29.9834 16.4793 31.4166 15.503C32.832 14.5266 34.5128 14.0473 36.4413 14.0473Z" fill="black"></path><path d="M60.362 14.0473C61.1228 14.0473 61.7951 14.2071 62.3789 14.5089C62.9628 14.8284 63.4051 15.2189 63.7413 15.716C64.0598 16.213 64.2367 16.7811 64.2367 17.4024C64.2367 18.1124 64.0244 18.7337 63.5821 19.2663C63.1397 19.7988 62.5559 20.0828 61.8305 20.0828C61.2289 20.0828 60.7158 19.8876 60.2558 19.5148C59.7958 19.1243 59.5835 18.5917 59.5835 17.8817C59.5835 17.3491 59.725 16.8876 60.0258 16.497C60.3266 16.1065 60.6627 15.8047 61.0166 15.574C60.822 15.2899 60.5212 15.1479 60.132 15.1479C58.9465 15.1479 57.9204 15.5917 57.0357 16.4793C56.1511 17.3669 55.4788 18.4497 54.9834 19.6923C54.488 20.9349 54.2403 22.0888 54.2403 23.1361V32.1538C54.2403 33.5385 54.6472 34.4793 55.4434 34.9408C56.2395 35.4024 57.3365 35.6509 58.7342 35.6509V36.5385C58.0796 36.503 57.1596 36.4675 55.9742 36.432C54.7887 36.3965 53.5325 36.3609 52.2056 36.3609C51.2502 36.3609 50.2948 36.3787 49.3394 36.432C48.3839 36.4675 47.6762 36.503 47.1985 36.5385V35.6509C48.3663 35.6509 49.1801 35.4379 49.6755 35.0118C50.1709 34.5858 50.4186 33.7692 50.4186 32.5799V19.2663C50.4186 17.9882 50.1886 17.0473 49.7463 16.4438C49.2863 15.8402 48.437 15.5207 47.1985 15.5207V14.6331C48.1009 14.7219 48.9855 14.7574 49.8348 14.7574C50.6486 14.7574 51.4448 14.7041 52.1879 14.6154C52.931 14.5089 53.621 14.3669 54.2403 14.1716V19.497C54.5587 18.6805 55.0011 17.8462 55.5849 17.0118C56.1688 16.1775 56.8588 15.4675 57.6904 14.8994C58.4688 14.3314 59.3712 14.0473 60.362 14.0473Z" fill="black"></path><path d="M75.0647 14.0473C77.5594 14.0473 79.4879 14.8107 80.9033 16.3195C82.301 17.8284 83.0087 20.2071 83.0087 23.4024H68.0406L68.0053 22.5858H78.9394C78.9925 21.2012 78.8863 19.9053 78.6032 18.7337C78.3202 17.5621 77.8778 16.6213 77.2586 15.9112C76.657 15.2012 75.8609 14.8462 74.9054 14.8462C73.5962 14.8462 72.4461 15.503 71.4553 16.7988C70.4469 18.1124 69.8453 20.1716 69.6507 23.0118L69.7745 23.1893C69.7215 23.6154 69.6684 24.0769 69.6507 24.5917C69.6153 25.1065 69.6153 25.6213 69.6153 26.1183C69.6153 28.0533 69.9338 29.7041 70.553 31.0888C71.1723 32.4734 71.9861 33.5385 72.9946 34.2663C74.0031 34.9941 75.0293 35.3491 76.1086 35.3491C77.3824 35.3491 78.5502 35.0296 79.6294 34.4083C80.7087 33.787 81.611 32.6864 82.3364 31.0888L83.1857 31.426C82.8672 32.3669 82.3718 33.2722 81.6641 34.142C80.9564 35.0296 80.0717 35.7396 78.9925 36.2899C77.9132 36.8402 76.6747 37.1243 75.2593 37.1243C73.2246 37.1243 71.473 36.6627 70.0222 35.7219C68.5714 34.7811 67.4568 33.4852 66.6783 31.8343C65.8998 30.1834 65.5106 28.2663 65.5106 26.1183C65.5106 23.6154 65.8998 21.4675 66.696 19.6746C67.4922 17.8817 68.6068 16.4793 70.0399 15.503C71.473 14.5266 73.1539 14.0473 75.0647 14.0473Z" fill="black"></path><path d="M100.047 14.0473C101.126 14.0473 102.011 14.1894 102.736 14.4734C103.462 14.7574 104.063 15.1479 104.541 15.6627C105.072 16.2308 105.461 16.9408 105.691 17.7929C105.921 18.645 106.027 19.7988 106.027 21.2367V32.5976C106.027 33.787 106.275 34.6035 106.77 35.0296C107.266 35.4556 108.097 35.6686 109.247 35.6686V36.5562C108.769 36.5207 108.026 36.4852 107.036 36.4497C106.045 36.4142 105.089 36.3787 104.152 36.3787C103.214 36.3787 102.312 36.3964 101.409 36.4497C100.525 36.4852 99.8523 36.5207 99.3923 36.5562V35.6686C100.418 35.6686 101.126 35.4556 101.551 35.0296C101.975 34.6035 102.188 33.787 102.188 32.5976V20.2959C102.188 19.4083 102.117 18.6095 101.975 17.8639C101.834 17.1183 101.515 16.5325 101.02 16.071C100.525 15.6095 99.7638 15.3964 98.7553 15.3964C96.9684 15.3964 95.5352 16.142 94.456 17.6331C93.359 19.1243 92.8282 20.9527 92.8282 23.1361V32.5799C92.8282 33.7692 93.0405 34.5858 93.4652 35.0118C93.8898 35.4379 94.6152 35.6509 95.6237 35.6509V36.5385C95.1637 36.503 94.4914 36.4675 93.6067 36.4319C92.7221 36.3964 91.8021 36.3609 90.8643 36.3609C89.9266 36.3609 88.9712 36.3787 87.9804 36.4319C86.9896 36.4675 86.2642 36.503 85.7688 36.5385V35.6509C86.9365 35.6509 87.7504 35.4379 88.2458 35.0118C88.7412 34.5858 88.9889 33.7692 88.9889 32.5799V19.2663C88.9889 17.9882 88.7589 17.0473 88.3166 16.4438C87.892 15.8402 87.0427 15.5385 85.8042 15.5385V14.6509C86.7065 14.7396 87.5912 14.7751 88.4404 14.7751C89.2543 14.7751 90.0505 14.7219 90.7936 14.6331C91.5367 14.5266 92.2267 14.3846 92.8459 14.1894V19.213C93.589 17.2781 94.5975 15.9467 95.9245 15.1834C97.2337 14.4201 98.6138 14.0473 100.047 14.0473Z" fill="black"></path><path d="M117.74 14.1716V32.5976C117.74 33.787 117.987 34.6035 118.483 35.0296C118.978 35.4556 119.81 35.6686 120.96 35.6686V36.5562C120.482 36.5207 119.757 36.4852 118.784 36.4497C117.81 36.4142 116.82 36.3787 115.829 36.3787C114.873 36.3787 113.9 36.3965 112.91 36.4497C111.919 36.4852 111.193 36.5207 110.698 36.5562V35.6686C111.866 35.6686 112.68 35.4556 113.175 35.0296C113.67 34.6035 113.918 33.787 113.918 32.5976V19.2663C113.918 17.9882 113.688 17.0473 113.246 16.4438C112.786 15.8402 111.936 15.5207 110.698 15.5207V14.6331C111.6 14.7219 112.485 14.7574 113.334 14.7574C114.148 14.7574 114.944 14.7041 115.687 14.6154C116.43 14.5089 117.103 14.3669 117.74 14.1716ZM115.528 4C116.271 4 116.89 4.26627 117.439 4.81657C117.97 5.34911 118.253 5.98817 118.253 6.73373C118.253 7.47929 117.987 8.11834 117.439 8.65089C116.908 9.18343 116.271 9.46746 115.528 9.46746C114.785 9.46746 114.148 9.20118 113.617 8.65089C113.086 8.11834 112.803 7.47929 112.803 6.73373C112.803 5.98817 113.069 5.36686 113.617 4.81657C114.148 4.26627 114.785 4 115.528 4Z" fill="black"></path><path d="M129.523 7.56805V14.6686H135.804V15.5385H129.523V32.0118C129.523 33.3432 129.771 34.284 130.248 34.8166C130.726 35.3491 131.399 35.6331 132.248 35.6331C133.097 35.6331 133.822 35.2781 134.459 34.5858C135.079 33.8935 135.627 32.7219 136.069 31.071L136.919 31.284C136.636 32.9349 136.069 34.3195 135.238 35.4556C134.406 36.5917 133.132 37.1598 131.399 37.1598C130.443 37.1598 129.647 37.0355 129.028 36.8047C128.408 36.5562 127.86 36.2189 127.382 35.7574C126.763 35.1006 126.321 34.3195 126.091 33.4142C125.843 32.5089 125.737 31.3018 125.737 29.7929V15.5385H121.667V14.6864H125.737V8.1716C126.445 8.13609 127.117 8.08284 127.772 7.99408C128.391 7.92308 128.992 7.78107 129.523 7.56805Z" fill="black"></path><path d="M157 14.6331V15.4852C156.469 15.5385 155.974 15.787 155.514 16.213C155.054 16.6391 154.629 17.3846 154.24 18.4675L147.287 36.7692H146.561L138.759 17.9172C138.228 16.8166 137.697 16.142 137.166 15.8935C136.636 15.645 136.211 15.5385 135.875 15.5385V14.6509C136.494 14.7396 137.149 14.7929 137.821 14.8462C138.493 14.8817 139.236 14.9172 140.033 14.9172C140.917 14.9172 141.837 14.8817 142.81 14.8284C143.783 14.7751 144.704 14.7219 145.553 14.6509V15.5385C144.845 15.5385 144.208 15.5917 143.66 15.6805C143.111 15.787 142.757 16.071 142.616 16.568C142.474 17.0651 142.651 17.9172 143.129 19.1065L148.348 32.0828L148.101 32.1716L152.931 19.497C153.461 18.0769 153.532 17.0828 153.108 16.5148C152.683 15.9467 151.728 15.6095 150.224 15.4852V14.6331C150.967 14.6686 151.568 14.6864 152.064 14.7219C152.559 14.7574 153.125 14.7574 153.78 14.7574C154.435 14.7574 155.018 14.7396 155.531 14.7219C156.062 14.6864 156.558 14.6686 157 14.6331ZM147.287 36.7692L145.854 40.4793C145.323 41.8639 144.704 42.858 144.031 43.4615C143.571 43.8876 143.04 44.1716 142.421 44.3314C141.802 44.4911 141.236 44.5621 140.723 44.5621C140.192 44.5621 139.696 44.4556 139.254 44.2604C138.812 44.0651 138.476 43.7633 138.21 43.3905C137.963 43 137.821 42.5385 137.821 42.0059C137.821 41.3314 138.016 40.7811 138.423 40.3728C138.812 39.9645 139.378 39.7515 140.068 39.7515C140.67 39.7515 141.165 39.929 141.59 40.2663C142.014 40.6035 142.227 41.1006 142.227 41.7574C142.227 42.2367 142.12 42.645 141.89 42.9467C141.66 43.2663 141.395 43.497 141.076 43.6746C141.13 43.7101 141.183 43.7101 141.218 43.7101C141.253 43.7101 141.289 43.7101 141.324 43.7101C142.085 43.7101 142.757 43.4438 143.359 42.929C143.96 42.3964 144.474 41.5621 144.934 40.3905L146.455 36.4319L147.287 36.7692Z" fill="black"></path><path d="M12.5737 29.9882C12.3791 30.9112 11.9191 31.4083 10.9814 31.6391C10.946 31.6568 10.946 31.7101 10.9814 31.7101C11.9191 31.9231 12.3791 32.4379 12.5737 33.3609C12.5914 33.4319 12.6799 33.4319 12.6976 33.3609C12.8922 32.4379 13.3522 31.9408 14.2899 31.7101C14.3253 31.6923 14.3253 31.6391 14.2899 31.6391C13.3522 31.426 12.8922 30.9112 12.6976 29.9882C12.6799 29.9172 12.5914 29.9172 12.5737 29.9882Z" fill="black"></path><path d="M23.9325 25.0533C23.9325 25.0888 23.8794 25.0888 23.8794 25.0533C23.3486 23.3491 22.1809 21.8935 20.7832 20.7574C19.3678 19.5858 17.7223 18.7337 16.0946 17.8817C14.4669 17.0296 12.8391 16.1598 11.4237 14.9882C10.486 14.2071 9.65442 13.284 9.22979 12.1479C8.82286 11.0828 8.85824 9.80473 9.47749 8.84615C9.49518 8.8284 9.51288 8.84615 9.51288 8.86391C9.05286 10 9.31826 11.2604 9.97289 12.3077C10.3798 12.9645 10.9283 13.497 11.5475 13.9586C11.9899 14.2781 12.4499 14.5444 12.9276 14.7929C14.0953 15.3609 15.3515 15.7515 16.5546 16.2308C18.4831 16.9763 20.3763 17.9882 21.7917 19.497C22.7471 20.5266 23.5079 21.8047 23.8087 23.1716C23.9502 23.7751 24.0033 24.4142 23.9325 25.0533Z" fill="black"></path><path d="M19.7216 16.7456C19.0139 16.0888 18.147 15.645 17.2446 15.3077C16.0946 14.8639 14.8915 14.5976 13.7591 14.0828C12.3614 13.4615 10.9106 12.4142 10.6452 10.7988C10.4506 9.66272 10.9106 8.1716 12.2906 7.67456C12.3083 7.67456 12.326 7.69231 12.3083 7.71006C11.8306 7.95858 11.4945 8.43787 11.2822 8.93491C11.0345 9.52071 11.0345 10.2308 11.3175 10.8166C11.406 10.9941 11.5122 11.1538 11.636 11.3136C11.9191 11.6686 12.2906 11.9527 12.6622 12.1834C13.4938 12.6982 14.4138 13.0533 15.3161 13.3905C16.2361 13.7456 17.1562 14.1006 17.97 14.6331C18.5008 14.9882 18.9785 15.4142 19.3501 15.9467C19.527 16.1953 19.6685 16.4438 19.7747 16.7278C19.757 16.7456 19.7393 16.7633 19.7216 16.7456Z" fill="black"></path><path d="M24.1625 29.0828C24.1625 34.5148 19.4031 37.1953 13.653 37.1953C10.1498 37.1953 8.30977 36.3787 6.87665 35.6154C6.08047 35.1716 5.60277 35.0118 5.17814 35.0118C4.61197 35.0118 4.34658 35.5444 4.15196 36.5385C4.11658 36.7337 3.93965 36.8757 3.74503 36.8757H3.42656C3.35579 36.8757 3.30271 36.858 3.23194 36.8225C3.09039 36.7515 2.98424 36.5917 3.00193 36.4142C3.12578 34.7278 3.16116 32.2781 3.16116 27.0414C3.16116 26.8107 3.35579 26.6154 3.58579 26.6154H3.92195C4.11658 26.6154 4.27581 26.7396 4.32889 26.9172C4.32889 26.9349 4.34658 26.9704 4.34658 27.0059C4.84198 32.0118 7.15973 36.3254 13.3345 36.3254C13.5114 36.3254 13.6707 36.3254 13.8476 36.3077C14.343 36.2722 14.8207 36.2012 15.2984 36.0769C16.9969 35.5976 18.4654 34.4793 19.3678 32.9172C19.3678 32.9172 19.3678 32.8994 19.3855 32.8994C19.5093 32.6864 19.6332 32.4556 19.7393 32.2249C21.314 28.9053 20.3055 25.213 18.0585 22.4615C17.4216 21.6805 16.7138 21.0059 15.9531 20.4024C14.5907 19.3195 13.0691 18.432 11.5652 17.4734C11.5122 17.4379 11.4591 17.4024 11.3883 17.3669C10.716 16.9231 10.079 16.4438 9.51288 15.8757C8.23899 14.5976 7.15974 12.574 7.7259 10.7278C7.7436 10.6923 7.77898 10.7101 7.77898 10.7456C7.65513 12.503 8.59285 14.2426 9.88443 15.4675C11.2291 16.7456 12.9099 17.5976 14.5022 18.5207C17.3331 20.1716 20.6416 22.3018 22.4286 24.3787C22.4463 24.3965 22.464 24.4142 22.464 24.432C23.5256 25.7101 24.1625 27.2012 24.1625 29.0828Z" fill="black"></path><path d="M22.4286 6.62722C22.3048 8.02959 22.234 9.92899 22.234 14.4734C22.234 14.7041 22.0394 14.8994 21.8094 14.8994H21.4732C21.4555 14.8994 21.4378 14.8994 21.4201 14.8994C21.2255 14.8817 21.084 14.7219 21.0663 14.5266C20.8186 12.3609 20.0047 10.213 18.4654 8.72189C17.1739 7.47929 15.3869 6.66272 12.9807 6.66272C9.17671 6.69822 4.22273 9.84024 5.23122 16.071C5.2843 16.3373 5.37276 16.6213 5.44353 16.9053C5.74431 17.9172 5.85047 19.0178 5.30199 19.9053C5.08968 20.3314 4.87737 20.7574 4.87737 21.2189C4.87737 21.574 5.07199 21.858 5.39046 21.9645C5.47892 22 5.58508 22.0178 5.69123 22.0355C5.90355 22.071 6.13355 22.1243 6.31048 22.284C6.46972 22.4438 6.46972 22.6568 6.46972 22.8698C6.46972 23.0296 6.46972 23.1716 6.52279 23.2959C6.64664 23.5266 6.85896 23.6509 7.17743 23.7041C7.28358 23.7219 7.38974 23.7219 7.4959 23.7219C7.58436 23.7219 7.67283 23.7219 7.77898 23.7041L8.02668 23.6864L7.83206 23.8462C7.81437 23.8639 7.77898 23.8817 7.76129 23.8817C7.63744 23.9172 7.53128 23.9882 7.46051 24.0592C7.42513 24.0947 7.40743 24.1124 7.38974 24.1479C7.30128 24.2722 7.28358 24.4497 7.38974 24.574C7.44282 24.645 7.53128 24.6805 7.61975 24.7337C7.65513 24.7515 7.69052 24.7692 7.7259 24.787C7.93822 24.8935 8.09745 25.0888 8.16822 25.284C8.2213 25.4438 8.2213 25.6036 8.2213 25.7633C8.2213 25.7988 8.2213 25.8166 8.2213 25.8521C8.2213 25.9941 8.239 26.0828 8.29207 26.1893C8.469 26.4734 8.91132 26.5266 9.24748 26.5621H9.30056C9.4598 26.5799 9.63673 26.5799 9.81365 26.5799C10.2383 26.5799 10.6983 26.5444 11.2114 26.4556C11.3352 26.4379 11.4768 26.4024 11.6006 26.3846C11.9368 26.3314 12.2906 26.2604 12.6268 26.2249C13.0514 26.1716 13.4584 26.1361 13.8299 26.1361C14.1838 26.1361 14.5199 26.1538 14.8384 26.2071C15.1569 26.2604 15.44 26.3314 15.6877 26.4201C15.723 26.4379 15.7584 26.4556 15.8115 26.4734C15.8469 26.4911 15.9 26.5089 15.9177 26.5089C16.9262 26.9527 17.74 27.6627 18.2 28.5325C18.3593 28.8521 18.4654 29.1538 18.5008 29.4734C18.5008 29.5266 18.4654 29.5799 18.4124 29.5799H18.3947C18.3416 29.5799 18.3062 29.5444 18.2885 29.4911C18.1823 28.9408 17.8639 28.4083 17.3862 27.929C16.82 27.3787 16.13 26.9704 15.4223 26.7929C15.0153 26.6864 14.573 26.6331 14.0776 26.6331C13.4938 26.6331 12.8922 26.7041 12.2022 26.8107C12.0253 26.8284 11.8483 26.8639 11.6891 26.8994C11.5475 26.9172 11.406 26.9527 11.2645 26.9704C10.9991 27.0059 10.7514 27.0414 10.5037 27.0592C10.256 27.0769 10.026 27.0947 9.79596 27.0947C9.60134 27.0947 9.40672 27.0947 9.22979 27.0769C8.64593 27.0237 7.95591 26.8994 7.7259 26.2781C7.65513 26.1006 7.67283 25.9053 7.67283 25.7278C7.67283 25.6923 7.67283 25.6391 7.67283 25.6035C7.67283 25.426 7.61975 25.3373 7.46051 25.2485C7.42513 25.2308 7.40743 25.213 7.37205 25.1953C7.2482 25.1243 7.10666 25.0533 7.0005 24.9112C6.84126 24.7337 6.78819 24.503 6.82357 24.2544C6.82357 24.2012 6.84126 24.1479 6.85896 24.0947C6.82357 24.0769 6.78819 24.0769 6.77049 24.0592C6.48741 23.9527 6.2574 23.7574 6.11586 23.5089C5.99201 23.2781 5.99201 23.0296 5.99201 22.8343C5.99201 22.7811 5.99201 22.6568 5.99201 22.6213C5.90355 22.5503 5.7797 22.5325 5.60277 22.497C5.47892 22.4793 5.35507 22.4438 5.23122 22.4083C4.98352 22.3195 4.77121 22.1598 4.62967 21.9467C4.48812 21.7337 4.41735 21.503 4.41735 21.2367C4.39966 20.6509 4.64736 20.1716 4.89506 19.6923V19.6746C5.23122 19.0533 5.16045 18.2899 4.73582 17.7219C4.62967 17.5799 4.5412 17.4556 4.43505 17.3136C3.67426 16.1775 3.21424 14.8639 3.21424 13.2663C3.21424 8.22485 7.63744 5.86391 12.5207 5.86391C13.4761 5.86391 14.2722 5.93491 14.9446 6.04142C16.6077 6.32544 17.6162 6.89349 18.5539 7.44379C18.9785 7.67456 19.297 7.83432 19.5801 7.92308C19.8278 8.01183 20.0401 8.04734 20.2524 8.04734C20.8186 8.04734 21.084 7.51479 21.2786 6.52071C21.314 6.32544 21.4909 6.18343 21.6855 6.18343H22.004C22.2517 6.16568 22.4463 6.3787 22.4286 6.62722Z" fill="black"></path><path d="M31.1512 42.1834H31.7173V43.7278H33.0443V42.1834H33.6105V45.9645H33.0443V44.2071H31.7173V45.9645H31.1512V42.1834Z" fill="black"></path><path d="M36.8305 42.1657L38.6352 45.9467H37.9806L37.6621 45.2012H35.9459L35.6274 45.9467H34.9905L36.7952 42.1657H36.8305ZM36.5652 43.7811L36.1582 44.6864H37.4321L37.0252 43.7811L36.8129 43.2663H36.7952L36.5652 43.7811Z" fill="black"></path><path d="M40.0506 42.1834H40.6168V45.9645H40.0506V42.1834Z" fill="black"></path><path d="M44.3854 45.9467L43.6246 44.5266C43.4653 44.5266 43.3238 44.5444 43.2 44.5444H43.0584V45.9645H42.4922V42.1834H43.3415C43.7661 42.1834 44.1377 42.2722 44.4031 42.4497C44.6862 42.6272 44.8277 42.929 44.8277 43.3195C44.8277 43.568 44.7746 43.7988 44.6508 43.9763C44.5269 44.1538 44.35 44.2959 44.12 44.4024L45.0223 45.9467H44.3854ZM43.43 44.0651C43.7661 44.0651 43.9961 43.9941 44.12 43.8521C44.2438 43.7101 44.3146 43.5325 44.3146 43.3373C44.3146 42.8935 44.0138 42.6627 43.4123 42.6627H43.0761V44.0828H43.43V44.0651Z" fill="black"></path><path d="M49.6401 42.6805H48.6847V42.1834H51.1794V42.6805H50.2063V45.9467H49.6401V42.6805Z" fill="black"></path><path d="M54.6472 45.9467L53.8864 44.5266C53.7272 44.5266 53.5856 44.5444 53.4618 44.5444H53.3202V45.9645H52.7541V42.1834H53.6033C54.0279 42.1834 54.3995 42.2722 54.6649 42.4497C54.948 42.6272 55.0895 42.929 55.0895 43.3195C55.0895 43.568 55.0364 43.7988 54.9126 43.9763C54.7887 44.1538 54.6118 44.2959 54.3818 44.4024L55.2841 45.9467H54.6472ZM53.6918 44.0651C54.0279 44.0651 54.2579 43.9941 54.3818 43.8521C54.5056 43.7101 54.5764 43.5325 54.5764 43.3373C54.5764 42.8935 54.2756 42.6627 53.6741 42.6627H53.3379V44.0828H53.6918V44.0651Z" fill="black"></path><path d="M56.8942 42.1834H58.5396V42.6805H57.4603V43.7278H58.3273V44.2426H57.4603V45.4497H58.7165V45.9645H56.8942V42.1834Z" fill="black"></path><path d="M61.7066 42.1657L63.5113 45.9467H62.8566L62.5382 45.2012H60.822L60.5035 45.9467H59.8666L61.6712 42.1657H61.7066ZM61.4412 43.7811L61.0343 44.6864H62.3082L61.9012 43.7811L61.6889 43.2663H61.6712L61.4412 43.7811Z" fill="black"></path><path d="M65.2629 42.6805H64.3075V42.1834H66.8021V42.6805H65.829V45.9467H65.2629V42.6805Z" fill="black"></path><path d="M69.3499 44.1893L69.1199 43.6568L69.0137 44.1893L68.6599 45.9467H68.0937L68.8722 42.1657H68.9253L69.9515 44.2071L70.2522 44.8817L70.553 44.2071L71.5615 42.1657H71.6146L72.4284 45.9467H71.8623L71.4907 44.1893L71.3846 43.6568L71.1723 44.1893L70.2699 45.9467H70.2345L69.3499 44.1893Z" fill="black"></path><path d="M73.9854 42.1834H75.6308V42.6805H74.5516V43.7278H75.4185V44.2426H74.5516V45.4497H75.8078V45.9645H73.9854V42.1834Z" fill="black"></path><path d="M77.9486 43.5148L77.9663 43.9231V45.9645H77.4001V42.1657H77.4709L79.6825 44.6331L79.6648 44.2071V42.1657H80.231V45.9467H80.1602L77.9486 43.5148Z" fill="black"></path><path d="M82.7787 42.6805H81.8233V42.1834H84.318V42.6805H83.3449V45.9467H82.7787V42.6805Z" fill="black"></path><path d="M89.5374 42.1657L91.342 45.9467H90.6874L90.3689 45.2012H88.6527L88.3343 45.9467H87.6973L89.502 42.1657H89.5374ZM89.2897 43.7811L88.8827 44.6864H90.1566L89.7497 43.7811L89.5374 43.2663H89.5197L89.2897 43.7811Z" fill="black"></path><path d="M93.2529 43.5148L93.2706 43.9231V45.9645H92.7044V42.1657H92.7752L94.9868 44.6331L94.9691 44.2071V42.1657H95.5352V45.9467H95.4645L93.2529 43.5148Z" fill="black"></path><path d="M97.3576 42.1834H98.2599C99.0207 42.1834 99.5515 42.3609 99.8523 42.716C100.153 43.071 100.312 43.497 100.312 43.9941C100.312 44.3314 100.242 44.6509 100.118 44.9527C99.9938 45.2367 99.7815 45.4852 99.4807 45.6627C99.18 45.8402 98.7907 45.9467 98.313 45.9467H97.3753V42.1834H97.3576ZM98.3484 45.4497C98.8261 45.4497 99.1623 45.3077 99.3746 45.0414C99.5869 44.7751 99.693 44.4379 99.693 44.0296C99.693 43.6391 99.5869 43.3018 99.3746 43.0533C99.1623 42.8047 98.8261 42.6805 98.3484 42.6805H97.9238V45.4497H98.3484Z" fill="black"></path><path d="M104.435 45.8935C104.24 45.8225 104.081 45.7337 103.992 45.645L104.258 45.1657C104.329 45.2367 104.435 45.2899 104.594 45.3609C104.753 45.432 104.895 45.4675 105.036 45.4675C105.213 45.4675 105.372 45.432 105.479 45.3432C105.585 45.2544 105.656 45.1479 105.656 44.9882C105.656 44.8639 105.62 44.7751 105.567 44.6864C105.514 44.5976 105.426 44.5266 105.337 44.4734C105.249 44.4201 105.125 44.3491 104.965 44.2604C104.771 44.1716 104.629 44.1006 104.559 44.0473C104.222 43.8166 104.063 43.5148 104.063 43.1243C104.063 42.8047 104.169 42.5562 104.382 42.3787C104.594 42.2012 104.859 42.1124 105.195 42.1124C105.549 42.1124 105.85 42.2189 106.098 42.4142L105.832 42.8757C105.762 42.8047 105.673 42.7515 105.567 42.6982C105.443 42.645 105.319 42.6272 105.195 42.6272C105.019 42.6272 104.895 42.6627 104.789 42.7515C104.7 42.8225 104.647 42.9467 104.647 43.0888C104.647 43.1953 104.682 43.284 104.735 43.3728C104.789 43.4615 104.877 43.5325 104.965 43.5858C105.054 43.6391 105.178 43.7278 105.355 43.8166C105.514 43.9053 105.62 43.9763 105.709 44.0118C105.797 44.0651 105.868 44.1183 105.939 44.1893C106.045 44.2781 106.116 44.3846 106.186 44.5089C106.257 44.6331 106.275 44.7751 106.275 44.9172C106.275 45.1479 106.222 45.3432 106.116 45.503C106.009 45.6627 105.868 45.787 105.691 45.8757C105.514 45.9645 105.302 46 105.072 46C104.842 46 104.629 45.9645 104.435 45.8935Z" fill="black"></path><path d="M109.265 42.1657L111.07 45.9467H110.415L110.096 45.2012H108.38L108.062 45.9467H107.425L109.229 42.1657H109.265ZM108.999 43.7811L108.593 44.6864H109.866L109.459 43.7811L109.247 43.2663H109.229L108.999 43.7811Z" fill="black"></path><path d="M112.414 42.1834H112.998V45.4497H114.077V45.9645H112.414V42.1834Z" fill="black"></path><path d="M116.43 45.7692C116.147 45.6095 115.917 45.3787 115.74 45.0947C115.563 44.7929 115.493 44.4556 115.493 44.0651C115.493 43.6746 115.581 43.3195 115.74 43.0355C115.917 42.7515 116.147 42.5207 116.43 42.3609C116.714 42.2012 117.032 42.1302 117.368 42.1302C117.704 42.1302 118.023 42.2012 118.306 42.3609C118.589 42.5207 118.819 42.7515 118.996 43.0355C119.173 43.3195 119.244 43.6746 119.244 44.0651C119.244 44.4556 119.155 44.7929 118.996 45.0947C118.819 45.3965 118.589 45.6095 118.306 45.7692C118.023 45.929 117.704 46 117.368 46C117.032 46 116.731 45.929 116.43 45.7692ZM118.023 45.3254C118.217 45.2189 118.377 45.0592 118.483 44.8462C118.589 44.6331 118.66 44.3846 118.66 44.0828C118.66 43.7811 118.607 43.5325 118.483 43.3018C118.377 43.0888 118.217 42.929 118.023 42.8225C117.828 42.716 117.616 42.6627 117.368 42.6627C117.12 42.6627 116.908 42.716 116.714 42.8225C116.519 42.929 116.36 43.0888 116.253 43.3018C116.147 43.5148 116.077 43.7811 116.077 44.0828C116.077 44.3846 116.13 44.6331 116.253 44.8462C116.377 45.0592 116.519 45.2189 116.714 45.3254C116.908 45.432 117.12 45.4852 117.35 45.4852C117.616 45.4852 117.828 45.432 118.023 45.3254Z" fill="black"></path><path d="M121.491 43.5148L121.508 43.9231V45.9645H120.942V42.1657H121.013L123.224 44.6331L123.207 44.2071V42.1657H123.773V45.9467H123.702L121.491 43.5148Z" fill="black"></path></svg>