<svg xmlns="http://www.w3.org/2000/svg" width="160" height="50" viewBox="0 0 160 50" fill="none"><path d="M44.7408 48C42.5123 48 40.4065 47.0234 38.8118 45.172C35.1112 40.8589 35.193 33.9009 35.9699 28.6519C34.0686 28.9368 32.0649 29.0792 30 29.0792C27.9351 29.0792 25.9314 28.9368 24.0301 28.6519C24.807 33.8806 24.8888 40.8589 21.1882 45.172C19.0824 47.6338 16.0156 48.5493 12.9898 47.6541C9.92302 46.7386 7.61274 44.0938 7.24473 41.0827C6.97894 38.8855 7.46962 34.6333 13.9507 30.7881C14.7276 30.3202 15.709 30.5847 16.1792 31.3375C16.6494 32.1106 16.3836 33.0871 15.6272 33.5551C12.0084 35.7116 10.1684 38.2344 10.475 40.6758C10.6999 42.4458 12.0902 43.992 13.9302 44.5414C15.709 45.0703 17.4468 44.521 18.7144 43.0562C21.454 39.862 21.6584 33.8602 20.6362 27.9602C13.6031 26.2105 8.20564 22.4264 5.9567 17.3808C3.9122 12.7828 5.42513 9.38523 7.85808 8.0628C10.5773 6.57762 15.0547 7.33039 18.469 12.4777C20.4522 15.4684 22.3331 20.3715 23.4167 25.295C25.3999 25.6612 27.6079 25.8443 30 25.8443C32.3921 25.8443 34.6001 25.6409 36.5833 25.295C37.6873 20.3715 39.5478 15.4684 41.531 12.4777C44.9453 7.33039 49.4227 6.57762 52.1419 8.0628C54.5749 9.38523 56.0878 12.7828 54.0433 17.3808C51.7944 22.4264 46.3969 26.2105 39.3638 27.9805C38.3416 33.8806 38.546 39.8824 41.2856 43.0765C42.5532 44.5617 44.291 45.0907 46.0698 44.5617C47.9302 44.0124 49.3205 42.4458 49.525 40.6962C49.8316 38.2548 47.9916 35.732 44.3728 33.5754C43.5959 33.1075 43.3506 32.1309 43.8208 31.3578C44.291 30.5847 45.2724 30.3406 46.0493 30.8085C52.5099 34.6537 53.0211 38.9058 52.7553 41.1031C52.3873 44.1141 50.077 46.759 47.0102 47.6745C46.2538 47.8779 45.4973 48 44.7408 48ZM49.4023 10.6263C47.9098 10.6263 45.9266 11.7452 44.2502 14.268C42.7168 16.5874 41.163 20.3512 40.1203 24.4405C46.1515 22.5688 49.709 19.1508 51.0788 16.0584C52.1419 13.6577 51.9579 11.6232 50.5881 10.8908C50.261 10.728 49.8521 10.6263 49.4023 10.6263ZM10.5977 10.6263C10.1479 10.6263 9.75946 10.728 9.4119 10.9111C8.04208 11.6639 7.85808 13.678 8.92122 16.0787C10.291 19.1508 13.8485 22.5891 19.8797 24.4609C18.837 20.3512 17.3037 16.6077 15.7498 14.2884C14.0734 11.7249 12.0902 10.6263 10.5977 10.6263Z" fill="black"></path><path d="M30 17.5639C25.6861 17.5639 22.1696 14.0849 22.1696 9.79213C22.1696 5.49934 25.6861 2 30 2C34.3139 2 37.8304 5.49934 37.8304 9.79213C37.8304 14.0849 34.3139 17.5639 30 17.5639ZM30 5.23485C27.4853 5.23485 25.4203 7.26935 25.4203 9.79213C25.4203 12.2946 27.4648 14.3494 30 14.3494C32.5147 14.3494 34.5797 12.3149 34.5797 9.79213C34.5797 7.26935 32.5352 5.23485 30 5.23485Z" fill="black"></path><path d="M81.5051 20.3547C81.5051 24.7253 78.472 27.6391 74.3163 27.6391C72.3101 27.6391 70.5188 26.8509 69.3485 25.3224V32.6784H66.7692V13.2375H69.2291V15.4825C70.3755 13.9062 72.2145 13.0942 74.3163 13.0942C78.472 13.1181 81.5051 16.0079 81.5051 20.3547ZM78.9018 20.3547C78.9018 17.3454 76.824 15.3631 74.1013 15.3631C71.3786 15.3631 69.3247 17.3454 69.3247 20.3547C69.3247 23.3879 71.4025 25.3702 74.1013 25.3702C76.8479 25.3941 78.9018 23.3879 78.9018 20.3547Z" fill="black"></path><path d="M97.889 21.2145H86.3295C86.64 23.7222 88.6701 25.3702 91.4883 25.3702C93.1601 25.3702 94.5454 24.797 95.5962 23.6506L97.0292 25.3224C95.7395 26.8271 93.7811 27.6391 91.4167 27.6391C86.8311 27.6391 83.7501 24.6059 83.7501 20.3547C83.7501 16.1274 86.7833 13.0942 90.8912 13.0942C94.9992 13.0942 97.9368 16.0557 97.9368 20.4263C97.9607 20.6652 97.9129 20.9757 97.889 21.2145ZM86.3534 19.3755H95.4768C95.2141 16.9872 93.399 15.2915 90.9151 15.2915C88.4313 15.2915 86.6161 16.9394 86.3534 19.3755Z" fill="black"></path><path d="M100.206 20.3547C100.206 16.1035 103.358 13.0942 107.609 13.0942C111.885 13.0942 114.989 16.1035 114.989 20.3547C114.989 24.6059 111.885 27.6391 107.609 27.6391C103.358 27.6391 100.206 24.6059 100.206 20.3547ZM112.41 20.3547C112.41 17.3215 110.38 15.3631 107.633 15.3631C104.887 15.3631 102.833 17.3215 102.833 20.3547C102.833 23.3879 104.911 25.3702 107.633 25.3702C110.356 25.3941 112.41 23.3879 112.41 20.3547Z" fill="black"></path><path d="M133.332 20.3547C133.332 24.7253 130.299 27.6391 126.143 27.6391C124.137 27.6391 122.345 26.8509 121.175 25.3224V32.6784H118.596V13.2375H121.056V15.4825C122.202 13.9062 124.041 13.0942 126.143 13.0942C130.299 13.1181 133.332 16.0079 133.332 20.3547ZM130.728 20.3547C130.728 17.3454 128.651 15.3631 125.928 15.3631C123.205 15.3631 121.151 17.3454 121.151 20.3547C121.151 23.3879 123.229 25.3702 125.928 25.3702C128.651 25.3941 130.728 23.3879 130.728 20.3547Z" fill="black"></path><path d="M136.89 7.55328H139.47V27.4958H136.89V7.55328Z" fill="black"></path><path d="M157.215 21.2145H145.655C145.99 23.7222 147.996 25.3702 150.814 25.3702C152.486 25.3702 153.871 24.797 154.922 23.6506L156.355 25.3224C155.065 26.8271 153.107 27.6391 150.743 27.6391C146.157 27.6391 143.076 24.6059 143.076 20.3547C143.076 16.1274 146.109 13.0942 150.217 13.0942C154.325 13.0942 157.263 16.0557 157.263 20.4263C157.263 20.6652 157.239 20.9757 157.215 21.2145ZM145.655 19.3755H154.779C154.516 16.9872 152.701 15.2915 150.217 15.2915C147.757 15.2915 145.918 16.9394 145.655 19.3755Z" fill="black"></path><path d="M66.7692 36.858H67.4379V42.6378H70.9965V43.211H66.7692V36.858Z" fill="black"></path><path d="M71.4264 40.8465C71.4264 39.4374 72.4534 38.4104 73.8625 38.4104C75.2716 38.4104 76.2986 39.4135 76.2986 40.8465C76.2986 42.2556 75.2716 43.2826 73.8625 43.2826C72.4773 43.2826 71.4264 42.2556 71.4264 40.8465ZM75.6298 40.8465C75.6298 39.724 74.8656 38.9836 73.8625 38.9836C72.8355 38.9836 72.0712 39.724 72.0712 40.8465C72.0712 41.969 72.8355 42.7094 73.8625 42.7094C74.8895 42.7094 75.6298 41.969 75.6298 40.8465Z" fill="black"></path><path d="M80.0244 38.4104V39.0314C79.9766 39.0314 79.9049 39.0314 79.8811 39.0314C78.878 39.0314 78.2809 39.6762 78.2809 40.7987V43.2348H77.636V38.4582H78.257V39.3896C78.5197 38.7448 79.1407 38.4104 80.0244 38.4104Z" fill="black"></path><path d="M85.3026 41.0376H81.2902C81.3618 42.0407 82.1261 42.7094 83.1769 42.7094C83.7501 42.7094 84.2756 42.4945 84.6338 42.0884L84.9921 42.5183C84.5622 43.0199 83.8934 43.3065 83.1531 43.3065C81.6723 43.3065 80.6453 42.2795 80.6453 40.8704C80.6453 39.4613 81.6484 38.4343 82.9859 38.4343C84.3233 38.4343 85.3026 39.4374 85.3026 40.8704C85.3264 40.8943 85.3026 40.9659 85.3026 41.0376ZM81.3141 40.5599H84.7055C84.6338 39.6285 83.9412 38.9597 83.0098 38.9597C82.0783 38.9597 81.3857 39.6285 81.3141 40.5599Z" fill="black"></path><path d="M94.5215 40.4644V43.2348H93.8766V40.5121C93.8766 39.5091 93.3751 38.9836 92.4914 38.9836C91.5122 38.9836 90.8912 39.6285 90.8912 40.7032V43.211H90.2464V40.5121C90.2464 39.5091 89.7448 38.9836 88.8612 38.9836C87.8819 38.9836 87.261 39.6285 87.261 40.7032V43.211H86.6161V38.4343H87.2371V39.318C87.5715 38.7448 88.1924 38.4104 89.0045 38.4104C89.7926 38.4104 90.4136 38.7448 90.7002 39.4135C91.0345 38.7926 91.7271 38.4104 92.5869 38.4104C93.7572 38.4104 94.5215 39.0792 94.5215 40.4644Z" fill="black"></path><path d="M98.51 36.9297C98.51 36.6908 98.7249 36.4759 98.9876 36.4759C99.2504 36.4759 99.4653 36.6669 99.4653 36.9297C99.4653 37.1924 99.2742 37.4073 98.9876 37.4073C98.7249 37.4073 98.51 37.1924 98.51 36.9297ZM98.6533 38.4582H99.2981V43.2348H98.6533V38.4582Z" fill="black"></path><path d="M105.962 40.8465C105.962 42.3034 104.935 43.2826 103.573 43.2826C102.809 43.2826 102.164 42.9482 101.758 42.3273V45.0022H101.113V38.4582H101.734V39.4135C102.116 38.7687 102.785 38.4343 103.573 38.4343C104.935 38.4104 105.962 39.3896 105.962 40.8465ZM105.317 40.8465C105.317 39.7479 104.552 38.9836 103.525 38.9836C102.498 38.9836 101.734 39.7479 101.734 40.8465C101.734 41.969 102.498 42.7094 103.525 42.7094C104.529 42.7094 105.317 41.969 105.317 40.8465Z" fill="black"></path><path d="M106.606 42.6855L106.893 42.184C107.275 42.4945 107.92 42.7094 108.589 42.7094C109.496 42.7094 109.878 42.3989 109.878 41.9213C109.878 40.6793 106.774 41.6585 106.774 39.7718C106.774 38.9836 107.442 38.4104 108.66 38.4104C109.281 38.4104 109.95 38.5776 110.356 38.8642L110.069 39.3896C109.64 39.103 109.162 38.9836 108.66 38.9836C107.801 38.9836 107.418 39.318 107.418 39.7718C107.418 41.0615 110.523 40.0823 110.523 41.9213C110.523 42.7572 109.807 43.2826 108.541 43.2826C107.753 43.2826 107.012 43.0199 106.606 42.6855Z" fill="black"></path><path d="M116.04 43.2348H115.419V42.3512C115.085 42.9244 114.464 43.2587 113.7 43.2587C112.482 43.2587 111.67 42.5661 111.67 41.2048V38.4343H112.314V41.1331C112.314 42.1601 112.84 42.6616 113.747 42.6616C114.751 42.6616 115.372 42.0168 115.372 40.9182V38.4104H116.04V43.2348Z" fill="black"></path><path d="M125.737 40.4644V43.2348H125.092V40.5121C125.092 39.5091 124.59 38.9836 123.707 38.9836C122.728 38.9836 122.107 39.6285 122.107 40.7032V43.211H121.462V40.5121C121.462 39.5091 120.96 38.9836 120.077 38.9836C119.097 38.9836 118.476 39.6285 118.476 40.7032V43.211H117.832V38.4343H118.452V39.318C118.787 38.7448 119.408 38.4104 120.22 38.4104C121.008 38.4104 121.629 38.7448 121.916 39.4135C122.25 38.7926 122.943 38.4104 123.802 38.4104C124.973 38.4104 125.737 39.0792 125.737 40.4644Z" fill="black"></path></svg>