<svg xmlns="http://www.w3.org/2000/svg" width="160" height="50" viewBox="0 0 160 50" fill="none"><path fill-rule="evenodd" clip-rule="evenodd" d="M53.8 20.5007H55.047C55.2215 20.5048 55.3907 20.4402 55.518 20.3208C55.5807 20.2641 55.6305 20.1946 55.664 20.117C55.6975 20.0393 55.7138 19.9554 55.712 19.8709V11.7708C55.6754 11.332 55.7349 10.8905 55.8864 10.4771C56.0379 10.0637 56.2777 9.68824 56.5891 9.37697C56.9004 9.06569 57.2759 8.82616 57.6893 8.67482C58.1028 8.52348 58.5442 8.46405 58.983 8.50075H60.563C60.6498 8.50605 60.7368 8.49273 60.818 8.46168C60.8992 8.43064 60.9729 8.38266 61.034 8.32082C61.1458 8.19817 61.2054 8.03676 61.2 7.87086V6.85084C61.2098 6.76514 61.1999 6.67829 61.1713 6.59694C61.1426 6.51558 61.0958 6.44178 61.0345 6.38112C60.9732 6.32046 60.8988 6.27437 60.8171 6.2466C60.7355 6.21882 60.6486 6.21003 60.563 6.22072H59.482C58.7303 6.15153 57.974 6.28931 57.2949 6.61891C56.6158 6.94851 56.0398 7.45749 55.629 8.09084V6.88063C55.6332 6.79259 55.6193 6.70485 55.5884 6.62233C55.5574 6.5398 55.51 6.46424 55.449 6.40065C55.3845 6.33939 55.3083 6.29194 55.225 6.261C55.1416 6.23006 55.0528 6.21634 54.964 6.22072H53.8C53.7144 6.21739 53.6292 6.23259 53.5502 6.2654C53.4711 6.2982 53.4 6.34776 53.342 6.41066C53.2235 6.53821 53.159 6.7066 53.162 6.88063V19.8709C53.1597 19.9542 53.1745 20.0369 53.2054 20.1143C53.2364 20.1917 53.2829 20.2621 53.342 20.3208C53.402 20.3804 53.4737 20.4271 53.5524 20.458C53.6312 20.489 53.7154 20.5035 53.8 20.5007V20.5007ZM69.017 20.7708C70.0982 20.7944 71.1716 20.5828 72.163 20.1507C72.9644 19.8183 73.6867 19.3208 74.283 18.6907C74.6932 18.3046 74.9576 17.789 75.032 17.2307C75.0336 17.1606 75.0181 17.0911 74.9867 17.0283C74.9553 16.9656 74.9091 16.9116 74.852 16.8709C74.7268 16.7815 74.5757 16.7357 74.422 16.7407H73.2C73.0407 16.7317 72.881 16.7521 72.729 16.8008C72.5758 16.9087 72.4442 17.0443 72.341 17.2007C71.998 17.6262 71.5801 17.9855 71.108 18.2608C70.4627 18.626 69.7278 18.8027 68.987 18.7708C68.4662 18.788 67.9488 18.6819 67.4768 18.4612C67.0048 18.2405 66.5917 17.9114 66.271 17.5007C65.5772 16.6369 65.1875 15.5684 65.162 14.4607V14.2107H74.78C74.8645 14.2135 74.9485 14.1989 75.0271 14.168C75.1057 14.137 75.1771 14.0904 75.237 14.0308C75.2964 13.9722 75.3432 13.9019 75.3743 13.8245C75.4055 13.7471 75.4204 13.6642 75.418 13.5808V13.0808C75.5206 11.1968 74.9233 9.34134 73.741 7.87086C72.5151 6.66403 70.8728 5.97354 69.1529 5.94191C67.4329 5.91028 65.7664 6.53976 64.497 7.7007C63.3206 8.99338 62.6598 10.673 62.64 12.4207L62.612 13.3308L62.64 14.2608C62.6485 16.0256 63.31 17.7248 64.497 19.0308C65.0883 19.6182 65.7953 20.0762 66.5731 20.3757C67.3509 20.6753 68.1824 20.8099 69.015 20.7708V20.7708H69.017ZM65.164 12.3408V12.2608C65.1153 11.1276 65.4799 10.0151 66.19 9.13063C66.538 8.72703 66.9736 8.40844 67.4635 8.19875C67.9534 7.98905 68.4848 7.89383 69.017 7.92067C69.5488 7.89744 70.079 7.99418 70.5684 8.20363C71.0577 8.41308 71.4937 8.72985 71.844 9.13063C72.5703 10.0077 72.9455 11.1231 72.897 12.2608V12.3408H65.164ZM79.439 20.5007H80.658C80.7424 20.5035 80.8265 20.489 80.9051 20.458C80.9837 20.4271 81.0551 20.3804 81.115 20.3208C81.1744 20.2622 81.2212 20.1919 81.2523 20.1145C81.2835 20.0371 81.2983 19.9543 81.296 19.8709V12.1507C81.1929 11.0316 81.5366 9.91739 82.252 9.0508C82.5471 8.74264 82.9024 8.49841 83.2958 8.33327C83.6892 8.16813 84.1124 8.08564 84.539 8.09084C84.9787 8.08017 85.4159 8.15984 85.8236 8.32497C86.2313 8.49009 86.6007 8.73713 86.909 9.0508C87.6269 9.9278 87.9704 11.0522 87.865 12.1807V19.8709C87.8627 19.9542 87.8775 20.0369 87.9084 20.1143C87.9394 20.1917 87.9859 20.2621 88.045 20.3208C88.1048 20.3804 88.1763 20.4271 88.2549 20.458C88.3335 20.489 88.4176 20.5035 88.502 20.5007H89.722C89.8064 20.5035 89.8905 20.489 89.9691 20.458C90.0476 20.4271 90.1191 20.3804 90.179 20.3208C90.2381 20.2621 90.2846 20.1917 90.3156 20.1143C90.3465 20.0369 90.3613 19.9542 90.359 19.8709V12.1807C90.2583 11.0556 90.6018 9.93593 91.316 9.06081C91.609 8.74956 91.9636 8.50245 92.3571 8.33546C92.7506 8.16848 93.1745 8.08531 93.602 8.09084C94.0473 8.07087 94.4919 8.14405 94.9073 8.30592C95.3226 8.4678 95.6996 8.71473 96.014 9.03078C96.7082 9.92633 97.0354 11.0526 96.929 12.1807V19.8709C96.9265 19.9542 96.9412 20.0371 96.9722 20.1145C97.0031 20.1919 97.0497 20.2622 97.109 20.3208C97.1689 20.3804 97.2403 20.4271 97.3189 20.458C97.3975 20.489 97.4816 20.5035 97.566 20.5007H98.758C98.8424 20.5035 98.9265 20.489 99.0051 20.458C99.0837 20.4271 99.1551 20.3804 99.215 20.3208C99.2743 20.2621 99.3209 20.1919 99.3521 20.1145C99.3832 20.0371 99.3981 19.9543 99.396 19.8709V11.9307C99.5061 10.317 98.9896 8.72312 97.954 7.48073C97.4797 6.97505 96.9033 6.5761 96.2629 6.31056C95.6225 6.04503 94.9329 5.91897 94.24 5.94069C93.2764 5.92742 92.3259 6.16516 91.482 6.63063C90.6916 7.05775 90.0342 7.69447 89.582 8.47072C89.1966 7.6652 88.5787 6.9937 87.8079 6.54274C87.0372 6.09178 86.149 5.88202 85.258 5.94069C84.4869 5.91147 83.7197 6.06267 83.0173 6.38209C82.3149 6.70152 81.6967 7.18045 81.212 7.78078V6.85084C81.217 6.68483 81.1571 6.52319 81.045 6.40065C80.9884 6.34062 80.9195 6.29352 80.8431 6.26247C80.7666 6.23141 80.6844 6.21718 80.602 6.22072H79.44C79.3554 6.21793 79.2711 6.23249 79.1924 6.26344C79.1136 6.2944 79.042 6.34102 78.982 6.40065C78.9229 6.45941 78.8764 6.5298 78.8455 6.60719C78.8145 6.68458 78.7997 6.76753 78.802 6.85084V19.8709C78.7997 19.9542 78.8145 20.0369 78.8455 20.1143C78.8764 20.1917 78.9229 20.2621 78.982 20.3208C79.042 20.3804 79.1136 20.4271 79.1924 20.458C79.2711 20.489 79.3554 20.5035 79.44 20.5007H79.439ZM109.263 20.7708C110.121 20.8255 110.981 20.7027 111.79 20.4102C112.599 20.1177 113.338 19.6618 113.963 19.0708C115.1 17.8369 115.729 16.2188 115.723 14.5408C115.76 14.1408 115.779 13.7409 115.779 13.3609C115.779 12.9809 115.76 12.5807 115.723 12.1807C115.732 10.4969 115.092 8.87438 113.935 7.65065C112.629 6.54644 110.975 5.94069 109.265 5.94069C107.554 5.94069 105.9 6.54644 104.594 7.65065C103.437 8.87438 102.797 10.4969 102.806 12.1807L102.779 13.3609L102.806 14.5408C102.8 16.219 103.429 17.8373 104.567 19.0708C105.192 19.662 105.931 20.1179 106.74 20.4104C107.549 20.7029 108.409 20.8256 109.267 20.7708V20.7708H109.263ZM109.263 18.7107C108.742 18.7364 108.222 18.6507 107.736 18.4592C107.251 18.2678 106.812 17.9753 106.449 17.6008C105.699 16.7058 105.3 15.5682 105.327 14.4007L105.299 13.3609L105.327 12.3108C105.3 11.1463 105.699 10.012 106.449 9.12086C107.209 8.40168 108.216 8.00075 109.263 8.00075C110.309 8.00075 111.316 8.40168 112.076 9.12086C112.826 10.0121 113.225 11.1463 113.199 12.3108C113.217 12.5008 113.226 12.8509 113.226 13.3609C113.226 13.8709 113.217 14.2207 113.199 14.4007C113.225 15.5682 112.826 16.7057 112.076 17.6008C111.713 17.9751 111.274 18.2676 110.789 18.459C110.304 18.6504 109.784 18.7362 109.263 18.7107V18.7107ZM124.679 20.5007H126.559C126.641 20.504 126.723 20.4896 126.799 20.4585C126.874 20.4275 126.943 20.3806 126.999 20.3208C127.112 20.1984 127.173 20.0372 127.169 19.8709V18.9607C127.173 18.7944 127.112 18.6332 126.999 18.5108C126.943 18.451 126.874 18.4041 126.799 18.3731C126.723 18.342 126.641 18.3276 126.559 18.3308H124.869C124.567 18.3598 124.263 18.3083 123.987 18.1819C123.711 18.0555 123.474 17.8586 123.299 17.6109C122.958 16.9622 122.802 16.2321 122.849 15.5007V8.33083H126.279C126.447 8.33955 126.612 8.28197 126.739 8.17067C126.799 8.11448 126.846 8.04614 126.877 7.97023C126.908 7.89432 126.922 7.81268 126.919 7.73073V6.85084C126.921 6.76753 126.907 6.68458 126.876 6.60719C126.845 6.5298 126.798 6.45941 126.739 6.40065C126.679 6.34063 126.607 6.29368 126.528 6.26271C126.449 6.23174 126.364 6.21748 126.279 6.22072H122.849V1.63063C122.851 1.54731 122.836 1.46461 122.806 1.38722C122.775 1.30983 122.728 1.23944 122.669 1.18068C122.608 1.12142 122.536 1.07512 122.457 1.0442C122.378 1.01329 122.294 0.998443 122.209 1.00075H120.989C120.907 0.996498 120.825 1.0104 120.749 1.04152C120.673 1.07264 120.605 1.12013 120.549 1.18068C120.491 1.2399 120.446 1.31051 120.417 1.38795C120.388 1.4654 120.375 1.54795 120.379 1.63063V6.22072H118.189C118.106 6.2165 118.024 6.23039 117.947 6.26149C117.87 6.29259 117.801 6.34006 117.745 6.40065C117.633 6.52319 117.573 6.68483 117.578 6.85084V7.73073C117.575 7.81154 117.588 7.89218 117.617 7.96779C117.645 8.0434 117.689 8.11237 117.745 8.17067C117.804 8.22641 117.874 8.26936 117.95 8.29689C118.027 8.32442 118.108 8.33609 118.189 8.33083H120.379V15.6907C120.379 18.9007 121.812 20.5041 124.679 20.5007V20.5007ZM135.599 20.7708C136.678 20.7948 137.75 20.5831 138.739 20.1507C139.541 19.8193 140.263 19.3217 140.859 18.6907C141.27 18.3049 141.535 17.7893 141.609 17.2307C141.611 17.1606 141.595 17.0911 141.564 17.0283C141.533 16.9656 141.486 16.9115 141.429 16.8709C141.304 16.7806 141.153 16.7347 140.999 16.7407H139.779C139.62 16.7316 139.461 16.752 139.309 16.8008C139.157 16.9104 139.025 17.0457 138.919 17.2007C138.576 17.6246 138.159 17.9836 137.689 18.2608C137.044 18.6257 136.309 18.8025 135.569 18.7708C135.048 18.7886 134.529 18.6829 134.057 18.4622C133.584 18.2414 133.17 17.912 132.849 17.5007C132.159 16.6348 131.769 15.5677 131.739 14.4607V14.2107H141.359C141.444 14.2139 141.529 14.1997 141.608 14.1687C141.687 14.1377 141.759 14.0908 141.819 14.0308C141.878 13.972 141.925 13.9019 141.956 13.8245C141.986 13.7471 142.001 13.6641 141.999 13.5808V13.0808C142.102 11.1963 141.503 9.3405 140.319 7.87086C139.094 6.66408 137.452 5.97354 135.733 5.94191C134.014 5.91028 132.348 6.53979 131.079 7.7007C129.9 8.99228 129.238 10.6723 129.219 12.4207L129.189 13.3308L129.219 14.2608C129.227 16.0262 129.89 17.7258 131.079 19.0308C131.67 19.619 132.377 20.0776 133.156 20.3772C133.934 20.6768 134.766 20.8108 135.599 20.7708V20.7708ZM131.739 12.3408V12.2608C131.689 11.1267 132.055 10.0133 132.769 9.13063C133.117 8.72586 133.553 8.40633 134.043 8.19655C134.534 7.98677 135.066 7.89238 135.599 7.92067C136.13 7.89741 136.659 7.99414 137.147 8.20363C137.635 8.41312 138.07 8.72994 138.419 9.13063C139.147 10.0074 139.524 11.1224 139.479 12.2608V12.3408H131.739ZM58.1 48.0007C59.192 48.0232 60.2782 47.8364 61.3 47.4507C62.1052 47.1513 62.8076 46.6272 63.324 45.9407C63.7701 45.3167 64.0078 44.5679 64.003 43.8008C64.0174 43.3123 63.9267 42.8263 63.7369 42.376C63.5471 41.9257 63.2627 41.5215 62.903 41.1907C61.817 40.3538 60.5325 39.813 59.175 39.6209C58.3066 39.4605 57.4535 39.2261 56.625 38.9207C56.1796 38.7786 55.7786 38.5237 55.461 38.1807C55.2522 37.9014 55.1446 37.5593 55.156 37.2107C55.1471 36.9212 55.2079 36.6339 55.3334 36.3728C55.4589 36.1118 55.6454 35.8846 55.877 35.7107C56.4892 35.3006 57.2196 35.1037 57.955 35.1507C58.4706 35.1393 58.9848 35.207 59.48 35.3508C59.819 35.4554 60.1343 35.6252 60.408 35.8508C60.6855 36.1067 60.9492 36.3769 61.198 36.6607C61.2521 36.7586 61.3331 36.8389 61.4315 36.8921C61.5299 36.9453 61.6415 36.9691 61.753 36.9607H62.806C62.9659 36.9614 63.1199 36.9006 63.236 36.7908C63.2945 36.74 63.3409 36.6769 63.372 36.606C63.4031 36.5351 63.4182 36.458 63.416 36.3806C63.3507 35.8952 63.1321 35.4434 62.792 35.0908C62.2819 34.5099 61.6471 34.0517 60.935 33.7507C59.997 33.3388 58.9791 33.1406 57.955 33.1707C56.9666 33.1469 55.9857 33.3488 55.087 33.7608C54.3506 34.0958 53.7219 34.6291 53.271 35.3008C52.8793 35.8799 52.6671 36.5616 52.661 37.2608C52.644 37.7331 52.724 38.204 52.896 38.6443C53.068 39.0846 53.3283 39.485 53.661 39.8208C54.6409 40.6215 55.8186 41.1431 57.07 41.3308C57.9765 41.5075 58.8702 41.7447 59.745 42.0408C60.2236 42.1903 60.6635 42.4429 61.034 42.7808C61.3022 43.0826 61.4415 43.4773 61.422 43.8806C61.4328 44.2028 61.3545 44.5217 61.1957 44.8023C61.0369 45.0828 60.8037 45.3141 60.522 45.4707C59.7881 45.8721 58.9574 46.0625 58.122 46.0208C57.3894 46.0531 56.6603 45.902 56.001 45.5808C55.4518 45.2731 54.9673 44.8623 54.574 44.3709C54.499 44.2776 54.4099 44.1964 54.31 44.1306C54.2295 44.0869 54.1385 44.0663 54.047 44.0708H52.883C52.7313 44.0721 52.5846 44.1249 52.467 44.2207C52.4023 44.2714 52.3509 44.337 52.3171 44.4119C52.2833 44.4868 52.2682 44.5686 52.273 44.6507C52.3403 45.1472 52.5637 45.6095 52.911 45.9707C53.447 46.5828 54.1152 47.0649 54.865 47.3806C55.8832 47.8204 56.9853 48.0322 58.094 48.0007H58.1ZM72.763 47.7207H74.648C74.7304 47.7243 74.8127 47.71 74.8891 47.679C74.9655 47.6479 75.0344 47.6008 75.091 47.5408C75.1473 47.4806 75.1911 47.4098 75.2197 47.3325C75.2484 47.2553 75.2614 47.1732 75.258 47.0908V46.1907C75.2648 46.0214 75.2048 45.8562 75.091 45.7307C75.0344 45.6707 74.9655 45.6236 74.8891 45.5925C74.8127 45.5615 74.7304 45.5473 74.648 45.5508H72.957C72.6564 45.5823 72.3529 45.533 72.0776 45.4082C71.8024 45.2834 71.5653 45.0877 71.391 44.8408C71.0461 44.1934 70.8879 43.4628 70.934 42.7307V35.5608H74.371C74.5395 35.5651 74.7032 35.504 74.828 35.3906C74.8876 35.3365 74.9346 35.2701 74.9657 35.1958C74.9968 35.1215 75.0112 35.0412 75.008 34.9607V34.0808C75.0113 33.9961 74.9972 33.9115 74.9664 33.8325C74.9356 33.7536 74.8889 33.6819 74.8291 33.6218C74.7693 33.5618 74.6978 33.5146 74.619 33.4834C74.5401 33.4523 74.4557 33.4377 74.371 33.4407H70.934V28.8609C70.9362 28.7775 70.9212 28.6944 70.8901 28.617C70.8589 28.5396 70.8123 28.4693 70.753 28.4107C70.6931 28.3511 70.6217 28.3044 70.5431 28.2735C70.4645 28.2425 70.3804 28.228 70.296 28.2307H69.076C68.9936 28.2272 68.9113 28.2414 68.8349 28.2725C68.7585 28.3035 68.6896 28.3506 68.633 28.4107C68.5211 28.5333 68.4616 28.695 68.467 28.8609V33.4407H66.277C66.1944 33.4371 66.112 33.4514 66.0354 33.4824C65.9588 33.5135 65.8898 33.5608 65.833 33.6209C65.7198 33.7467 65.6602 33.9117 65.667 34.0808V34.9607C65.6636 35.0399 65.6766 35.1191 65.7052 35.1931C65.7338 35.2671 65.7773 35.3342 65.833 35.3906C65.8917 35.4474 65.9614 35.4918 66.0377 35.521C66.114 35.5502 66.1953 35.5639 66.277 35.5608H68.467V42.9207C68.467 46.1207 69.9004 47.7207 72.767 47.7207H72.763ZM83.351 48.0007C84.2951 48.0347 85.2342 47.8498 86.095 47.4607C86.8419 47.0854 87.4883 46.5369 87.98 45.8609V47.0908C87.9765 47.1743 87.9907 47.2574 88.0217 47.335C88.0528 47.4125 88.0999 47.4828 88.16 47.5408C88.2198 47.6004 88.2913 47.647 88.3699 47.678C88.4485 47.7089 88.5326 47.7235 88.617 47.7207H89.809C89.8934 47.7235 89.9775 47.7089 90.0561 47.678C90.1347 47.647 90.2061 47.6004 90.266 47.5408C90.3258 47.4825 90.3728 47.4122 90.404 47.3347C90.4352 47.2572 90.4498 47.1743 90.447 47.0908V34.0808C90.4501 33.9961 90.4357 33.9117 90.4047 33.8328C90.3738 33.7539 90.3269 33.6821 90.2671 33.6221C90.2073 33.5621 90.1357 33.5151 90.0569 33.4839C89.9781 33.4527 89.8937 33.4379 89.809 33.4407H88.534C88.4493 33.4377 88.3649 33.4523 88.2861 33.4834C88.2073 33.5146 88.1357 33.5618 88.0759 33.6218C88.0161 33.6819 87.9694 33.7536 87.9386 33.8325C87.9078 33.9115 87.8936 33.9961 87.897 34.0808V41.6807C87.9614 42.7971 87.5884 43.8948 86.857 44.7407C86.496 45.1184 86.0578 45.4139 85.5724 45.6072C85.0871 45.8005 84.5658 45.887 84.044 45.8609C81.605 45.8609 80.385 44.4607 80.385 41.6807V34.0808C80.3884 33.9961 80.3742 33.9115 80.3434 33.8325C80.3126 33.7536 80.2658 33.6819 80.2061 33.6218C80.1463 33.5618 80.0747 33.5146 79.9959 33.4834C79.9171 33.4523 79.8327 33.4377 79.748 33.4407H78.472C78.3873 33.4377 78.3029 33.4523 78.2241 33.4834C78.1452 33.5146 78.0737 33.5618 78.0139 33.6218C77.9541 33.6819 77.9074 33.7536 77.8766 33.8325C77.8458 33.9115 77.8317 33.9961 77.835 34.0808V41.8208C77.7538 43.4429 78.2661 45.039 79.276 46.3108C79.7847 46.8805 80.4152 47.3283 81.1207 47.6209C81.8261 47.9134 82.5885 48.0432 83.351 48.0007V48.0007ZM99.87 48.0007C100.745 48.0502 101.619 47.8857 102.416 47.5215C103.213 47.1573 103.909 46.6044 104.444 45.9107V47.0908C104.44 47.1731 104.453 47.2553 104.482 47.3325C104.51 47.4098 104.554 47.4806 104.61 47.5408C104.667 47.6009 104.736 47.6482 104.812 47.6792C104.889 47.7103 104.971 47.7243 105.054 47.7207H106.246C106.33 47.7234 106.415 47.7089 106.493 47.678C106.572 47.647 106.643 47.6003 106.703 47.5408C106.763 47.4824 106.809 47.4122 106.84 47.3347C106.871 47.2572 106.886 47.1742 106.883 47.0908V28.8609C106.885 28.7775 106.87 28.6946 106.84 28.6172C106.809 28.5398 106.762 28.4694 106.703 28.4107C106.643 28.3511 106.572 28.3044 106.493 28.2735C106.415 28.2425 106.33 28.228 106.246 28.2307H105C104.916 28.228 104.831 28.2425 104.753 28.2735C104.674 28.3044 104.603 28.3511 104.543 28.4107C104.484 28.4694 104.437 28.5398 104.406 28.6172C104.376 28.6946 104.361 28.7775 104.363 28.8609V35.2007C103.828 34.5312 103.143 33.9982 102.362 33.6453C101.581 33.2924 100.728 33.1296 99.872 33.1707C99.0496 33.1162 98.226 33.2583 97.4694 33.5852C96.7128 33.9121 96.045 34.4146 95.521 35.0508C94.5057 36.4122 93.9521 38.0625 93.941 39.7608L93.913 40.5808L93.941 41.4107C93.9456 43.1108 94.4945 44.7649 95.507 46.1306C96.0327 46.7679 96.7032 47.2702 97.4625 47.5955C98.2219 47.9208 99.048 48.0598 99.872 48.0007V48.0007H99.87ZM100.397 45.8609C97.773 45.8609 96.461 44.1008 96.461 40.5808L96.489 39.7908C96.486 38.6344 96.8347 37.5043 97.489 36.5508C97.8354 36.1216 98.2819 35.7839 98.7893 35.5676C99.2967 35.3514 99.8495 35.2633 100.399 35.3108C100.944 35.2785 101.488 35.3715 101.991 35.583C102.494 35.7946 102.941 36.1189 103.299 36.5308C103.974 37.3483 104.35 38.3709 104.366 39.4307C104.384 39.6307 104.394 39.9907 104.394 40.5007C104.394 41.0107 104.384 41.3408 104.366 41.5408C104.338 42.6387 103.97 43.7009 103.313 44.5808C102.967 45.0132 102.522 45.3552 102.015 45.5781C101.508 45.801 100.954 45.8982 100.402 45.8609V45.8609H100.397ZM111.484 30.7507H113.12C113.292 30.7533 113.46 30.6929 113.591 30.5808C113.654 30.5226 113.705 30.4512 113.738 30.3718C113.772 30.2925 113.788 30.207 113.785 30.1209V28.6907C113.786 28.6048 113.769 28.5198 113.736 28.4407C113.702 28.3616 113.653 28.29 113.591 28.2307C113.53 28.1684 113.456 28.1194 113.375 28.0867C113.294 28.054 113.207 28.0385 113.12 28.0408H111.484C111.399 28.0375 111.314 28.0527 111.235 28.0855C111.156 28.1183 111.085 28.1679 111.027 28.2307C110.908 28.3542 110.844 28.5196 110.847 28.6907V30.1209C110.844 30.2058 110.858 30.2905 110.889 30.3696C110.92 30.4488 110.967 30.5208 111.027 30.5808C111.152 30.6944 111.315 30.7552 111.484 30.7507V30.7507ZM111.706 47.7207H112.926C113.01 47.7233 113.094 47.7087 113.173 47.6777C113.252 47.6468 113.323 47.6002 113.383 47.5408C113.443 47.4824 113.489 47.4122 113.52 47.3347C113.551 47.2572 113.566 47.1742 113.563 47.0908V34.0808C113.566 33.9961 113.552 33.9115 113.521 33.8325C113.491 33.7536 113.444 33.6819 113.384 33.6218C113.324 33.5618 113.253 33.5146 113.174 33.4834C113.095 33.4523 113.011 33.4377 112.926 33.4407H111.7C111.615 33.4379 111.531 33.4527 111.452 33.4839C111.373 33.5151 111.302 33.5621 111.242 33.6221C111.182 33.6821 111.135 33.7539 111.104 33.8328C111.073 33.9117 111.059 33.9961 111.062 34.0808V47.0908C111.059 47.1744 111.073 47.2577 111.104 47.3352C111.136 47.4128 111.183 47.4828 111.243 47.5408C111.303 47.6004 111.374 47.647 111.453 47.678C111.531 47.7089 111.616 47.7235 111.7 47.7207V47.7207H111.706ZM123.573 48.0007C124.43 48.055 125.288 47.9322 126.095 47.6397C126.902 47.3472 127.64 46.8913 128.263 46.3008C129.404 45.0653 130.033 43.4425 130.023 41.7608C130.063 41.3687 130.083 40.9749 130.083 40.5808C130.083 40.2008 130.063 39.8107 130.023 39.4007C130.029 37.7189 129.392 36.0986 128.243 34.8709C126.935 33.7727 125.281 33.1707 123.573 33.1707C121.865 33.1707 120.211 33.7727 118.903 34.8709C117.746 36.0947 117.104 37.7166 117.111 39.4007L117.083 40.5808L117.111 41.7608C117.102 43.4426 117.732 45.0653 118.873 46.3008C119.497 46.8922 120.237 47.3484 121.046 47.6409C121.854 47.9334 122.715 48.0559 123.573 48.0007V48.0007ZM123.573 45.9407C123.051 45.9663 122.53 45.8806 122.044 45.6892C121.557 45.4978 121.117 45.2053 120.753 44.8308C120.008 43.9327 119.611 42.797 119.633 41.6306L119.603 40.5808L119.633 39.5408C119.609 38.3741 120.007 37.238 120.753 36.3408C121.517 35.6275 122.523 35.2305 123.568 35.2305C124.613 35.2305 125.619 35.6275 126.383 36.3408C127.133 37.2358 127.531 38.3734 127.503 39.5408C127.523 39.7208 127.533 40.0708 127.533 40.5808C127.533 41.0908 127.523 41.4406 127.503 41.6306C127.53 42.7978 127.132 43.9351 126.383 44.8308C126.021 45.2051 125.582 45.4978 125.098 45.6892C124.613 45.8806 124.093 45.9663 123.573 45.9407V45.9407ZM39.265 1.01076C35.445 1.01076 34.349 4.41066 31.247 4.41066C28.382 4.41066 27.303 1.01076 23.381 1.01076H23.36C22.5294 1.00615 21.706 1.16516 20.9368 1.47877C20.1677 1.79238 19.4678 2.25456 18.8773 2.83864C18.2867 3.42272 17.8169 4.1172 17.4948 4.88283C17.1727 5.64846 17.0046 6.47018 17 7.3008C17 11.0908 20.432 12.0308 20.432 15.1008C20.432 18.1708 17 19.2608 17 23.0508C17 24.736 17.6694 26.3521 18.861 27.5437C20.0526 28.7353 21.6688 29.4048 23.354 29.4048C25.0392 29.4048 26.6554 28.7353 27.847 27.5437C29.0386 26.3521 29.708 24.736 29.708 23.0508C29.708 19.2608 26.275 18.1808 26.275 15.1008C26.3356 13.8095 26.8802 12.5882 27.8004 11.6802C28.7206 10.7722 29.949 10.244 31.241 10.2007C34.341 10.2007 35.441 13.6008 39.259 13.6008C40.1067 13.6348 40.9527 13.4972 41.746 13.1963C42.5393 12.8954 43.2636 12.4371 43.8755 11.8494C44.4874 11.2616 44.9743 10.5564 45.307 9.77589C45.6397 8.99538 45.8113 8.15584 45.8115 7.30739C45.8117 6.45893 45.6405 5.61907 45.3082 4.83839C44.9759 4.05772 44.4893 3.3522 43.8777 2.76418C43.266 2.17615 42.5419 1.71783 41.7488 1.41652C40.9556 1.11521 40.1098 0.977163 39.262 1.01076H39.265Z" fill="black"></path></svg>