<svg xmlns="http://www.w3.org/2000/svg" width="64" height="64" viewBox="0 0 64 64" fill="none"><path d="M32 51C31.81 51 31.62 50.95 31.46 50.84C31.11 50.62 23 45.25 23 35.5C23 25.75 31.11 20.38 31.46 20.16C31.79 19.95 32.22 19.95 32.55 20.16C32.9 20.38 41.01 25.75 41.01 35.5C41.01 45.25 32.9 50.62 32.55 50.84C32.38 50.95 32.2 51 32.01 51H32ZM32 22.23C30.27 23.57 25 28.23 25 35.5C25 42.77 30.27 47.43 32 48.77C33.73 47.43 39 42.77 39 35.5C39 28.23 33.73 23.57 32 22.23Z" fill="#F3BF5B"></path><path d="M26.0802 51.12C26.0802 51.12 26.0002 51.12 25.9602 51.12C21.7902 50.61 18.1402 48.87 15.3802 46.11C13.7202 44.45 12.4302 42.46 11.5502 40.22C11.3502 39.71 11.6002 39.13 12.1202 38.92C12.6402 38.72 13.2202 38.97 13.4202 39.49C14.2002 41.48 15.3402 43.23 16.8102 44.7C19.2802 47.18 22.4402 48.67 26.2202 49.13C26.7702 49.2 27.1602 49.7 27.0902 50.25C27.0302 50.76 26.6002 51.13 26.1002 51.13L26.0802 51.12Z" fill="#1A1C1B"></path><path d="M11.3602 36.31C10.8602 36.31 10.4302 35.94 10.3702 35.43C9.95022 31.99 10.4902 29.39 10.5202 29.28C10.6002 28.89 10.9002 28.59 11.2902 28.51C11.4802 28.47 15.9902 27.53 21.0602 29.13C21.5902 29.3 21.8802 29.86 21.7102 30.38C21.5402 30.91 20.9802 31.2 20.4602 31.03C16.9802 29.93 13.7302 30.17 12.3702 30.35C12.2502 31.27 12.1002 33.05 12.3602 35.18C12.4302 35.73 12.0402 36.23 11.4902 36.29C11.4502 36.29 11.4102 36.29 11.3702 36.29L11.3602 36.31Z" fill="#1A1C1B"></path><path d="M26.0802 51.12C26.0802 51.12 26.0002 51.12 25.9602 51.12C21.7902 50.61 18.1402 48.87 15.3802 46.11C13.7202 44.45 12.4302 42.46 11.5502 40.22C11.3502 39.71 11.6002 39.13 12.1202 38.92C12.6402 38.72 13.2202 38.97 13.4202 39.49C14.2002 41.48 15.3402 43.23 16.8102 44.7C19.2802 47.18 22.4402 48.67 26.2202 49.13C26.7702 49.2 27.1602 49.7 27.0902 50.25C27.0302 50.76 26.6002 51.13 26.1002 51.13L26.0802 51.12Z" fill="#1A1C1B"></path><path d="M11.3602 36.31C10.8602 36.31 10.4302 35.94 10.3702 35.43C9.95022 31.99 10.4902 29.39 10.5202 29.28C10.6002 28.89 10.9002 28.59 11.2902 28.51C11.4802 28.47 15.9902 27.53 21.0602 29.13C21.5902 29.3 21.8802 29.86 21.7102 30.38C21.5402 30.91 20.9802 31.2 20.4602 31.03C16.9802 29.93 13.7302 30.17 12.3702 30.35C12.2502 31.27 12.1002 33.05 12.3602 35.18C12.4302 35.73 12.0402 36.23 11.4902 36.29C11.4502 36.29 11.4102 36.29 11.3702 36.29L11.3602 36.31Z" fill="#1A1C1B"></path><path d="M17.5004 59C7.75043 59 2.38043 50.89 2.16043 50.54C1.95043 50.21 1.95043 49.78 2.16043 49.45C2.26043 49.29 4.79043 45.44 9.51043 42.99C10.0004 42.73 10.6004 42.93 10.8604 43.42C11.1104 43.91 10.9204 44.51 10.4304 44.77C7.19043 46.45 5.07043 48.92 4.23043 50C5.57043 51.73 10.2304 57 17.5004 57C22.5904 57 26.3804 54.44 28.6704 52.3C29.0704 51.92 29.7104 51.94 30.0804 52.35C30.4604 52.75 30.4404 53.39 30.0304 53.76C27.4804 56.15 23.2404 59 17.5004 59Z" fill="#F3BF5B"></path><path d="M17.5004 59C7.75043 59 2.38043 50.89 2.16043 50.54C1.95043 50.21 1.95043 49.78 2.16043 49.45C2.26043 49.29 4.79043 45.44 9.51043 42.99C10.0004 42.73 10.6004 42.93 10.8604 43.42C11.1104 43.91 10.9204 44.51 10.4304 44.77C7.19043 46.45 5.07043 48.92 4.23043 50C5.57043 51.73 10.2304 57 17.5004 57C22.5904 57 26.3804 54.44 28.6704 52.3C29.0704 51.92 29.7104 51.94 30.0804 52.35C30.4604 52.75 30.4404 53.39 30.0304 53.76C27.4804 56.15 23.2404 59 17.5004 59Z" fill="#F3BF5B"></path><path d="M57.2903 54.96C57.0003 54.96 56.7103 54.84 56.5203 54.59C56.1703 54.16 56.2303 53.53 56.6603 53.18C58.1803 51.93 59.2403 50.68 59.7703 49.99C58.9403 48.91 56.8103 46.44 53.5703 44.76C53.0803 44.51 52.8903 43.9 53.1403 43.41C53.3903 42.92 54.0003 42.73 54.4903 42.98C59.2103 45.43 61.7303 49.28 61.8403 49.44C62.0503 49.77 62.0503 50.2 61.8403 50.53C61.7803 50.62 60.4503 52.65 57.9203 54.72C57.7303 54.87 57.5103 54.95 57.2903 54.95V54.96Z" fill="#F3BF5B"></path><path d="M46.5006 59C40.7606 59 36.5206 56.15 33.9706 53.76C33.5706 53.38 33.5506 52.75 33.9206 52.35C34.3006 51.95 34.9306 51.93 35.3306 52.3C37.6206 54.44 41.4106 57 46.5006 57C48.9006 57 51.2206 56.43 53.4106 55.31C53.9006 55.06 54.5006 55.25 54.7606 55.74C55.0106 56.23 54.8206 56.83 54.3306 57.09C51.8606 58.36 49.2206 59 46.5006 59Z" fill="#F3BF5B"></path><path d="M57.2903 54.96C57.0003 54.96 56.7103 54.84 56.5203 54.59C56.1703 54.16 56.2303 53.53 56.6603 53.18C58.1803 51.93 59.2403 50.68 59.7703 49.99C58.9403 48.91 56.8103 46.44 53.5703 44.76C53.0803 44.51 52.8903 43.9 53.1403 43.41C53.3903 42.92 54.0003 42.73 54.4903 42.98C59.2103 45.43 61.7303 49.28 61.8403 49.44C62.0503 49.77 62.0503 50.2 61.8403 50.53C61.7803 50.62 60.4503 52.65 57.9203 54.72C57.7303 54.87 57.5103 54.95 57.2903 54.95V54.96Z" fill="#F3BF5B"></path><path d="M46.5006 59C40.7606 59 36.5206 56.15 33.9706 53.76C33.5706 53.38 33.5506 52.75 33.9206 52.35C34.3006 51.95 34.9306 51.93 35.3306 52.3C37.6206 54.44 41.4106 57 46.5006 57C48.9006 57 51.2206 56.43 53.4106 55.31C53.9006 55.06 54.5006 55.25 54.7606 55.74C55.0106 56.23 54.8206 56.83 54.3306 57.09C51.8606 58.36 49.2206 59 46.5006 59Z" fill="#F3BF5B"></path><path d="M37.92 51.12C37.42 51.12 36.99 50.75 36.93 50.24C36.86 49.69 37.25 49.19 37.8 49.12C41.57 48.66 44.74 47.16 47.2 44.69C52.35 39.54 51.92 32.52 51.64 30.36C50.28 30.18 47.04 29.94 43.55 31.04C43.03 31.21 42.46 30.92 42.3 30.39C42.13 29.86 42.43 29.3 42.95 29.14C48.02 27.54 52.53 28.48 52.72 28.52C53.11 28.6 53.41 28.9 53.49 29.29C53.58 29.69 55.51 39.22 48.62 46.12C45.87 48.88 42.21 50.61 38.05 51.13C38.01 51.13 37.97 51.13 37.93 51.13L37.92 51.12Z" fill="#1A1C1B"></path><path d="M48 22C45.79 22 44 20.21 44 18C44 15.79 45.79 14 48 14C50.21 14 52 15.79 52 18C52 20.21 50.21 22 48 22ZM48 16C46.9 16 46 16.9 46 18C46 19.1 46.9 20 48 20C49.1 20 50 19.1 50 18C50 16.9 49.1 16 48 16Z" fill="#1A1C1B"></path><path d="M16 22C13.79 22 12 20.21 12 18C12 15.79 13.79 14 16 14C18.21 14 20 15.79 20 18C20 20.21 18.21 22 16 22ZM16 16C14.9 16 14 16.9 14 18C14 19.1 14.9 20 16 20C17.1 20 18 19.1 18 18C18 16.9 17.1 16 16 16Z" fill="#1A1C1B"></path><path d="M32 13C29.79 13 28 11.21 28 9C28 6.79 29.79 5 32 5C34.21 5 36 6.79 36 9C36 11.21 34.21 13 32 13ZM32 7C30.9 7 30 7.9 30 9C30 10.1 30.9 11 32 11C33.1 11 34 10.1 34 9C34 7.9 33.1 7 32 7Z" fill="#F3BF5B"></path></svg>