<svg xmlns="http://www.w3.org/2000/svg" width="64" height="64" viewBox="0 0 64 64" fill="none"><path d="M59.7902 49.97L56.8102 47.38C56.2302 46.8 55.6602 46.18 55.0802 45.48C54.7202 45.06 54.0902 45 53.6702 45.36C53.2502 45.72 53.1902 46.35 53.5502 46.77C54.1702 47.51 54.7702 48.17 55.3902 48.78V48.79L55.4202 48.82H42.4302C42.1602 48.82 41.8902 48.71 41.7002 48.51L9.66023 16.52L19.4302 6.74999C20.4002 5.77999 22.1002 5.77999 23.0702 6.74999C23.5602 7.23999 23.8302 7.88999 23.8302 8.63999L23.6902 13.42C23.6902 13.42 23.6902 13.43 23.6902 13.44V13.57L23.3102 26.87C23.2902 27.42 23.7302 27.88 24.2802 27.9H24.3102C24.8502 27.9 25.2902 27.47 25.3102 26.93L25.5702 17.68C26.4002 18.41 27.4502 18.9 28.6402 19.01C30.6202 19.21 32.5702 18.3 33.7002 16.64L34.4902 15.48C35.0302 14.69 35.9302 14.21 36.8902 14.21C37.0202 14.21 37.1402 14.23 37.2802 14.24C38.4502 14.4 39.4002 15.25 39.6902 16.4C39.8202 16.93 39.9802 17.53 40.1602 18.2L40.2402 18.5C40.3602 18.95 40.7602 19.24 41.2002 19.24C41.2902 19.24 41.3702 19.23 41.4602 19.21C41.9902 19.07 42.3102 18.52 42.1702 17.98L42.0902 17.68C41.9102 17.02 41.7502 16.43 41.6202 15.91C41.1302 13.97 39.5302 12.53 37.4802 12.25C35.6802 12.05 33.8702 12.84 32.8302 14.35L32.0402 15.52C31.3302 16.57 30.1002 17.15 28.8302 17.02C27.0402 16.85 25.6902 15.37 25.6902 13.58L25.8302 8.69999V8.58999C25.8302 7.35999 25.3502 6.19999 24.4902 5.32999C23.6302 4.46999 22.4802 3.98999 21.2602 3.98999C20.0402 3.98999 18.8902 4.45999 18.0302 5.32999L7.53023 15.81L3.19023 20.14C2.42023 20.9 2.00023 21.92 1.99023 23C1.99023 24.09 2.41023 25.11 3.18023 25.89L14.9802 37.68C15.3702 38.07 16.0002 38.07 16.3902 37.68C16.7802 37.29 16.7802 36.66 16.3902 36.27L4.59023 24.48C4.20023 24.09 3.98023 23.57 3.98023 23.01C3.98023 22.46 4.20023 21.95 4.59023 21.56L8.22023 17.94L40.2602 49.93C40.8302 50.5 41.6102 50.82 42.4102 50.82H56.3802C58.3602 50.82 59.9802 52.43 59.9802 54.41C59.9802 55.36 59.6002 56.26 58.9202 56.94C58.2402 57.62 57.3402 58 56.3802 58H41.9802C39.5202 58 37.2102 57.04 35.4602 55.3L19.2202 39.09C18.8302 38.7 18.2002 38.7 17.8102 39.09C17.4202 39.48 17.4202 40.11 17.8102 40.5L34.0502 56.71C36.1802 58.83 39.0002 59.99 41.9902 59.99H56.3902C57.8802 59.99 59.2902 59.41 60.3502 58.35C61.4102 57.29 61.9902 55.89 61.9902 54.4C61.9902 52.59 61.1202 50.98 59.7802 49.96L59.7902 49.97Z" fill="#1A1C1B"></path><path d="M31 60H3C2.45 60 2 59.55 2 59C2 58.45 2.45 58 3 58H31C31.55 58 32 58.45 32 59C32 59.55 31.55 60 31 60Z" fill="#F3BF5B"></path><path d="M21 54H7C6.45 54 6 53.55 6 53C6 52.45 6.45 52 7 52H21C21.55 52 22 52.45 22 53C22 53.55 21.55 54 21 54Z" fill="#F3BF5B"></path><path d="M51.1199 42.79C51.1199 42.79 51.0599 42.79 51.0199 42.79L46.8999 42.39C44.0699 42.11 41.6099 40.33 40.4699 37.72L36.1799 27.91C35.3499 26.03 36.2099 23.8 38.0799 22.95L41.9199 21.21C42.1799 21.09 42.4799 21.09 42.7399 21.21C42.9999 21.33 43.1999 21.55 43.2799 21.82C44.9399 27.14 47.7899 34.82 51.9499 41.24C52.1599 41.56 52.1599 41.97 51.9599 42.3C51.7799 42.6 51.4499 42.78 51.1099 42.78L51.1199 42.79ZM41.7299 23.5L38.9199 24.78C38.0399 25.18 37.6299 26.23 38.0199 27.12L42.3099 36.93C43.1599 38.87 44.9899 40.2 47.0999 40.41L49.2099 40.61C45.7699 34.83 43.3099 28.38 41.7299 23.51V23.5Z" fill="#F3BF5B"></path></svg>