<svg xmlns="http://www.w3.org/2000/svg" width="64" height="64" viewBox="0 0 64 64" fill="none"><path d="M18.0001 62H10.0001C9.64012 62 9.31012 61.81 9.13012 61.5C8.95012 61.19 8.95012 60.81 9.13012 60.5L20.3201 41.31C20.4901 40.99 20.8201 40.77 21.2001 40.77C21.7501 40.77 22.2001 41.21 22.2001 41.76C22.2001 41.95 22.1501 42.12 22.0601 42.27L11.7301 59.99H17.4201L25.6601 45.87C25.9401 45.39 26.5501 45.23 27.0301 45.51C27.5101 45.79 27.6701 46.4 27.3901 46.88L18.8601 61.5C18.6801 61.81 18.3501 62 18.0001 62Z" fill="#F3BF5B"></path><path d="M32 16C28.14 16 25 12.86 25 9C25 5.14 28.14 2 32 2C35.86 2 39 5.14 39 9C39 12.86 35.86 16 32 16ZM32 4C29.24 4 27 6.24 27 9C27 11.76 29.24 14 32 14C34.76 14 37 11.76 37 9C37 6.24 34.76 4 32 4Z" fill="#F3BF5B"></path><path d="M55 26C57.76 26 60 23.76 60 21V19C60 18.45 59.55 18 59 18H49C48.45 18 48 18.45 48 19C48 19.55 48.45 20 49 20H58V21C58 22.65 56.65 24 55 24H40C39.45 24 39 24.45 39 25V36H33C32.45 36 32 36.45 32 37C32 37.55 32.45 38 33 38H48C49.65 38 51 39.35 51 41V60H47V43C47 42.45 46.55 42 46 42H30C27.24 42 25 39.76 25 37V25C25 24.45 24.55 24 24 24H9C7.35 24 6 22.65 6 21V20H45C45.55 20 46 19.55 46 19C46 18.45 45.55 18 45 18H5C4.45 18 4 18.45 4 19V21C4 23.76 6.24 26 9 26H23V37C23 40.86 26.14 44 30 44H45V60H34C33.45 60 33 60.45 33 61C33 61.55 33.45 62 34 62H59C59.55 62 60 61.55 60 61C60 60.45 59.55 60 59 60H53V41C53 38.24 50.76 36 48 36H41V26H55Z" fill="#1A1C1B"></path><path d="M30 62H5C4.45 62 4 61.55 4 61C4 60.45 4.45 60 5 60H30C30.55 60 31 60.45 31 61C31 61.55 30.55 62 30 62Z" fill="#1A1C1B"></path></svg>