<svg xmlns="http://www.w3.org/2000/svg" width="64" height="64" viewBox="0 0 64 64" fill="none"><path d="M31.9998 48.04C31.8198 48.04 31.6398 47.99 31.4798 47.89C30.3298 47.19 29.4198 46.6 28.6198 46.03C27.9798 45.58 27.3798 45.14 26.7998 44.7C26.7798 44.69 26.7698 44.67 26.7498 44.66C24.2198 42.7 22.2098 40.66 20.7798 38.6C20.4598 38.15 20.5798 37.52 21.0298 37.21C21.4798 36.89 22.1098 37.01 22.4198 37.46C23.7498 39.37 25.6298 41.27 28.0098 43.11C28.0198 43.12 28.0398 43.13 28.0498 43.15C28.5898 43.56 29.1498 43.97 29.7598 44.4C30.4098 44.85 31.1298 45.32 31.9998 45.87C33.0098 45.25 33.9598 44.62 34.8298 43.99L34.9198 43.93C35.0298 43.85 35.1298 43.77 35.2398 43.7C35.2398 43.7 35.2498 43.7 35.2598 43.69C37.9898 41.67 40.1198 39.58 41.5898 37.47C41.9098 37.02 42.5298 36.91 42.9798 37.22C43.4298 37.54 43.5398 38.16 43.2298 38.61C41.6398 40.89 39.3698 43.13 36.4698 45.27C36.4398 45.3 36.4098 45.32 36.3798 45.34C36.2898 45.4 36.1998 45.46 36.1098 45.53L36.0098 45.6C34.9398 46.37 33.7698 47.14 32.5298 47.89C32.3698 47.99 32.1898 48.03 32.0098 48.03L31.9998 48.04Z" fill="#F3BF5B"></path><path d="M19.03 31.04C19.03 31.04 18.98 31.04 18.95 31.04C18.4 31 17.99 30.52 18.03 29.97C18.29 26.53 20.27 23.56 23.31 22.01C25.87 20.71 28.7 20.73 30.87 22.08C31.27 22.33 31.64 22.62 31.99 22.95C32.28 22.68 32.58 22.43 32.91 22.22C35.05 20.78 37.9 20.67 40.52 21.94C43.61 23.44 45.7 26.52 45.96 29.98C46 30.53 45.59 31.01 45.04 31.05C44.47 31.09 44.01 30.68 43.97 30.13C43.76 27.38 42.1 24.93 39.65 23.74C37.68 22.79 35.58 22.84 34.03 23.89C33.57 24.2 33.16 24.58 32.8 25.07C32.61 25.32 32.32 25.47 32.01 25.47C31.7 25.47 31.41 25.32 31.22 25.08C30.81 24.54 30.36 24.13 29.84 23.8C28.27 22.83 26.18 22.83 24.24 23.82C21.82 25.05 20.25 27.42 20.04 30.15C20 30.68 19.56 31.07 19.04 31.07L19.03 31.04Z" fill="#F3BF5B"></path><path d="M28 39.04C27.69 39.04 27.39 38.89 27.2 38.64L24.5 35.04H16C15.45 35.04 15 34.59 15 34.04C15 33.49 15.45 33.04 16 33.04H25C25.31 33.04 25.61 33.19 25.8 33.44L27.78 36.08L31.09 28.64C31.25 28.29 31.59 28.06 31.98 28.05C32.38 28.03 32.72 28.26 32.9 28.6L36.13 35.06L37.17 33.49C37.36 33.21 37.67 33.04 38 33.04H48C48.55 33.04 49 33.49 49 34.04C49 34.59 48.55 35.04 48 35.04H38.54L36.84 37.59C36.64 37.89 36.31 38.05 35.95 38.03C35.59 38.01 35.28 37.8 35.12 37.48L32.07 31.38L28.93 38.44C28.79 38.76 28.48 38.99 28.13 39.03C28.09 39.03 28.05 39.03 28.02 39.03L28 39.04Z" fill="#F3BF5B"></path><path d="M33.86 7H27.64C26.8 7 26.08 6.41 26.01 5.66C25.97 5.23 26.1 4.81 26.39 4.5C26.68 4.18 27.07 4.01 27.5 4.01H41.26C42.77 4.01 44.22 4.57 45.33 5.6L52.5 12.21C53.06 12.72 53.78 13 54.53 13H61C61.55 13 62 12.55 62 12C62 11.45 61.55 11 61 11H54.53C54.28 11 54.04 10.91 53.85 10.73L46.68 4.12C45.2 2.75 43.27 2 41.25 2H27.49C26.5 2 25.56 2.42 24.89 3.15C24.23 3.88 23.9 4.87 24 5.86C24.18 7.62 25.77 9 27.62 9H33.84C34.39 9 34.84 8.55 34.84 8C34.84 7.45 34.39 7 33.84 7H33.86Z" fill="#1A1C1B"></path><path d="M61.0001 22H51.7701C49.9001 22 48.1401 21.27 46.8201 19.95L38.4401 11.57C37.8601 10.98 37.8601 10.03 38.4401 9.44999C39.0201 8.86999 39.9801 8.86999 40.5601 9.44999L45.5201 14.41C45.7201 14.61 45.9701 14.7 46.2301 14.7C46.4901 14.7 46.7401 14.6 46.9401 14.41C47.3301 14.02 47.3301 13.39 46.9401 13L41.9801 8.03999C40.6101 6.67999 38.4001 6.67999 37.0301 8.03999C35.6801 9.39999 35.6801 11.62 37.0301 12.99L45.4201 21.38C47.1201 23.08 49.3801 24.02 51.7801 24.02H61.0101C61.5601 24.02 62.0101 23.57 62.0101 23.02C62.0101 22.47 61.5601 22.02 61.0101 22.02L61.0001 22Z" fill="#1A1C1B"></path><path d="M3 42H12.23C14.1 42 15.85 42.73 17.18 44.05L25.56 52.43C26.14 53.02 26.14 53.98 25.56 54.56C24.98 55.14 24.02 55.14 23.44 54.56L18.48 49.6C18.09 49.21 17.46 49.21 17.07 49.6C16.68 49.99 16.68 50.62 17.07 51.01L22.03 55.97C22.71 56.65 23.61 56.99 24.5 56.99C25.39 56.99 26.29 56.65 26.97 55.97C28.32 54.61 28.32 52.39 26.97 51.02L18.58 42.64C16.88 40.94 14.62 40 12.22 40H3C2.45 40 2 40.45 2 41C2 41.55 2.45 42 3 42Z" fill="#1A1C1B"></path><path d="M36.36 55H30.14C29.59 55 29.14 55.45 29.14 56C29.14 56.55 29.59 57 30.14 57H36.36C37.2 57 37.92 57.59 37.99 58.34C38.03 58.77 37.9 59.19 37.61 59.5C37.32 59.81 36.93 59.99 36.5 59.99H22.74C21.23 59.99 19.78 59.43 18.67 58.4L11.5 51.79C10.94 51.28 10.22 51 9.47 51H3C2.45 51 2 51.45 2 52C2 52.55 2.45 53 3 53H9.47C9.72 53 9.96 53.09 10.15 53.27L17.32 59.88C18.8 61.25 20.73 62 22.75 62H36.51C37.5 62 38.44 61.58 39.11 60.85C39.77 60.12 40.1 59.13 40 58.14C39.82 56.38 38.23 55 36.38 55H36.36Z" fill="#1A1C1B"></path></svg>